<mxfile host="app.diagrams.net" agent="Mozilla/5.0 (Windows NT 10.0; Win64; x64) AppleWebKit/537.36 (KHTML, like Gecko) Chrome/134.0.0.0 Safari/537.36" version="26.1.1">
  <diagram name="Page-1" id="2CbcEgXK2YOgZWxvckIo">
    <mxGraphModel dx="2376" dy="965" grid="1" gridSize="10" guides="1" tooltips="1" connect="1" arrows="1" fold="1" page="1" pageScale="1" pageWidth="850" pageHeight="1100" math="1" shadow="0">
      <root>
        <mxCell id="0" />
        <mxCell id="1" parent="0" />
        <mxCell id="3uHl7x6qHm_plDaVCpx7-13" value="&lt;font face=&quot;SimSun&quot;&gt;卷积层&lt;/font&gt;" style="shape=cube;whiteSpace=wrap;html=1;boundedLbl=1;backgroundOutline=1;darkOpacity=0.05;darkOpacity2=0.1;flipH=1;fillColor=#dae8fc;strokeColor=#6c8ebf;horizontal=0;fontSize=18;" vertex="1" parent="1">
          <mxGeometry y="250" width="50" height="130" as="geometry" />
        </mxCell>
        <mxCell id="3uHl7x6qHm_plDaVCpx7-15" value="CBAM" style="shape=cube;whiteSpace=wrap;html=1;boundedLbl=1;backgroundOutline=1;darkOpacity=0.05;darkOpacity2=0.1;flipH=1;fillColor=#f8cecc;strokeColor=#b85450;horizontal=0;fontFamily=Times New Roman;fontSize=17;" vertex="1" parent="1">
          <mxGeometry x="32" y="250" width="50" height="130" as="geometry" />
        </mxCell>
        <mxCell id="3uHl7x6qHm_plDaVCpx7-16" value="..." style="text;html=1;align=center;verticalAlign=middle;whiteSpace=wrap;rounded=0;fontFamily=Times New Roman;fontSize=19;" vertex="1" parent="1">
          <mxGeometry x="65" y="305" width="60" height="30" as="geometry" />
        </mxCell>
        <mxCell id="3uHl7x6qHm_plDaVCpx7-17" value="&lt;span style=&quot;font-family: SimSun; font-size: 18px;&quot;&gt;卷积层&lt;/span&gt;" style="shape=cube;whiteSpace=wrap;html=1;boundedLbl=1;backgroundOutline=1;darkOpacity=0.05;darkOpacity2=0.1;flipH=1;fillColor=#dae8fc;strokeColor=#6c8ebf;horizontal=0;" vertex="1" parent="1">
          <mxGeometry x="109" y="255" width="50" height="130" as="geometry" />
        </mxCell>
        <mxCell id="3uHl7x6qHm_plDaVCpx7-18" value="BAM" style="shape=cube;whiteSpace=wrap;html=1;boundedLbl=1;backgroundOutline=1;darkOpacity=0.05;darkOpacity2=0.1;flipH=1;fillColor=#f8cecc;strokeColor=#b85450;horizontal=0;fontSize=18;fontFamily=Times New Roman;" vertex="1" parent="1">
          <mxGeometry x="141" y="255" width="50" height="130" as="geometry" />
        </mxCell>
        <mxCell id="3uHl7x6qHm_plDaVCpx7-22" value="嵌入模块" style="text;html=1;align=center;verticalAlign=middle;whiteSpace=wrap;rounded=0;fontFamily=SimSun;fontSize=19;" vertex="1" parent="1">
          <mxGeometry x="36.25" y="180" width="117.5" height="30" as="geometry" />
        </mxCell>
        <mxCell id="3uHl7x6qHm_plDaVCpx7-23" value="&lt;font face=&quot;Times New Roman&quot; style=&quot;font-size: 18px;&quot;&gt;ViT&lt;/font&gt;" style="rounded=0;whiteSpace=wrap;html=1;fillColor=#d5e8d4;strokeColor=#82b366;" vertex="1" parent="1">
          <mxGeometry x="230" y="242.5" width="70" height="155" as="geometry" />
        </mxCell>
        <mxCell id="3uHl7x6qHm_plDaVCpx7-25" value="" style="endArrow=classic;html=1;rounded=0;" edge="1" parent="1">
          <mxGeometry width="50" height="50" relative="1" as="geometry">
            <mxPoint x="196" y="322" as="sourcePoint" />
            <mxPoint x="226" y="322" as="targetPoint" />
          </mxGeometry>
        </mxCell>
        <mxCell id="3uHl7x6qHm_plDaVCpx7-26" style="edgeStyle=orthogonalEdgeStyle;rounded=0;orthogonalLoop=1;jettySize=auto;html=1;exitX=0.5;exitY=0;exitDx=0;exitDy=0;entryX=0.5;entryY=1;entryDx=0;entryDy=0;endArrow=none;startFill=0;curved=1;strokeColor=#6B6B6B;" edge="1" parent="1" source="3uHl7x6qHm_plDaVCpx7-30" target="3uHl7x6qHm_plDaVCpx7-48">
          <mxGeometry relative="1" as="geometry" />
        </mxCell>
        <mxCell id="3uHl7x6qHm_plDaVCpx7-27" style="edgeStyle=orthogonalEdgeStyle;rounded=0;orthogonalLoop=1;jettySize=auto;html=1;exitX=0.5;exitY=0;exitDx=0;exitDy=0;entryX=0.5;entryY=1;entryDx=0;entryDy=0;strokeColor=#6B6B6B;endArrow=none;startFill=0;curved=1;" edge="1" parent="1" source="3uHl7x6qHm_plDaVCpx7-30" target="3uHl7x6qHm_plDaVCpx7-49">
          <mxGeometry relative="1" as="geometry" />
        </mxCell>
        <mxCell id="3uHl7x6qHm_plDaVCpx7-28" style="edgeStyle=orthogonalEdgeStyle;rounded=0;orthogonalLoop=1;jettySize=auto;html=1;exitX=0.5;exitY=0;exitDx=0;exitDy=0;curved=1;strokeColor=#6B6B6B;endArrow=none;startFill=0;" edge="1" parent="1" source="3uHl7x6qHm_plDaVCpx7-30" target="3uHl7x6qHm_plDaVCpx7-51">
          <mxGeometry relative="1" as="geometry" />
        </mxCell>
        <mxCell id="3uHl7x6qHm_plDaVCpx7-29" style="edgeStyle=orthogonalEdgeStyle;rounded=0;orthogonalLoop=1;jettySize=auto;html=1;exitX=0.5;exitY=0;exitDx=0;exitDy=0;entryX=0.5;entryY=1;entryDx=0;entryDy=0;curved=1;strokeColor=#6B6B6B;endArrow=none;startFill=0;" edge="1" parent="1" source="3uHl7x6qHm_plDaVCpx7-30" target="3uHl7x6qHm_plDaVCpx7-52">
          <mxGeometry relative="1" as="geometry" />
        </mxCell>
        <mxCell id="3uHl7x6qHm_plDaVCpx7-30" value="" style="rounded=1;whiteSpace=wrap;html=1;rotation=90;strokeColor=#CCCCCC;" vertex="1" parent="1">
          <mxGeometry x="583" y="272" width="63" height="98" as="geometry" />
        </mxCell>
        <mxCell id="3uHl7x6qHm_plDaVCpx7-31" value="\(g_\varphi\)" style="text;html=1;align=center;verticalAlign=middle;whiteSpace=wrap;rounded=0;fontFamily=Times New Roman;fontSize=30;" vertex="1" parent="1">
          <mxGeometry x="591.75" y="308" width="45.5" height="20" as="geometry" />
        </mxCell>
        <mxCell id="3uHl7x6qHm_plDaVCpx7-32" value="" style="shape=cube;whiteSpace=wrap;html=1;boundedLbl=1;backgroundOutline=1;darkOpacity=0.05;darkOpacity2=0.1;flipV=0;flipH=1;size=10;fillColor=#dae8fc;strokeColor=#6c8ebf;" vertex="1" parent="1">
          <mxGeometry x="355" y="249" width="80" height="30" as="geometry" />
        </mxCell>
        <mxCell id="3uHl7x6qHm_plDaVCpx7-33" value="" style="shape=cube;whiteSpace=wrap;html=1;boundedLbl=1;backgroundOutline=1;darkOpacity=0.05;darkOpacity2=0.1;flipV=0;flipH=1;size=10;fillColor=#d5e8d4;strokeColor=#82b366;" vertex="1" parent="1">
          <mxGeometry x="355" y="290" width="80" height="30" as="geometry" />
        </mxCell>
        <mxCell id="3uHl7x6qHm_plDaVCpx7-34" value="" style="shape=cube;whiteSpace=wrap;html=1;boundedLbl=1;backgroundOutline=1;darkOpacity=0.05;darkOpacity2=0.1;flipV=0;flipH=1;size=10;fillColor=#f8cecc;strokeColor=#b85450;" vertex="1" parent="1">
          <mxGeometry x="355" y="330" width="80" height="30" as="geometry" />
        </mxCell>
        <mxCell id="3uHl7x6qHm_plDaVCpx7-35" value="" style="shape=cube;whiteSpace=wrap;html=1;boundedLbl=1;backgroundOutline=1;darkOpacity=0.05;darkOpacity2=0.1;flipV=0;flipH=1;size=10;fillColor=#ffe6cc;strokeColor=#d79b00;" vertex="1" parent="1">
          <mxGeometry x="355" y="369" width="80" height="30" as="geometry" />
        </mxCell>
        <mxCell id="3uHl7x6qHm_plDaVCpx7-36" style="edgeStyle=orthogonalEdgeStyle;rounded=0;orthogonalLoop=1;jettySize=auto;html=1;exitX=0;exitY=0;exitDx=0;exitDy=10;exitPerimeter=0;entryX=0.5;entryY=1;entryDx=0;entryDy=0;curved=1;strokeColor=#6B6B6B;endArrow=none;startFill=0;" edge="1" parent="1" source="3uHl7x6qHm_plDaVCpx7-37" target="3uHl7x6qHm_plDaVCpx7-30">
          <mxGeometry relative="1" as="geometry" />
        </mxCell>
        <mxCell id="3uHl7x6qHm_plDaVCpx7-37" value="" style="shape=cube;whiteSpace=wrap;html=1;boundedLbl=1;backgroundOutline=1;darkOpacity=0.05;darkOpacity2=0.1;flipV=0;flipH=1;size=10;fillColor=#e1d5e7;strokeColor=#9673a6;" vertex="1" parent="1">
          <mxGeometry x="435" y="249" width="80" height="30" as="geometry" />
        </mxCell>
        <mxCell id="3uHl7x6qHm_plDaVCpx7-38" style="edgeStyle=orthogonalEdgeStyle;rounded=0;orthogonalLoop=1;jettySize=auto;html=1;exitX=0;exitY=0;exitDx=0;exitDy=10;exitPerimeter=0;entryX=0.5;entryY=1;entryDx=0;entryDy=0;curved=1;endArrow=none;startFill=0;strokeColor=#6B6B6B;" edge="1" parent="1" source="3uHl7x6qHm_plDaVCpx7-39" target="3uHl7x6qHm_plDaVCpx7-30">
          <mxGeometry relative="1" as="geometry" />
        </mxCell>
        <mxCell id="3uHl7x6qHm_plDaVCpx7-39" value="" style="shape=cube;whiteSpace=wrap;html=1;boundedLbl=1;backgroundOutline=1;darkOpacity=0.05;darkOpacity2=0.1;flipV=0;flipH=1;size=10;fillColor=#e1d5e7;strokeColor=#9673a6;" vertex="1" parent="1">
          <mxGeometry x="435" y="290" width="80" height="30" as="geometry" />
        </mxCell>
        <mxCell id="3uHl7x6qHm_plDaVCpx7-40" style="edgeStyle=orthogonalEdgeStyle;rounded=0;orthogonalLoop=1;jettySize=auto;html=1;exitX=0;exitY=0;exitDx=0;exitDy=10;exitPerimeter=0;entryX=0.5;entryY=1;entryDx=0;entryDy=0;endArrow=none;startFill=0;curved=1;strokeColor=#6B6B6B;" edge="1" parent="1" source="3uHl7x6qHm_plDaVCpx7-41" target="3uHl7x6qHm_plDaVCpx7-30">
          <mxGeometry relative="1" as="geometry" />
        </mxCell>
        <mxCell id="3uHl7x6qHm_plDaVCpx7-41" value="" style="shape=cube;whiteSpace=wrap;html=1;boundedLbl=1;backgroundOutline=1;darkOpacity=0.05;darkOpacity2=0.1;flipV=0;flipH=1;size=10;fillColor=#e1d5e7;strokeColor=#9673a6;" vertex="1" parent="1">
          <mxGeometry x="435" y="327" width="80" height="30" as="geometry" />
        </mxCell>
        <mxCell id="3uHl7x6qHm_plDaVCpx7-42" style="edgeStyle=orthogonalEdgeStyle;rounded=0;orthogonalLoop=1;jettySize=auto;html=1;exitX=0;exitY=0;exitDx=0;exitDy=10;exitPerimeter=0;entryX=0.5;entryY=1;entryDx=0;entryDy=0;curved=1;endArrow=none;startFill=0;strokeColor=#6B6B6B;" edge="1" parent="1" source="3uHl7x6qHm_plDaVCpx7-43" target="3uHl7x6qHm_plDaVCpx7-30">
          <mxGeometry relative="1" as="geometry" />
        </mxCell>
        <mxCell id="3uHl7x6qHm_plDaVCpx7-43" value="" style="shape=cube;whiteSpace=wrap;html=1;boundedLbl=1;backgroundOutline=1;darkOpacity=0.05;darkOpacity2=0.1;flipV=0;flipH=1;size=10;fillColor=#e1d5e7;strokeColor=#9673a6;" vertex="1" parent="1">
          <mxGeometry x="435" y="369" width="80" height="30" as="geometry" />
        </mxCell>
        <mxCell id="3uHl7x6qHm_plDaVCpx7-44" style="edgeStyle=orthogonalEdgeStyle;rounded=0;orthogonalLoop=1;jettySize=auto;html=1;exitX=0.5;exitY=0;exitDx=0;exitDy=0;entryX=0;entryY=0;entryDx=80;entryDy=20;entryPerimeter=0;endArrow=none;startFill=0;curved=1;strokeColor=#6B6B6B;" edge="1" parent="1" target="3uHl7x6qHm_plDaVCpx7-32">
          <mxGeometry relative="1" as="geometry">
            <mxPoint x="306" y="324" as="sourcePoint" />
          </mxGeometry>
        </mxCell>
        <mxCell id="3uHl7x6qHm_plDaVCpx7-45" style="edgeStyle=orthogonalEdgeStyle;rounded=0;orthogonalLoop=1;jettySize=auto;html=1;exitX=0.5;exitY=0;exitDx=0;exitDy=0;entryX=0;entryY=0;entryDx=80;entryDy=20;entryPerimeter=0;endArrow=none;startFill=0;curved=1;strokeColor=#6B6B6B;" edge="1" parent="1" target="3uHl7x6qHm_plDaVCpx7-33">
          <mxGeometry relative="1" as="geometry">
            <mxPoint x="306" y="324" as="sourcePoint" />
          </mxGeometry>
        </mxCell>
        <mxCell id="3uHl7x6qHm_plDaVCpx7-46" style="edgeStyle=orthogonalEdgeStyle;rounded=0;orthogonalLoop=1;jettySize=auto;html=1;exitX=0.5;exitY=0;exitDx=0;exitDy=0;entryX=0;entryY=0;entryDx=80;entryDy=20;entryPerimeter=0;curved=1;endArrow=none;startFill=0;strokeColor=#6B6B6B;" edge="1" parent="1" target="3uHl7x6qHm_plDaVCpx7-34">
          <mxGeometry relative="1" as="geometry">
            <mxPoint x="306" y="324" as="sourcePoint" />
          </mxGeometry>
        </mxCell>
        <mxCell id="3uHl7x6qHm_plDaVCpx7-47" style="edgeStyle=orthogonalEdgeStyle;rounded=0;orthogonalLoop=1;jettySize=auto;html=1;exitX=0.5;exitY=0;exitDx=0;exitDy=0;entryX=0;entryY=0;entryDx=80;entryDy=20;entryPerimeter=0;curved=1;endArrow=none;startFill=0;strokeColor=#6B6B6B;" edge="1" parent="1" target="3uHl7x6qHm_plDaVCpx7-35">
          <mxGeometry relative="1" as="geometry">
            <mxPoint x="306" y="324" as="sourcePoint" />
          </mxGeometry>
        </mxCell>
        <mxCell id="3uHl7x6qHm_plDaVCpx7-48" value="" style="rounded=0;whiteSpace=wrap;html=1;rotation=90;fillColor=#dae8fc;strokeColor=#6c8ebf;" vertex="1" parent="1">
          <mxGeometry x="704" y="261" width="30" height="30" as="geometry" />
        </mxCell>
        <mxCell id="3uHl7x6qHm_plDaVCpx7-49" value="" style="rounded=0;whiteSpace=wrap;html=1;rotation=90;fillColor=#d5e8d4;strokeColor=#82b366;" vertex="1" parent="1">
          <mxGeometry x="704" y="291" width="30" height="30" as="geometry" />
        </mxCell>
        <mxCell id="3uHl7x6qHm_plDaVCpx7-50" style="rounded=0;orthogonalLoop=1;jettySize=auto;html=1;exitX=0.5;exitY=0;exitDx=0;exitDy=0;strokeColor=#6B6B6B;" edge="1" parent="1" source="3uHl7x6qHm_plDaVCpx7-51">
          <mxGeometry relative="1" as="geometry">
            <mxPoint x="792" y="334" as="targetPoint" />
          </mxGeometry>
        </mxCell>
        <mxCell id="3uHl7x6qHm_plDaVCpx7-51" value="" style="rounded=0;whiteSpace=wrap;html=1;rotation=90;fillColor=#f8cecc;strokeColor=#b85450;" vertex="1" parent="1">
          <mxGeometry x="704" y="319" width="30" height="30" as="geometry" />
        </mxCell>
        <mxCell id="3uHl7x6qHm_plDaVCpx7-52" value="" style="rounded=0;whiteSpace=wrap;html=1;rotation=90;fillColor=#fff2cc;strokeColor=#d6b656;" vertex="1" parent="1">
          <mxGeometry x="704" y="349" width="30" height="30" as="geometry" />
        </mxCell>
        <mxCell id="3uHl7x6qHm_plDaVCpx7-53" value="关系分数" style="text;html=1;align=center;verticalAlign=middle;resizable=0;points=[];autosize=1;strokeColor=none;fillColor=none;fontFamily=SimSun;fontSize=19;" vertex="1" parent="1">
          <mxGeometry x="668" y="227" width="100" height="40" as="geometry" />
        </mxCell>
        <mxCell id="3uHl7x6qHm_plDaVCpx7-54" value="" style="rounded=0;whiteSpace=wrap;html=1;rotation=90;" vertex="1" parent="1">
          <mxGeometry x="793" y="262" width="30" height="30" as="geometry" />
        </mxCell>
        <mxCell id="3uHl7x6qHm_plDaVCpx7-55" value="" style="rounded=0;whiteSpace=wrap;html=1;rotation=90;" vertex="1" parent="1">
          <mxGeometry x="793" y="292" width="30" height="30" as="geometry" />
        </mxCell>
        <mxCell id="3uHl7x6qHm_plDaVCpx7-56" value="" style="rounded=0;whiteSpace=wrap;html=1;rotation=90;fillColor=#008a00;strokeColor=#005700;fontColor=#ffffff;" vertex="1" parent="1">
          <mxGeometry x="793" y="320" width="30" height="30" as="geometry" />
        </mxCell>
        <mxCell id="3uHl7x6qHm_plDaVCpx7-57" value="" style="rounded=0;whiteSpace=wrap;html=1;rotation=90;" vertex="1" parent="1">
          <mxGeometry x="793" y="350" width="30" height="30" as="geometry" />
        </mxCell>
        <mxCell id="3uHl7x6qHm_plDaVCpx7-58" value="独热编码" style="text;html=1;align=center;verticalAlign=middle;resizable=0;points=[];autosize=1;strokeColor=none;fillColor=none;fontFamily=SimSun;fontSize=19;" vertex="1" parent="1">
          <mxGeometry x="758" y="226" width="100" height="40" as="geometry" />
        </mxCell>
        <mxCell id="3uHl7x6qHm_plDaVCpx7-59" value="" style="strokeWidth=2;html=1;shape=mxgraph.flowchart.annotation_1;align=left;pointerEvents=1;rotation=90;strokeColor=#6B6B6B;" vertex="1" parent="1">
          <mxGeometry x="91.25" y="113.81" width="7.5" height="196" as="geometry" />
        </mxCell>
        <mxCell id="3uHl7x6qHm_plDaVCpx7-60" value="" style="strokeWidth=2;html=1;shape=mxgraph.flowchart.annotation_1;align=left;pointerEvents=1;rotation=90;strokeColor=#6B6B6B;" vertex="1" parent="1">
          <mxGeometry x="498" y="41.81" width="7.5" height="340" as="geometry" />
        </mxCell>
        <mxCell id="3uHl7x6qHm_plDaVCpx7-62" value="关系模块" style="text;html=1;align=center;verticalAlign=middle;whiteSpace=wrap;rounded=0;fontFamily=SimSun;fontSize=19;" vertex="1" parent="1">
          <mxGeometry x="448" y="180" width="117.5" height="30" as="geometry" />
        </mxCell>
        <mxCell id="3uHl7x6qHm_plDaVCpx7-64" value="" style="shape=image;verticalLabelPosition=bottom;labelBackgroundColor=default;verticalAlign=top;aspect=fixed;imageAspect=0;image=data:image/png,iVBORw0KGgoAAAANSUhEUgAAAOkAAADoCAIAAACFCVQRAAAgAElEQVR4AbS915dc13X1i85dVR0qduWcc1fnnCM6ACAyCEBIBAGCASRAAhRzghgNMYEmREmgmACRFIMCTUsmJZGULNtDD/aLLfvBHvaDx/0r7qj1Qy0fNf3Z/nzHXQ/NZqPCOXvPPddcYe+zadP/yurq6urr6xsbG5tr1tjYWC9WV1f3v/rIP3pTXV1dU1NTe3t7R0eHzWbr7OxsbW1tbm7+n3x4nVh7e3s6nZ6cnFxaWlpbW1taWurt7Q2FQl1dXa2trQ0NDXq1vP6Pvv7/8n/q6uoaxOrr6zdcIQP19b8bv6G+vr61tbWzs9NutzscDpvN1tHRYbfbXS6Xx+Px+/1er9fpdNrt9tbW1g2fv2nTJq5/w13U1dU1irW2tppMpubm5oaGhq+/13gZ/7/+Xl9f39TU1CpmsVg6OztdLpfb7fZ4PG632+l0doqZzebGxsb/yZU0NTVV75z7b2xsbBFrbm5uampianWCN3wcQ9PS0sLVtLS0GLFrHE39nA1/1MlmXvnXhoYG1kNbW5vL5QqKRSIRMOd0Otvb2/nG1tbWlpaW5uZm/V4+UKfHZDL5fL5CodDb2zs0NNTX15dKpQCBxWIx1cxisbS1tVksFrPZ3NLSUl9fz50q5vhYLqypqam2VKv/bW1tNZvN7e3t4Mzlcjmdzo6OjpaWFl0bjY2NXPB/gZ6GhgaLxeJwOACrR8zn8/n9/kAgEAqFgsGgz+fzeDwOh6Ojo8NSs7a2tvaaWSwWZkExypA2NTWZTCZusLW1leHin+rr6/Xu+KWxsZF71Fvr6Ohob29nxIBHU1MTX8EQ8fnt7e1Wq9XhcDidTqvV2tnZCQpZ1Y2NjWazmRc4HI6uri6fzxcMBsPhcCgU8vv9XV1ddjGr1drW1mYymZhcnY4N8Nu0aZPJZNrEDZvNZl33dru9o6PDLGYymfQXXqm3ZwQuGNKBUD5uaWmpgcTEFDKOHWLt7e1tbW36+fxTe3s7izIUCqXF8vl8JpOJRqOhUAjwOcTsdrvNZmNkgSC/80UWi8XlckWj0VQqlcvlUqlUMBjs6upyOBydnZ3GWWd6uBIQBlJbWlrMZnObwfADHR0dnZ2dVqvV6XS63e5AIBCLxVJiiUQiEAjY7Xaz2QzbtbS0cG26QhgQhTIepq2tjUn1er3gNSIWjUZjsViyZolEovZrMpVKJZPJRCIRi8UikUggEHC5XFartaOjw2QywT5Ap7m5mS/FdylMYSvjFMOINputq6srGAxGIpFoNAp3BAIBn8/n9Xr5Fh0Vu93u9Xp5cTwej8VioVCIi2lra2tubgYnnZ2dXV1d3poFAgGIKRAI8JnMqXFmwbHSIgzLxdfV1XV0dFTxi3e22+1Op9PlcunsMsGQeUdHBwtCCa+pqamxsZHPgjuh2IaGhqamJq7YZDLpTUIWRpbiu2w2GyMOMoCFw+Hw+/3xeDyRSGSz2XQ6zQz5/X68jNvt7urqcjqdvJ01DfPZxVwuVyAQSCQSLIBoNKqeF+oC4kYe5Xagk4aGBrCrt89K43ba29ttNpvb7fb7/dFoNJPJFMXy+XwsFnO73RBVoxgL2GKxsGJZKmazmQXPOrdYLFar1agTwuFwNBrl9svlcq9YX1/fwMDAYM0GBgZ6enq6u7uLxWI6nQ6Hwx6Pp6ury2q1Mq0bnBLeQD2t0Y8zGmaz2WazMfgMXSaTSafTuk4SiUQ0GvX5fAy1w+HweDyhUCgWi/H6ZDKpfrK9vR2qbm1t7ejoAF1OpxN6doo5RCNZa2az2ewinAAx/M1A4SuYo/r6eqvVuhG76CqYCeziAjo7O9vb281ms065YledvmIXf8qC5kMUwR0dHRCMgg/67OzsZGrBisPh8Pl8sVgsHo9nMplUKmXErkfM7Xa7XC7ebrPZnE5nl5hLzOPxhMPhdDqdFYvFYow4XsVisbAIm8SQSV/HLjzEJSl2LRbLBuxms9mSWD6fj8fjRuw2NDQwGryLe2QkW1pa+Ha4GezC5T6fLxQKRaPRZDKZz+d7enqA7JDYsNjQ0NDg4GBfX1+lUimVSplMJhKJIC1sNpvFYuGmIBf9qZOlHl/9Jzrh69hl/IFvMpmMxWKBQIChdjqdXq83HA7/t9jt7OwUrFaBC7nozxpuq//9v8MunKzOQlmQUVaNwvoAwZCK0eshR8AukhxH2dHRwZUBTWSJ1+sNhUJhMXhUGZSXIeFsNpvX6/X5fPjNSCQSDocDgYBfVCC/QDMul6urq8vv90cikUQikRErl8v9/f1Mc19fXzabDYVCHo8Hl2c2m8FN3R+bSkB0altbm61msLXJVBU/SCy+NBaL5fP5slipVEJVo0DQhRsUCO4FeWMWa2trY5zhJBxgIBCIx+P5fH5oaGh2dnapZvPz8zNik5OT4+Pjw8PDILhUKmWz2Xg8Ho1G/X4/sUFbW5uuEO5XGQc0w/qwI9KCJYTTS6fTyruZTAYWyGQy8XgcqYq8iUajeEiQjUDv6uqCNUEC5GK3261WK/iB2lTsKXOxeOBdXoz2xWkov1Q1A+PLdevHKd8YCZwVo/BlUBiCejFcZHNzMxEMwGV52SRXgEbEz4JIJCwQRKto2ISjQScpXtFJ4B6ZD3+73e5gMJhKpbq7u0dGRkZHR+fn59fW1tbX19fW1ubm5np7exOJBEtFaQlnBLZUxzfXzGQyoXCgdmIAxrGlpaWtrc3pdOIx0+l0XiyXy8XjcY/HAzTVZWtOBtyjH1BHkI06DRS50+kMBoPJZLJYLI6NjS0sLGwWW15enpubm5ycnJiYGBsbGxoa6u/v7+3t7enpKZfL+XwegQQ1shKYr1pEVw0w1OdwL0hSfm9tbSXe6OrqCgQC4XA4UjMETCKRgIDjIm1r/1j9LxMaDof9fj8uDh6EblF6pFCIZRlwDSrArsYSVjFVdxvAtmnTpra2tk31ElkzuPpxJpOJT+HrcZp8HNSI9tWbr033dWHe1tYGcFlD6BBA7HK5/H4/4OM+uSuXy0XghSxh1hlWpJLH44GGCQsYtUAgQIaFj02lUv39/TMzM3NzczfccMONN964f//+ffv2bdmyZXR0NJ1O+3w++IAVAu2ZzWaLWJuYsgIIs9UM7CKZWltboWTgGw6HIZ5EIhEOh91uN6NEbARVwOianTAubIdkGNxi3GYgECDKLBQK/f39o6OjExMT42IjIyODg4MDAwO9vb3d3d2lUkmUdrFQKOTz+Ww2m8lkkskk2pfBcUj4rwoVHjHGjjoOSjo2mw1vxlV1dXW53W6fpD5QCHGxaDQaDoeDNQtJlOb1ej0eDysH1xQIBIgmEWzNkuuskyxeU1MTATGriynQ35kL1J1KIBBrsViuY3fTpuovjC9On3VgtVqhEOQaINZow2QwnVTiM0hFscudoHT9fn9ILBAI4MQBN3El2MUbwIikVxhKj8eDFgT9fr+fgI+gIZlM9vf3z83NLSws7Ny58+DBg4cOHTp48OD27dsnJyfT6TRjikMHr9BMDZ/Xo0bmlRWo/0QMwDQrrPHvBNrclGZ8WIomya02SV4JB41zM34vq5pQxuPxBIPBeDyeTqdzuVyxWOzp6emvGeq2XC6XSqVCoQBSs9lsrma4eJYQGOrq6tqAQoIEwhhQwlzzkylGOeBwrGI6lZpViEoKIhgMQrT+mkFG0K3X642IcUnkcZubmzVp0CQpvLaaMSkMMgMFxBS+DQ0NG7FbJ7UGBIARu3gcPqutrY0b05yfcb2aJStknBi8IaTCondJsh2RxBp1u90oGwiedUKMzMU0NjaaTKbOzk7Io6ury+PxoByCkvVkJsBuIpHo6+uDd7dv375///6DBw8eOHBg+/btExMT6XSar+NSGabOzk6bIbaFk9TD8q/AV5MhCFbuzi5BMQnLgJjP51O26+zsVAeNa1LNAHYVKPppbrc7FAqlUql8Pl8qlbq7u/v7+weFaJVrlWJTYsSjObFMppoWiMfjwWBQHRrYhTs1xmLAjT6av4BUroe/cJE6UNwsEQuyzSe5M1/NFLsOhwPsojcikYhLsngtLS0bsMtcbHCGYElxDHxBxaZNm/6Dd0lsNdUMn8gkKW+rCFbsqtAmBucKgLgRuJ6au4dxY2LRaJRwdcOQMVJokmbJDqI7dZpxZ8aSDNhyuVyRSKRUKqF3l5aWtm3btnPnzh07dqytrY2OjqZSqa6uLpvNZpJ4i4vXBIVbTDkJWlJIqdtl7t2SoWNBKmtySThWv5jb7YZ928Q0cmUZQP8spNbWVq7H4XCEw2HNLQwNDY2Pj0+Iuh0dHe3v7ycc1FRUJBIhAZwV9k2lUkq6MC4eDxZ0SSmLi+cvyqaKb/07FwkZ6/zii2AKrxhIZYr5C9/LsHg8HnRwKpUiA6PVwTopRsK7ClDwylCQoVIeARJNkpn9I+wSqwHtJqke6afwuUYvqUOvn77B6eiIkI5G9RONZjKZfD6fy+Wy2Ww0GvV4PHaJPXFSOrhutxttZLx0VhGajNdr9oMMhs/nSyQS+Xy+UCj09fWNjY1NT0/PzMxMTk729vbGYjHqN6xvLp4AHzrXrAWugNGHWdVj4AEjtaSHkWUhNqQq6zMYDMI0kBajQWqvs7MT98JkkNYgvRoMBrPZLOXAsbGxubm5xcXF+fn52dnZsbGxnp4eAIo4oWgciUSI0jTPQOpGpRp3xF14vV6uQeUWC9IjxoLE/6iKgK1w3xrC4lG5a0IRnxT/+FgUv8vlCkuiOp1OJ5NJ4o22tjbumjoA8QYfrpOrEGItMdFUVZtFLld5t05qwvgyk9TiiC2axAgDIWCHwwE5URHAvxsZBf5THgKIwWCQPCWo7e7uJsgol8upVIpsDl4bXR8KhcAHZTDibmUvpUx8rnEVkTlGEPt8PjCk+V0qXswow6oTs4F6mUheSWrFLq0Ffr8/FotlJFWUF0un04lEgqyqkm44HE7Uql/GggipULDucrna29ubpcegQQz6sVgsNpvN5/Mlk8lKpTI0NDQ5Obl58+YtW7asr6+vrq7Ozs4ODg4SjXk8Hvy70TWrElPUIqOhVYCOPIV9wTT4cImhcSlFGRUFCS8dfzwSH4ur0awl0QtU7XQ6URdgNxgMer1eXJ+WbEAXVEL7CtfMkLKiPFJzoWBJU4fZbP4j7LZKvwtxUr0YY4qzc7lcOAVUI/kLdALlbCiK+ebrSSHF4/FsNlsoFEqlEpWhnp6eSqWSTqcDgQC3ysIA6HEpp5Gn9Pv9yEcAh4fFcxEOkucnVoWMWUIg0islVuKJDXGhUcapmGZx4gfhDz5Nq3SFQqFYLFYqld7e3rKkpVKpVCgUQuyRY04mqwVb6ilEk6TAGD0+Fu4BuA1Sv9CSh8fjicfjlUplZGRkenp6bW1tu9i2bdsWFxeHh4ez2Wwymezq6sIpUUL3+/0EAJRYYRB1Grq0gmJ+6e9hYHXWmDjEEtGqYhffyFwTi0M3EDlfzbKh6cJms/EJDocjKH0LKalgc4V2ux0XqgkAvpQJhSnwhIwYa4O8G2+sq6u7jt26urpW6TYii1ZfX18nVi+dYrQ4UQINiH090wR21dWq2KUsTmGzWCyWy+Wenh5mvVQqJRIJr9fLQrfb7eRoY1JdxC2GxOAqozzAofBGxS6qhuASKYnyZpR1LvUXDUpAPBkDFQ/MK67TKEhKEj8NDg6Sq+rt7S0UCuRT/VI0IYWUEGP5qYOGy/EVKhi0lKMz19XVFYvFent7JyYmFhYWtm/fvnfv3j179uzatWtlZWVsbEyxq+LHarXi5YzcyQ0CBfQo8UZYslrAF+JgfXJh8CVCEUZURmCpQBwg3u12ww7MFIkjZgqHDHZDoVAikYjH4wHpXiC/jqiFaHVS+FiIDzWCI/WLsVzNZvMfYZfCICqkoWaN0lVkMpm4ekpcUUnp+f1+JXCTtCkh6ZhsFRJ2u53SbiaTyeVyebFsNsud8CFoKWqG8FY0Wq3jJ6R0TgsONQXch1Fa0VelX8dsMfr4EJQPPxFqDBbjuyGOpnSCZtB8Mx/e2dkJHXaL5hkfH5+bm5uenh4fH+/v789msxHphsEdayKFMFxZ3G63t7W1GYMKpB7fq5GfzWYLhUIDAwMLCwvbtm07dOjQsWPHjhw58o1vfGP79u0zMzOFQoGciUV6xzY4X7QQODOKPQVZWCwgvTUEALwFSmsVa5YoWTOvCm7jemC1IM+UzglUSHe2tbUBADL6wWAQRqBbiA9H6bHkVH9Dghs0OhQGN9XX11+vTdTV1YHdZjHGgpUHLuGkgFQpgV0oFHK5XMwEnI1egQWpMVLggHqjNaOu6xazWq0aZZPqZx2rD2KUcUay8Ko9gfpHghWGFXYB1jgaUgoQcLO0SlLw0+o307AhawvF4iIJbIkhOjo6oMNSqVSpVEZHR2dnZ4kCh4aGisUiFOv1eo1xj9dbzdKj1UhtQreNYq3SoULhEMmhXVrhcHh0dHTLli379+8/JXbTTTcdOXJk586d8/PzlUqlUCgEAgFta4Z0CLhZDzqwZrNZ8aF6lzXG1VLrYuJYV1pyMjZUaZJkQxSl7MhtwiZ8GkMNiSKv7XY7eUPj2kDdobmNqFV+0SQPY9je3t7U1NTZ2Xm9JgxeidhwCshBFA9yLRgMko6Jx+ORSMTj8aDfGSZ+MjcN0oZLiwn5FG6MhcUNcA86TJCi3oauadU6IBJYB4NBaIN1jJgjpZ+RPAYZ0GQySZpTBRbzyk0p2WjFX6vZhKEwN9jt7Ox0u93hcBgHUqlUBgcHh8T6+/uLxWIsFsM5MOLq+3RKtLNUb5kCbEdHB2Ja3a7P58vlcsvLy/v37z9x4sSdd955yy23HDhwYO/evSsrK5OTk1SAo9Gow+EwS9txU632AdqYCxiEmUXUATugQDDHXEDSOoNQr14nOEPmaojMytdMohIBqKXABJwYZ16g+Qo8IVerYg/XjYbGWdEmwCforNGe5nA4NjU2NsK7TBIfpFfGL0bswrtE0LRKbLjnRtlA0SDxh9lsttvtUBGhAEtCBwumb5Y+blpS7GLkX4SzrpeC+R0PRUirMTt0Gw6HSel3d3dXxFCi5Ct0TLlBBrG9vZ26V4OY1njwnkweuUKr1apVAzoeKXdRLygWi/F4HAUJZ6s3AMQavFtq/WtMG+PgdDqpmkYi1S77UChULpfX19cPHz586tSpM2fOnDx5cu/evTt37lxcXCRNVi6XY7GY0+n8T7HLVGqHDdl6iJMLIwZAMulQoJ55L/mEZtmFAM7IQCvOFE/IEv6XNc8nsABAvLKhEbuNjY0bVgXdeWQSfYZee2QbH0ICpKWlxel0VnvP6VVlkjS+0ZVEBtTpdFKMjYlRWdDkJa4Zj9MgVTtCEBQPSu7rKUMVf6gOHRfwTQ0CAsbjsAbQG7gqGBc5QY6zXC4PDQ0NDw+Pj4+PjIx0d3fncjkqOkglHWsCYRJVdWINDQ3MEKuR0SekYAX6fL6wWFxqtmROyuVyoVAgB0foyfXrTwUHcwBEdGqpGnq9Xi0x9PT0LC8v33TTTXffffd999137733Hj9+fH19ffPmzcPDw93d3XlJkEejUZfLxWIAZFAAg2mSdCcuhUQnN6I4ICrQSyKHoP/K4OB5GqVLu1G21SiCeb0KS0W8kr2ykpFcGQpdb01SSQDBXDb+jajX5/OxD4XpMJurW1QU/W63exOJRkWP1iq5NwS1JvOYvGi02swPfOF2HCKLFe3FTZK+IRkO77LiHWLawMAQGAeXq4S0FKwbtLwWPvw1i0ajhUJheHh4ZGRkTmxsbGxgYKBQKGiZADenNIzbqZOSOPVnBTdcQvivyQrUG7k/8id5KYUkk0kiM9VkTL96T0YY8mBsQQZCxeVyUVUZGhraunXr7bff/vTTT1+6dOmVV155+umnT506tby8PDMzQ1BYZWbZKuNwONRFABEwxGQr7yp2jWvSyI4sJMBhFdOYW/1SXa11BhHCXMNWRno2wpEwg4hfBZIRvng2XRtNTU105+FIPR4PGQlFP6IC2Hi93k02m01XKvk2hTZrV8Nzu91Op0hE6pAKX5q50JRMFW+hCQG2Ji+jfRseMfY26SJBjCoBaLey1+vV2AKBi2IjpxYOh70SEiFsotFod3d3T0/P+Pj47Ozs5OTk6OhopVIhH8f6gYBZMIwvI05w6ZSdPFwhlRHdSMIV4kz8fn8ikcjlcmR80+l0JBJhhRD/KapYzPAWTZVcv0YLHR0dbK3r7+9fWFg4duzY448//r3vfe/q1avvvPPOK6+8cubMmZWVlZmZmUQi4ZJ2e5TVBs2G5+S+NM1CAGdcMyAY8Cl68JNcHuuTL+JemmT/YoOEMUqTIJ4BRHTxAtYMsAaXOHbQhUwiDuY1iHXeC8RZP5Qe4W8StUyxy+Xq7Oz0+XybrFYruFZOhpnUtTGjZBAViOI5rze/BSRpB72jeBAexP5kJ9LSxZyp7YAISrBFud+oNxh9CNhqtSIMKFhoGdYt2yVIxMJAKAqKF2QDEolEpVIZHh4eHR0dHh7u7e3NZDLUQSjRcXc6iyRJ8BJG3xIKhfhwLSUwc1arNRAIpNPpQqFQFstJ5y4hLJl5pgevzRS2trba7XaSrDHZ18UK8fl86XSa3MWOHTtOnTr1yCOPvPTSS6+JXbx48fbbb9+8efPMzEwsFiM5gz9Ujw9edfFDlo1iYFfdKaOkb1RaJT5h2xxFKMIJaqgmk0nRyTpXbQDy6mrG52jor7hkbRhdq8prY1CotA2X86W4JqpXBP3/G+xqcjssOzyDYv9D7GbF0rUuJ9iaaUYA6RLagN2Q7H6JSsedtk1uwK7L5cLFs78yFot1d3cPDQ2NjIz8t9g1Llr6gHEs7A4wYrdeNmo3Nzf/n7BLh4axgr0Buw6HgzQfH+6TDqxAIJDNZsfGxubn53fu3Hnq1KmHH374hRdeuCz23HPPGbGrtVnFga7D/xa7sBJ+VSUNiv/r2CVtQp7biF2NsYAvlFyDbnWvv0Zgra2t/wvsEhrirOrr6/lAs9lsTFhdx67FYuFqmEJNcHKHeHByKxASsTClWgIpj7SJscUPF2P8KA3Pc1KbIK8O9FXQtMrea65SEytsQPX5fOzkSYpppQrsIurR3CAG7uzq6opGo7lcrlKp9MhuxGw2GwgEHA4H+xA15sBFkNZwS3u1fl0qlSLII5yvlyZ9iMFqtQaDQeVd4qeUtErRocHowevqQzs6OoBpsVjs7+/v6+sriXV3d4+Nja2uru7YsePgwYPHjx+/9dZbz5w5c07s9OnT+/btm5qaGh4eDofDzFeDbGgl+64gVjh+HTRoBmpMCCeSDHS3AJfm5mYaKkBJQLZXkXI2dl8YsYtgqJdCrLY1KnbRnNB/k2y/VdGFcjD+5OJBQp302PCBmrh0yi4VapPt7e3VWK2pqQkZznRqjU5HX/eOspkbVadbAzScohYAK+hskRjnpIWYFHvT0k8UEfP5fEQbRuwyHypRqLTx3oRU2iBsl5jmU3BwZCshYLpAUqlUttYc6PP5kPlMFX6WvL2xJhKV3Vdx2dPi9/uZY44jQbfh+n0+H9mGnHSI52QbfSKRICUHwzEfrP/29nYCMhrEZmdn52Xn2bR0uq2srOzZs+fAgQOHDx8+dOjQnj17dkr35vbt29fX16emplgebrdbjxfRrIgKHvJHZB5UaGqoBKHY7XZN3aBojecZaKpHZYNXqi0UQUChYre1tXpEBswKfOuliQDsAlMNVVERXKq2DDhqRiYK2algIHTWOiivIQVpMpmq+V3oBG/IF7CO0fJcB5ltdoTSCuR0OpkYlrIyn95kvZjSAxChUwzgamRDT48mUyFCFplPLBAIIE6CopI9nup+Se5Bw0G/dKLQWsWFsVMIBx2TrAjFFHiLcUHKQzNkjvkKLXxoAMpq1LCV/J1XGn3g6YTU63ELLGNtD2At2Ww2v9+fyWQGBgZGR0cXFhZWV1dXara+vr5r1669e/feeOON9C1MTU2Njo4ODVVPRaH3IxqN4gHwp6ogSYywxrh3pUNmoc7QKauantwMg2kTQwrDhUyrUwxGMDZgkLgAnShm6ABYa0ZFwzLktW4gcMvZAAExLoMgXgulOmL0uZM4J2ImoGpsbKzucQe7gAyHqFKDO29oaIALmWO9W4aJ5JERu2gjI+2zMBAD7P4lxgrVzgrR+In8OX05aEGvNJviKRhKCleaK6DTgL3HqAI8BiPlMewRovuOqgwTj6shKOSVGqCQ9eMUBUJdgE6Ab5Njl7QOxMrRpUX+RNPJZNlcLlcoFMpkMj091Q3r09PTS0tLm8WWl5eXlpaWl5c3b968srKyvLw8NTXV399flsxxTnqdE3KGiNfrxXVooEPwzs1q8GDUoGzhJgnY0tLS3t7udDqJW0Jy4g7IYJyJzFh1AA6mJJ5mAQNc/g7TQ3OEKwBXRWNnzejZ0NUej8eTcjBKXDY2I0RJ/IElj+yOicgWzrDs37QbukHq6+vb29uvYxfP8p9it15Oy6JC5hbjDv8L7JI0NY4aGSLaejyyJQv4kn8GKEZNhvT0SvJLW2nxMMq4DGhHRweCOyQb/fA71A+VUEPSE+zz+aAQ8kekeCxyqAcJDa8YeTG73a5VN0iFIoJiF7YzTgkCkSZApgzi2YDdSqXS398/OTm5sLCwLLa0tLQgtri4yO8TExPQbaFQyIklk8l4PM7yA1WI6f/v2MXJUMfCobEykToqpjWeBrvcGjShwoAhJVnE+NSg28lA+eQoJzxVSrZ4GLEL+5J7UZRHpfeLuUMO0Xt+HbugE2VNbgLGVd5FOaA8bDab5lnQEtSc6Ehi6atkURWvQt5kMhGEcXEMnLHl1OFwaEUbUQvTMFXGJBoJVLLZ7MlGz2j5jV2BodqpLTh0VQ4mMbNUa/AepF3VCWw4VsxisSAWCb11Ljmrwel0crWEgyStmXj8r9vtjkQiVK2LxSLbOqampqanp+Na9xIAACAASURBVCcmJoaGhogpy+VypVIpl8vZbDaVSqUlDdctJ9/k8/lIJLIhJga71D7J5G/we4w83hzXoVu1YbVYrHqACxgiWU4wg5YlxsLxmmumGTcYWp0AChjqBfpK3miVoJwTxSDkcrm0NO9Dq16D+f3Xm66icpAXWkIdZqMctlftI0MtcDUsI2POpXa11f+yklhw+hqlHybe6awefKJoI+A1xg24LY3wvN7q6SGajnHWDBxAcly0Bgq4ew0FCI2pmwTk5LmIWFQsHo8n5EiBtBxMFK91EUGrVNeYfuUJFBXyTpVPY2OjxWJx1soWdrvdZDKxthvltDxkutIt48YsIoS6urpYRclkEkT29PQMifX399N6gesIyyYZ7iKRSBSLxd7e3oocfoPkZWEYeVexy8U3Nzc3NDSQt6qvr9dQXUUO/McX4b5TYolEAsdttVr5EMIv3b+odIskBTBG1sN1Q3bEMCgNIn6+l3pkJpNJSPBNyG4VoxnLLab5K9yyHkyGyq1il4UFd4IY8AN74a9tYrrfnVHTRYaQpVsFNqU5HWGq2yuYTthOCUnRgMrRWJLIAyhwPFFDzcAKn8YSQnuR9o/FYuma4WdjNatyixgH5NjFmGw+zfiZKF16M9Dr5GX8Yi6Xy2w2M4j8K8yE7KEqgTKhmY56FRoOxKRSqUKh0C1WLpfZQuKRYw2MxyTGYrFcLlcqlWApv99PtalVTHu7wC4DzjQRQtHh0N7ejjdjfskzwBpB2dQQlSK/plZQ1WAFaiNfxHSAV6NuaZIuNsZKAycIi+XNEGljFtuxotEo2yg4wkengDFEaBEzaOZEqeT62SIsEaShVwwi1NAeIOIoyaeoNieqwx91dHRQvNUigsp/UKKBMMsU2USQoQh2yUl+6C2WONiCv5vEKBRxq1wJQqKzs9Pr9bK/SOMb2oV9tRJAuGZsxaGXCO2haIDR+SPcQ2rMarUiQsiCWSwWuO3r2EUog13Qg9eCIHyyl45z1gpi+Xyedk0SUoTh4XD1TJqoHEmmRwmyccB41+r3VLQwhiTaWdWq+zXwZSuvMUcekGSO5h9pD4c4iWgBk9VqVTwxREqHhING7G5QjLQraKLDJ51iSCDQCRuS7DLOAiPJaBNEXd8n3Cy2Abs435AYZQjyPjhZI3YbxDhJEuxCc7geBkvpnMbkDZRA4YNxZNxhDsYd/6hwZ6Xhi6FwzSW3t7d7PJ5YLJYVy2QybMUBECTdEFLEBMwfLQHckQo1JRUmBpXCLkiWdFdXF7k2zWhSpFXphWvSuedfWaiEoVE5XJVLzcr+M42yKbxHxWKSFE/IcTvGZgmuEOCiSWBWvKVLcojQJJlybhxtxo2DdYbdVzMCD+3e0vWMIsL9gl0idealUbpeoViIjKgJJtaQvVFO4cUFueXUaLw6UwBwQSPfa6Qn4wqBfS0WS7V/l2wZ+XlciV/SpcFgkDQKEEQjstq46CZp0aiXwp3FYmFW0E+xWIz+m4CYpmOcTqfFYoFBm+RMFObbKac46qCrGDAimMSC4gxk4Jsa5QgSp9NJF29KdvaxuYPYC5+ugs8tTREks1j0pHh4mZHyNWqmC5RZpqTCQONAABDrUMW0kSD5nTN+qAxHai1NiPJYrHqMbljOVEyJoXki0uKDS3SLecR0B7Wm+gEiMtHjqZ4nDkRoDsYfwkROZ/UUdUwDFaeY3W4nHNdBYIK4NYejeoqjpq6ZpmbZlkIzDawJrejfG8Q012SR41xZCXyXToHOJlKWwedbjLHTdd5lcdC9rzesYpchY6Vq+lBDfi4O9JNAIIsZk1qAYpcYhT9qssMYanBEvY4doZ6GUCqzyCZqgG8cGkQw1KjeFqLSbJei0xhXIccBVqsY3sqoukgUIBO5SFwqPI0e4DWQn7Y1M+iIe71sOqzZwlWTMNWjdmM1S6VSGbGUFJnZhMxE8C5eGA6H2TrLJbnkMEyBa3X/IxykOSmSCUhMyBUUAiBHzQi1+SfkATEZa16pGmGNCKSqDNFCRpaaqQYwpn6BNUqdVCZEDh6gcJaBMcQktWU2V4/QbWlpqauru54j4zdEp9vt1gXNUtP7YZcO320WU1feJE3EzDfFMwlpqg9KIHqLSqEVMiany9LXxQcH8L/GUTPensbX6AQdL/63TU4CdblcUGNIjkn1y2ZuxLqGUAyl3EH1FD1GDeDyUSx3VpRm3EgCqoZR4AJNZhdFa0wXsgK5C3CAeqF/MiPGsIDjSCQCDRM5RWQLJ3eEUIatSZgEameR8wKPHGIA0eAD8Z+6QkK1s+7U7TC5iDocr3D69ZNeEQbcAtqD9KVLwhIgrl0ATWIE7nAB48z46AggOxk9HTpV52iDRjHCXAaWdQLRmM3mhoaG6hmmCGqq7bgYht4qBnzxI0pRyuToBw1KYCx2w0PhTDxFr2jNIBKfnNuF4mHZc318Lz83MC5DyeIzrmm+l/QzyKA3PCIuGB1JTIDqMIoq7oUFyY2ot6KqXF18YhwgqbOiLM63k+rmtHtjdYOJV2QjPMLhMAc89sg5FalUCh9F1B+pGX/0SaDJNVAP498Boip4YnaoBwEG9RKEBaWcroTCy4AsL6YzhBdA58TlCjLaqf9r7Go3FbOjWQ5cjUOSpzAgL0ChIbc03cbs8F6LPFUFUYRQYQYbGhqqey0Vu1y9V0pZ6E4gy0/eqbhhwpS0oEDuk9YFHBlayi0PZQiLKZ5QwEYEI32IZyFgiAqqqzmiKk3y7XoNrGm73Y7LZgWSBmeatQcD94S74GrBLp/J3wkHqaIZfUhXV1eHPAeFwVXsgnuNZijRcfusdmDtkFOFeIxALpcbGxtbXFyclc3GlUolLqffGUNk4gQNxmEBj5S4FWE+SY0HJSyJyF43gK6UAXyZU/BqRC3YRWwodvkETu5RVqIlnBGG16Eb6pTkE3H3Gqspd6Kb7fbqEyGgpzbZ6K/jzPjAVuobdc0Qj6IZSDpRfPkP3uW5Otwq48WNGaXP1z/XSIQsFF1JwA5UMW1eMVVscTH1iWhE7pN34UeU2lWrEL0BcUbEKPJweR55tBM0xpoBvi5X9VE8LH3wygLQuERXI7VitmbAcOzpNwoV5WDtHmTXJExPyl3XFXW1fD7PudaHDh06ffr0yZMnb7755uXl5WKxSDoPIOKa8F065dAP4oqfOBmGNCHNQGHpqya2BsHEo3qDSg2AjzXGXKtmYE8AD+ohEEfI8t4NsZ3NZkPKNzZWN+3y+oaaccg2O03QJxQatLOHjCcZGAUbbNUmBmeh65Rc/kjvEmlpxoSbd7vdDBx8Dukq3yBW+AI+WomQ/0VBIkN1mXIsF3RIHRLRRl4GgLIANLhplCNOdJnygYpaVCCMRfKLRQKIWY0QlV/O46bfANUFfNXdM5G4NmIvPEZAjNwqyQ1GnKuFITT7m8lkCoVCJlM9S1S3XbAGMpnM6Ojo9u3bDx069Pjjj7/66qsXL1589tlnjx49OjIyQiKMwCAejyt8mWzGWZNiSg0OeeQTZ6Wlah0CNDkBBe3Q1WHUOIl7tNlsuhIQskS3G0riWlqzyaM9cG7gRJNcfEWTwUjC4PqhbYYX6m1qaoKn2a+B29RAiFQpqIMyGhsbWRR/dO45eWPULeSkqwQxDuSJyTbwuY4j8tTYwqKEpFqH9B6QColx/5yyw83ovXOh9WL8kTw5gw7r4Dc1qcfGCgAKUelYg2AVc7pOaK1CHsBbRk/NSqBAQ6YFJgBM/E4/EOWGgYGBMTlNf3BwsFgsJuSwPSKwcrm8uLjIBuArV6787Gc/u3bt2ltvvXX27Nn5+XkqFClpOCY5ja+gf4plhnqGyyEUlDQnPBDkJWqFVsQeGcm6mlEihh2IrZk+OFWjZJJW6mRwqnATbXchaW8iZNT2I+PIaELTSBDAF0IEJwRnLS0tgEfhC4J1VRhzSvWyCaCa3+W3hoYGeko0OGMtanIU6cMqAbvcOV+pd44sxiOwCmlhAbvoP/Yx003G2R8UPkwmky4sUFsb8Kon4tO+/kgcloEqP7CL12N2ieFUuSp2cQu05BKCcHiK9n8gDZW/CWH5THXBINhqtfr9froURkdHp+WsJw5SyEjVPi4tf5VKZfPmzbfccst99933zjvvfPbZZx988MG77757/vz5paWlojxnKpOpnvGalaeeQL3aYQPgyLYy7NAwBWHOzkqIcdAJmSx9Rh81gnrZtkQ2gJWg92JcEnhOdTI4W8Wu2+3GP8D02nfLR+liMDo34gGNSWjGZYUAKu4Fd+oU4/pVHCs2/hPsanFcp5xfUOJNtZq1huEaneB0UAVck76FzhuiAeCL0nA4HMqapBoIg7SDBNRqSaZBtrjw1dTW4VRukp/gzysPr6NEjh7F2XHQp09MMwa8oL29nUiFukZadnbQdAbpsjzwDzglhpUAgtg0FArl8/nu7m6aGwnChoaGyuVyThpwc7lcX1/f1q1b77zzzkcfffRHP/rRr371qw8//PC999775je/ubKyUqlU8rJdPp/PZ+RZiFRo8XvwBblkm5jG0NANe6tiNaNwzTY+vD9DSn1bP83IlCCP1Ugko65Jf6G24vV6E/LgumKxmMvlGCu3HGGvzMoQkZLXEIV5Jz5R+OJsoRIyEnwIN8gCwO1rbrSurq7aiwOc4TPuhAuF6hGdDbVD/utkkz61E2NBAbHPT22D5GVWq9Uj0TFN60T68LRT+ga5SZVlKASyHwy3hgu6bFgAOtZcqupgqxjRKJ+GSyLliR7AERMIohnwA8lkMiMn7KblaYQkQ4ifwtJgEBEDVVw5AoaNaKVSaWxsbHZ2dlpsZGSkV446LZVK5XJ5dHR07969999//7PPPvvRRx99/vnnP/zhD99+++1z586trq7SbF4sFiFdHIiWZ5kUhKOufJYTgT+JbS4yJrWhgGw404VqTF3DoIwbg6n1SyN38juRE0gg4eDxeFKp6tNCK9KumZKNfYHaQ9eApkeSzRAWUgT/AMWQX+JftWOWdQUnMomqYfAJkAV7tq8/G9BkMsGd6vFZl+SPVLPDglT2EBgMIrSnv5M3Qe5otI7W5MmSJEogTgqMAJqhJPOnNI94ALUsBk0FqATX10CxMAcPB66TyJd2C92DhXhldHBVRuqKy5k3admUj09MyFnQGTnKMiOGU9YKNplg9uLTm9vf39/X19fTU33oZLlc7u7u7uvrW1hYOHHixDPPPPPqq69+8sknv/jFL956660rV66cPXt2dXWVZvNcLsemN5Y646MYYiesbv0n4Uhm1yM7XolZY9KSCwVz+iIz+3VcqvBjOmwGU/TwXkvtzEmz2ex0Ohkl7i6dTkO96gABKHkSoEz4hHN2yaMDtATWVnsInOZ09TpVFGnQgpdua2u7fi4Ou14ZAhJ7wIgOEhUAChFjBV9XhtY/HFLyBo6sZjL2DC5tfgwRr9GECBfK/6pibpQkAyGa6jNNnDVLoyoXhq7QVUf5u0lMZYPujwAZGhBwPeTyQqFQXORpTjY2Z8Xy8uQSehHhRTrRWKhQFwTMSa/oTgKvUqnU09MzOjq6c+fOBx988PXXX3///fe/+uqrL7/88urVq2+88ca5c+fW1tYqlYp+MhkeZtr4E08FGugkjMueUDR6oLaxLywdwGCX0jF3CmvoTwjLKZ0k2gsB4OByZSU6+zSbxCmrPBSRR3nSVgoY+FhkmF4SWo6v/k9jJP7IgkExo4ZR+fQseGunzNC4Uj3TiUsJy64gMvAbsGvselHHTTmEr+TLWLtfxy7lRE/NqNBqo6MKLKIQo8huFGuSlh1exr8qdv9Tesa9ElxqYoQU4wbskhJSriHfRMSWTCbBbk6Mo8cUuxt4FxfMgFDSAzcJecgm2B0bG9u9e/cjjzzy5ptvfvjhh7/97W+/+uqra9euvfnmm+fPnwe7pBfwp0pUAIifqDLuAuwmJK0bqz2BOihmxG5EHtT6X2AXFiS565XK1Ab4qnJVVAAYThHgUBXYHZ8ODPBy+AGCTm3zAC3IAMCqsb6SGmG9xojoOvKhRNuRSGQT/ZRJOWaetKLD4YACidChFiqEaCa4DTBxP/yFd8ENSkj8E8lnXAnHCyOLiZYIe40CmuCar1Oa17Mj8GIagQq3Xv/Bi/EY6mqJPMCWeh/1ZfaawbuchZqSp0QVa1YSI43F+d2sQGYLGaPsyxogN5xIJMrl8sDAwNzc3PHjx1988cVPPvnk17/+9d///d//3d/93SeffPLxxx9fuHBhz549vb29dKCz+DXoMTIiIhIc08lOvB8Xo7RGkttXM69sUldpDlbQSITLnCJAFi8lu4zSEq3qeoAy0aZQFX1woVAI2LBTyOFwIBSNzpa6CWUXAkd4R5NucAr3EhDzer1cbZs8Bh7Hy05H0uQUBJLJZPVMp66urrQ8iY4AhTeTHADpxASarAGvTJjK0+bmZsQTbf/auUJmTnv/WNOEkBZ5XnOzmF6cehm3241+YPHpwoAbgA4BBJ+gRRPGjr1l6gTM0oKka4w8IkkDRQmhekKeHI9IQM+VZb+uhlCkhDrl2WkwLh6DJcA3OsR46glb09bW1k6fPv3973//iy+++P3vf/9v//Zv//Iv//K73/3uq6++unz58smTJycmJkqlEidCwxqEEMqI3DiCj89nLmFZUq1+6T0igQqHqahjJcNw3L5b9ppzfmYmk6lUKmNjYzMzM7Ozs1NylAlJEj3GmEIdIW9YIldYn8gVeEBDcAfQ8op55IFOClz13qRQKZUnxCKRCHgjuYvPJ0bkAfN+sUwms4kUT0x6nOPx609SRlhwmAj1HvoJNWGBXyZaAp3Nzc1MIWsIXdvR0YFb5yw0ElUch8O5WsCuubmZeFEfwQzDQTPoHhYG8GIdd3V1sTShXApvSFtaixC1NLwTcaKMdc8cS0jjX44LyWazxWKxJM+V6O7uLpVKxWIRbx6Qk9dIxWtqnWHl/BRgFKlZOp3u7++fn59fX18/cODAN7/5zStXrnz22Wd/+Zd/+Yc//OEf/uEffvvb33755Zevv/763Xffvby8PDg4GI1GbbKbVakRhVATXNWuXJcY7Auy/dJvzaIiNQGzoFBba0Z6kU9GKiA8crnqiYBjY2Nbt249ePDgkSNHDh8+vHv37pWVlenpaZ4shKREA4AWQVqCKE2pim8EHsaMnobjeFrSAAQwHHsQFYtJE3NAMiQk3TQowi3jLT0eT5V3yRhw88HaeeKB2nOQcQpR2WfsdruNW0Gam5sBTaNU6hS7VAHAbmdnJ+EU0GSHKi28qgqArz5ajAx/X19fd3d3IpHghGTcPTvSiE4IDkiXgMgGSeQ1NTXhuwlB8HRAvL72DBgtxOABVc9QWU2n01k5SgeNq0eoI9rAELKHRUV60e12x+PxVCqFuh0YGBgcHJyZmdm+ffuxY8dOnTp19uzZb33rW1euXPnJT37y6aef/vrXv/6Lv/iLDz744P3333/xxRfvvPPOzZs3j4yMJJNJ0hdIL4BrlA3QGEoAFQs9o93JpxKnMrBMEwsb70f+H+zi0ymITE5O7tu37/Tp0/fcc8/58+fvuuuuo0eP7t69e/PmzX19fUl5RrHSbUosLg90V4FOFVcTQeSF8NLGn0AW1Ys71d5Rb23vLeTKJ2vgyJ2iKEKhUBW7nKGJ2qDozy1FIpEN2O2UJ9ppueX/hF29mY6Ojv8hdgG3Hq4IdpNyKAEZStgCYkaK8bj0r6cajNglx/SfYldThkbsRmV/WEZSvPl8vlgs5vPVJxkm5XhdX60dEerV5iT2jIDdcrnc29s7PFw9A3hhYWH37t0nTpw4ffr0+fPnn3766ddff/3HP/7xn/3Zn33++eeffvrpu+++e/Xq1YsXL95xxx3Ly8vDw8P/NXYVuF/HLjhWlUWQCnz5nUjAarV+HbsoxomJib1794Lde++998yZMzfddNPevXvJPRuxG5c8TEpa43VbvFZ6LWJGfjUCV1WWEbs2efQ24RDw9UmLnE/2tLmlpxw/Qwhrs9mCweD1fcIgQ1cwfp82QmicVAtnHBHCQ7dwHklflaRoMqvVqrzIOX6qtRGFWo9A/eiGs3Q63dNTfZQV/prYiKUVjVYfAUT/v/oBXKLGkYCSm4SHTCYTEK8XY4MQsSY6BxJivHT1huRgBzIGtIapd+J/qQzxOTzAkeeiTU1N3XDDDZzo+Oijj7700kuXL1/+3ve+98Ybb7z77rvvv//+e++998Ybb7zwwgsPP/zwAw88cOutt+7evXtycrKvry+RSJAgU6mAzFVCwp/6/X48m8pZFhJsoi4I1KLydacNICCeoWwUkd1HlP1ulWP8HhQ7e/bsyZMnb7zxxqmpKQ4jZHAABt7YLw/AI3LAywFKhqWtrU2zCuSIAIlWGTRlhMzYUHzRGYGGNWq0WCxdXV3VfoaGhgbegw9labrEvF4vF0oMS19fZ2cn+WT1SuRfiQMIfZApeoiB9qnprLMMmpubwRPnm9hsNupbmUymJLWosjx/Ly2nK6RSKZg4JIdBobGIycgmcqvB2jY7zsjAs+M6GyVbrDUO1VuoRlY5fVtgmkiczLS/duBFJFLdvksnBp6arBBBaj6fn5ubO3r06M033/zUU0+9+eablCE+++yzX/ziF59++ulHH3107dq1559//syZM3v37t21a9fi4uLo6CiBUTQaJWnPcvJIMydfrY4RNCN8FS4m6QZBF3GeCMA1mUzcCxep9ETghTtGkySTSRJ5Bw8evP3228+dO3fXXXfxmBaOXOcbCQ/cslmSgAQnbhfjd/K4OjXGbkxFLcqYE0wUA42N1YdQwM0cpUPoFZS9+DrvtOxWn2tZV1cHdlnEimCukqNLITySaMQEhBS8WGlbFQlhOFuL6uqqzx7ELxAIw7sW2XRZV1enFTvqcE6nMxgMJpPJrBhem98p4VAYY3bD8uToYrE4ODg4NjY2IcZjz1KpFGdkU3VUEsKFaTxB1RpODQQClItxeZxswCbqgBxcguBD++LLyHiAD4fDkUwm5+fnb7vttjNnzly6dOmDDz747LPPvvjii9+I/fKXv/z444+vXr164cKFQ4cOTU1NjY2NFaULR5claxK9TiogUNuAzuhpvI+EUPHdKAfGMJj19fUkXojFjUh1Simev7hkRzGJs66urmQyOSIP09y+ffthsRtvvHHbtm0jIyPxeFzLrkwTNYgNMLDVDOCqAIAyNbnJ8OIqifXrDaarjs0aOIeQbOIiA0iS7jrvcodAiquB6tnAQ/ickj2ADDESQhcfg6hxjE4nTQV18vw2srMe2b/KuiRHplTBoZx00/JUtrhYWsqzGTF0JwkEKvhZOXV5ampq69atnKO4T2x1dXVgYCAUCjmdTi4DYUPLEck1nV11L7FYjDQI+WyS3xwYBWrDYn6/n1lnpkikM6OJRGJpaQnV+PLLL7/zzjsff/zxT3/60z//8z//5S9/+fOf//z999//wQ9+8MADD+zatWtgYKCnp4eIJypGyy8pMOAL8eA0CSRw0BRBwvKQSuSTOrE6aTshlmcGfWLQpFEzcBcQUEdHh9vtxuNNTk6ura1t2bJlZWVldna2u7vb7/ermIbLCaD1vfwvy0BdNy4Lda6NyKSnjJEcKhQQ4xuRkTx1T8NKGi/JeFTzDLxUAz11gmCXFB2MnZDWoaQc3xeNRkkRMyg6surOqE2YzeZG2bzf0tJCzpLlzpQjPNDN9dLlqA6Oswrxzkk5BCktxqFDil2/35/L5aampubm5nbv3n348OFjYkePHt2xY8fY2FgsFnO73ZylYMSuVudb5QF9CBVSP4FAQGdUu89I3SP9I7VKFe5PJTXYTSaTS0tLd9xxx9133/38889fuXLl6tWrP/zhDz/88MNPPvnkxz/+8VtvvfWd73zn3Llz27Ztq8hJTexiV0YnEFTnDuswzhqiIWZ0OelJNg1iOphkb1R4GN+OJtTp5l5oVMhms0NDQwsLC4uLi3Nzc2NjY4VCwefzgV30obEqpu4a4DK5DjlXjpQWCp74h0Q7eQ9Wl+YlWlure4BViGq/Kx/l9XoDgUBELBgMVvO7SHjyfKhvam6sJ2VBwiyqOAmpQ0ZqOxlDYuTXVJNpcq61tXpwO9fBp5FVhd2pxCB9UDlUFoj9mTBwkxBjXxfYhQ6LxeLCwsLKysqxY8fOnDnzzZqdPHlybW2tWCxGIhGbzcagmEwm7pdEtVmMA3VCoVBKeqPS0kEGn8Xkwe2ZTKYolpNGGWJH9row3E1iZBvT6fTS0tKJEyduu+22hx566MKFC98Se+655y5duvTSSy89+eSTDz300KFDhyYnJykoEDahSZB0OEAtmijOgBqs7PF4GBnENwdfGGU9yOCpqEExZtYuhnJA9vB1ECcQyWQyvb29fX19FXmGJiq8U4yX8SEsMMJi/qLXDElplYQBNz7BgKT+BvmhWTZiOAISradwyxGJLMvl8iYYlwck0fXMc/9w66AKPKGdoQEwSq6eKoiGOzpMwFcrt0S7dCrqPeO/9OaJ8CjhdnZ2EmszqXAw8wR/EJ+l0+nx8fGZmZm9e/eSRj137tw999xz8uTJLVu28IQftusQ82pGjMHlQwABGC0UCtlsNiNpMsq5AwMDw8PDQ3JUI+I7EonwTEncXL0YRYpoNDo2NrZjx47du3ffdNNNJ2t26tSpO+6447bbbjt69Oj+/fvn5+eLxSJOHI8EO+LNdMphMkDDFKIyKV+rDqZBj7wNq5SzfKhWer3ekBiZdcCnZEbqgBCC3HwwGCRR3S3nT2az2Wg0ilzRQeMXJt0rhhpERrIAaONkpRHf61LHB5rlgEYNJwK1pk0ymzg0sEc4wXZAkgelUmkTl5vNZrvFSqVSKpXirHoOMW+STUVIC6pWtIwBO/wFiQ8QiT4jFUr7hdlsVkegtV+mipxASA4xphbd3t5OZoBqIZOE5CfcJj1EzEuZLS9NXhMTE2trfC6rqgAAIABJREFUa7t3794vdsMNN0xOTvJAMrZR2Gw2JowKJGeB8YSpohTSSlJCy0mreDabLRQKfX19o2Lj4+Ojo6O02JZKpXg8Tska6dYo1ixP53Q6nclkcmBgYGhoaHFxccuWLdvFtm3btra2trS0NCtPzurt7U0mkyx74Eiwr+NmnD8NK1n5ym3AQqMUSn1cEk4ZRYTPZAcRjpvYg51C0FhMWn7J6KfT6VKpxC0MDg729PRks9mYHHREmsjIVkyK+ltC3nA4HJccMI4FUaQZLiI2W23fG30RWTFicbiJFGS7GMvbmPZJp9Ob6PdJp9PMX7FYTKVSPJqho6MDj8/cwC6qGlE/BIwEhhAbRI7QIWhD1+JYW1tb2Zbok2dExmrnbSEGtF0DHLAkrFYrs0voipsjXlEVT/k6m81WKpUBsUqlwo0gXknIE7anUqn+/n4K9/Pz87OzsxMTE2Nj1acIcvtxMaawT6y/v79XusjhXUI6dXAMAnCxWCwOhwMlWiqVhoeHJyYmJicnR0ZG8L952RxBuS4lWb9QKESyFjqA0ggYgKNx5VMaJTWmistisZBPRQVBb61ilMdZ/FR54DCmKRgM0uyWlVJiXrZ+9PT08HDFxcXF+fn5qampgYEBeh0hYLJ4Dtnm6ZOjAaFMcByShACNeEoNxWJRHVpKjO/q7+8fGxubmpqaFBsaGoIaCCo0+8bBN7gpckeBQGATxMYxLUwMj9FDvDMKjF2DHOlKHEASjpw/HQsk/I25ZeDFjjfWAI4MfakP8OFO6Jrgssg/GDvCmBjkMuwO5SDamHKqMnQwElTpE1JZtazSYDCYz+fHx8dXV1fX1ta2bdu2vr6+KEcljIyM8GSHiBhHSpZqVpT9LWnJNEciEbfbDX/gKAhBWltbqVPiTOPxeFFOz+3t7S3KM4chuUQiwQGmZbFUKsXTBtBpYAJ0avkGv2cymbgXkM34s86Br0WMi4GtSfOhvmh1UM3AkcAp6ZjLSxGxXC739/cPDg5OT0+vrKysr6+vrq4uykOMGZlYLIZ7RMzg7kmr4zGAMlSak9NXe8T6+vr6+/shgt7e3oGBgYmJifn5+c2bN2/bto1Hwqytrc3Ozg4MDGTlcEG2LakuJx9A2YtCZrUHkgpbQnYHpFIpHhIGdlnH/GRLZ4NsHUNoG1MbTdJly8zhnYGUYpcFgBdjKNlokBAjc8zpNarbGH1YDbmseWjImBvDaSIK4WaXGI1IhCxkCn0+XygUKhaLk5OT6+vrOPRt27Zt3rx5YWFhfHy8XC6zijQtiITIyFMNE9JfEYvFGFblXcUNPp0kSSAQAP3KCIQHIXlcXKlUGpLHv/HQYw6FVmdKTEaLsxIEfIG7/59jlzQTC553aQKLJ9MrdkulUkWeTz88PDw7O8vC3rJly+bNmycmJnj6Ng/tUiVKZzYaFxWnyidSO+S9u7u7Uqn09/cPy0OeJyYmpqenl5eXd+7ceejQoePHj98hduzYsSNHjmzfvn12dranp4eljshGXkIohOkmk6n6LGxxLNXnLRKEKbrBrsY3WidrFkMk4CW1+ZApJHtirxkCyyjCSNywmcLv9+NiInLwFuEdcLfISWFms1kfhMSyIS9oMpm0nZxQD8RzeVARgRTv4nh0jzyBI5vNDg8PLywsLC0trYstLy8vLi5OTk5WKpVkMhkT0+JIJpMhBau5FE3FqNfWY4uALKFeTiyVSnGaKh6QfFx3d/f09PRmscnJyUKhgJeAFFn2SF6KvSxj1buKXePg64gxp/w0m6tnrm1QjYqwcDhMzyccSScGTylck/zu2tra8vIyaTLELlEQZQWyBEw1Kw3fSFIZH5gVNdLX1zcxMbG8vLy2trZr166bb775gQceeO6551555ZU333zz9ddff/755//kT/7k3LlzBw8eXFhYoCM0Kmf2h+VszIwceYFqp0xbrU3Uy9NQ9FsZOI1wYThSWqRFScQ0NDQ0NjYyQEaIQ+R6PxTYlDsZa1wbIT/ulTWj6WE6SwgE+dImsUbpWWsQYwclS444QI9nBN/qFpSxcMfhcDiTycAHg1KNGxfT577n8/lyuTw4ODg+Pj42NjY6OtrX16dSmKjF7/cTTABfXDPdZKVSaXBwcGhoSJ8Iy8nm1CMR+t3d3bOzs1u2bNm6devS0tLAwIDuxSCgRHGhHDpqZhxbWL/NYNobwATpMmYl62pnwHHuwCJVe7CF8u7k5OSc2MzMzMTEhEaWG/pO0TBKcww4jo7KAE9dTiaTPT09c3Nzu3bt2r9//8mTJx988MFLly5du3btJz/5yZdffvnVV1998sknP/nJTy5fvnz//fffeOONW7duHRkZIXQjC5STLVhwHGeRVGvC+jgNJKZxgGxi4JhSE+MChjQRg/zXVA6aAVeuGWmVHwCXn0pXsFFYjPUNB2sxhte3yhMw66UHg65L3hiSTIVHGpxBPBdj7P9gERK0QTyUpsgHVSqV3t7qYx2Yv4mJifX19RtvvPGQ2P79+2+44Ya5ubmhoaGBgYFSqZROpykuonPUEUciEXYLK82srKwsLS1NTU319PSkZUtCOp3u7e2dmZlZE1teXh4dHc3n8xyqR5TtEsOlMAsasJIgBzFM1gZmYW2z2vnJYmbKaR5HpCJgkItQb09PT19fH2uvvxahptPpYDDIxVDJ52NJC2pqCFSg7sBuIBBISTmWA4FIYj7yyCNUbd57772f/vSnX3755d/8zd/87ne/++1vf/vRRx89//zzp06dOnjw4MzMDBtJfPJ0oKRs4SZl0dHRUe3FAbubNlUJmBwCeII4GSbQQMxLykxHhwv9Ou86xPB63BvgM9BEG39h1sl2RcVYW1peYpLweqTb+HbFruQuQyBJswo63yw8409CIl7AMWFMm+C2Ql5sdnZ2586dN910021it9xyy6FDh7Zu3Totj+Xp7e0tFAooY/qTABYP0ywUCuPj45OTk6urq9vFIFdiwWw2m8/n+/r6iIdWV1eXlpbGxsZKpRKpKO3MUuq1/7Fx5QwLo4eEUK/I+Hwdu+ocvF7v17Gblab7SqUCfClMlORRF/F4HD9jt9s3YJcJRdopdpGFzGlG9lfTYHnmzJn777//qaeeunTp0g9+8IN33333448//tWvfvU3Yn/1V3/1s5/97NKlS3fccceRI0fm5ubS6bRP2iB1UwLY5Xia/8BuXV31+JmmpiY6lAV71R+MC/Jcn1uE3m2VsBpFhdhta2vTbACfoG83JrxAT1tbFb4EHzwqgiiewpVTDr3bwC7K4iapkNFGQ5I4HA4TDJFj4tsJ5hQEfK+2H/DtPp8vJU8u6empPrVvZGRkZmZmeXn5wIEDp0+ffuihhx5++OEnnnji4YcfPn369P79+/fs2QPaCClSqRStOQCC3qAx6QraunXrjTfeeFBsz549mzdvHh8fHxgY6O/vHxoaUr88NTU1ODgIStjgTtwD9erF63gqlWjWE4lFLrJZ9k43SkMWqpSx0pNpXHLKNForJH2eaIacPFy2XC53y758doug/gOBAB0/7DLE9+J1ISDiGVABkVH1jMViJdmBsnnz5ltvvVUF7rVr1955552333776tWrH3zwwaeffvr5559/9tlnH3744csvv6zYTSQSTqfTarU6HA60Ftl9DtG6jt16McIaaptOMQZOodZaMyoi6peJJ/hH/klTDYTM8Df+WieG9UBmIBKJFAqFsuwMY7WRXYbXdRumW0z9KXkxn5hfTB0u5AR23e7qgdgUqzYkB+x2eyAQyOVyCNzJycl5Sdysr6/v3bv3lltuefDBB/Fxr7zyysWLF++///7z588fO3Zsx44dCwsLk5OTQ0ND3d3d5GvJ3fb19c3K44J5tvVRsUOHDrGLZmZmZkrax1DDlOsKhUJKTsLTLTTcIwkZZgGXrVzAymdeuTtGDH4xZhhhDSYL/8PsAC9Nj4LabjGcgHatMGUQGUFFs5j205jEmHqn00krFWK6WCx2d3dv3br1wQcfvHbt2ieffPKb3/zmiy+++Oijj954443vfe97f/qnf/raa6+9/vrrV65cefXVV5944onjx4/v379/amoqGo2y3UExiSc3mUxVzdAovTJkDFQAkPsAGYoGZl3L2UhGYMFy5AaICRhTUqp+2QAI7NzS98nEMJoI1lwuNzg4ODw83NPTk8vlPB4PfTzIGBI9drtdG74i0k2xwb0yu9ASfgBSZx0SCKOA+TutdOl0uq+vb3h4eGpqikB4dXV1ZaX6bNQtW7YcPHjw8OHD99xzz1NPPXXx4sUnn3zywoUL99xzz80337x3794bbrhhdXV1XgocM2Jzc3MrKyu7du3as2fPoUOHjokdPXr0G9/4xs6dO1dWVsDuyMgIupnz9jgcg1AVpDK8cLnH46HR1ugGoToyD9ygYhdIMQK1MK/6X01Fk3mwWq3sBgW1/f39+ATUQi6XQ7zhtT1i2lVDToMZV2dL3YvEUVRSBF6vl0hrfn7+3nvv/dGPfvT555//7d/+7e9///uf/vSnV65cefnllx977LFvfvOb94jdeeedx48f37Fjx9ra2vDwcCwWY28YX0SHAjFPNUdG+ZulqektLb75ZRMfVROum1IWidKInFdM2sLhcMCjOBHNIZDERabgepT/yLlGo1HQQ6FrbGyst7c3HA7T7MLlkjamwyEcDidlRz79kIRKpPDa29s1o8RqxH9pcKNq22q1sooSiUR3d/fY2Nj09PTi4iJJ39XV1YWFhZGREZTfwMDA4uLigQMH7rjjDob4rrvuuu22244fP3706NFDhw7t379/7969+/btI7Y7ceLEnXfeedddd509e/bOO+88efLksWPH9uzZQ485KfpKpULigkoQdNLZ2Qkv2u12SoBB6blmhKm9sQJJCJJT1/hEscu963wzhmB9g7vv6upKJBI9sktldHR0vJZXGRwc5HGFAXksANFSWMzYLcSAU6Lz+/1R2dWSEIvFYlRn4fju7u7Dhw+/8sor165d++Uvf/n5559fvXr1xRdfvHDhwqlTp/BIKysrCwsLlDlHR0d7enrYRQJp6nH+DbIx0W63V/O7NCiqT8GJewxnBJHXJC0MH/j9/nC4+oSPcDiM2qNmo2GZEbsxqZWHQiHFLjMEdunV6u/vn52dnZubGx8f7+vri0QihAWas2RddXV1GU+8C4fD1Dk1W04vBGW85uZmi+GRMp2y3QP4gl2v15tMJiuVyrh08ywtLW0RA7vUJ8vlcqVSmZ6e3r179y233HLmzBkQedttt504ceKmm246cuTIwYMH9+/ff+DAgYMHDx47duzWW289e/bs3XffzdYDsLt79+75+fmhoaHe3t4eOeupUCjQDO3xeNQnMAuK3ZAcFap6mmUPg0I/dI3abDYSMsxmkzTubcBua2srwKVER2ffBuxOTEwA3w3YJQ0fEQvLGTS4OK6EqyWxnZIqNyrZ6/VyOzabrVgsHjx48KWXXnr77bf/Quztt99+/vnnH3vssRMnTmzfvn1hYWF+fn56enpychI1Ra5dB0d3etfX19fV1VWxC02CV9QVKj4gBkC5aPwaTIyUoZeXvD2pdY2lCCO6urrY/p+WJ8dGpR2Jo4kJ6bxebyaTKZfLExMTq1KkJZ3U3d1N3x3QJL9GfYFOGtRhIBCw2WxMUmtrK1lkZqihoaFZjoxQecDyJV/xdezCu1zD5s2b5+fnBwcHyQ0F5Sm4hUJhdHR0eXl5dXV1x44d3/jGN06ePHn77bffeeeditR777330UcffeaZZ54Tu3Dhwvnz51Fvy8vLWpqKRCKxWPUpvpACh7mwqPTy6JFinKOyxYj0MBjVnI+xO8oYq5F9b6wZXFUnRkq0vr76rFa73R6Px3t7e3k8N3pmcnJyeHi4WCwivskE4x7Tsg8gkUjAx7gLhEE6nS6L5XI5qjkUunEm8Xh8aWnp7NmzTzzxxOXLl7/73e8++eSTZ86cOX78OPuQAT39LalU9UHKKanp+Hw+ovbm5maun6SCw+G4jl2n08kl4qQikUhULC6mxAlwETSMflzOw2KzKFlG0iUQHudGpdPVXeOgLRQKcdquTdqI6C6oVCp0gW3fvn3btm2rq6tkQ+NyXgT5cAJBzhuFjcg4ms3mJjGNTnglvMKaRDW63W70otVabe5hoZIWIL1AoLa4+B8PU+/u7ubeea8ewlAsFmdmZvbt23fTTTedPn36/vvvf+yxx5555pmLFy9evnz59ddf/853vnP58uUnn3zyrrvu2rNnz8rKSl9fHxubyYUTCZASUcGDb0GhamcgcxGqJbCJu/EhDDK3Y7Va6QNpamqqk5w9m3+MeNW5r6ura2hoaGlpAbt9fX0DAwMzMzO47Onp6eHh4VwuR5MQ+eBoNJrJZLKS4ONId7/fbxcLBoMAd2BgoLe3Ny/nB4M/pj6Xy/X29m7evPnmm2++6667Hn744YceeuiWW27ZtWsXS9rv91vFSFczNcya7sEBu/VijY2N1bP0oCtK8AA3Ks+TQrXg1DQw8opJWO8LyP4tmIP+DCJf4tzW1lYKhj6fLxaLGRna5/MxZ/TmZaSzm0b99fX1bdu2bdmyZUlSnoVCIZfL+f1+gk1Scgo7p9PZ3t5O4Zdz23UWcVUco0IaKCGtCMFgEPbS3BmJQzpjBuTI8inZhTE3Nzc9PT00NMRMcA2sitbWagk9kUiMjo4uLi7u2LHj5ptvPn/+/IULF5599tnvfve7P/jBDy5duvTiiy/ed999hw4dgsJjsZjJZAI0erVMGONGEKz9PbgL9jWxVokZqCDisok9PLKNCvJm8MGuIrW+vh4aJoZTLcFpiul0emhoaGRkZHFxcWVlZVH2SoyMjGSzWb/fT/YNaotGo7FYTOnQ4/Ew4OFwOJu93sFXLpdh0Gw2y7kq27Ztu+GGG/bt23fixInz588/+OCDjz/++H333XfkyJG1tbWpqalUKkUztLYQoQVY5KhQk8nU1NREHgxF5PV6r+9xJ39GotSIXZgPgGq0S5aAnwyizWbDiyE0+XQCLB4wgQIJ1PYMgn6YHmSXSqWRkZHZ2Vlob35+fmxsrFwuF4tF9pxxD2azmcgaruLrTJLrdTgcLC0WBsQWleiB9DiDHolEjNkJLa1ls9lSqUTCYUxsZGSEJ6zn83n6p7hNEqVutzuZTHLZ6+vrR48eveeeex544IGLFy++9NJLFy5ceOyxx+h/HxgYIHPS1NSEv25oaGBtoxOIpZgqm82m8OUvrEBwk6jt7yd6BtNhSWy7pa+N6W+Uyjl6gYKwxqw6OHBbKBRCC42Pjy8vL6+vr9PaMTo6ms1mfT6fhob4Aa9svIGqyAB0dHTAu6VSqVwuJ+UIkkgkksvlpqenDxw4cJfErI8++uizzz77yiuvXL58+ZVXXrlw4cLJkye3b9/OwwpohmZvBbeAOm+uGZljJtpiqTZ8VnsgwdkG7CI7EAyIrUAgAHadf2wOMWQucpOvgSM5mJY+IL8YIFbsanBaLBaHh4dxWwsLC3Nzc2z75gE4UCxxG9AhSuAOATTc4PP5SMax4/z/Fru9vb2Q0MjICHFVXs4WIWqmgQGC5FghOnTX1taOHDly991333fffc8999wLL7zw+OOPP/LIIzfffPP6+np/f382m3W73YpdGkiYA02McF8bsMseWJ/Pp9iNxWLoh0Dt7KJwbbul1WplGSh2NWjTZeB2u+FpfgmHw8VikQzD17Hr9XrBLm1PvMUvR0OgdBEtYLdYLGoXXiQSyefzMzMzBw8ePHv27Llz55544omLFy+++uqrr7322quvvvqtb30L7C4sLOTzeVVTBDYACdwCJ8WuRgXXzxZpbm6m8cfj8fikdhwOhyM1C4VCfr8fR09riEoTAEQzSqvkK2i1MZvNTIxmxXkLGtdjMPK1pA7YYDM6OgrtDQwMoBkikQjBJsEWDoVJgr0oeWgyjuXh9Xr9fj/JRbwYMSUxO/hGyYWllyolDynRXum8HJyfkJ15cdkCQOwcEuO7CoVCb2/v+Pj4li1bjhw5cvr06bvvvvvRRx994okn7r333nPnzh05cmRpaYlmaqfT2djYqBpUW0FIXSHWgS/tZowqvsvtdsMmebGMdFSlxNBCxBsEwWyyUnnQ3t5ulybBgGxUTNbSixBTOp3u7u4Gu2iGpaUl8oOZTMZ4wAWf43BUH7agOVcyVLrVj10qKM/u7u61tbXbbrvtySeffOaZZ1577bV33nnnvffee//99998881nnnnmlltu2bFjx+LiYrlcRpIZk0WIBFIK9dKtYJITzl2u6lPGHA5H9QzTVjFQZawWQo2gVn2xtjWR2NMElkooi6XabgdS8X00N1GcJCi2SonPIftIvbKVKiK9noVCgUbPAbFKpcIk4eUpHWkeg2YlmkuIIBOJRCqVop5MMo69aD6fj7twu93cOREGTpMZVXSqU4a/PR4PyziTuf4Ik7RYPp8fHh5eX1/ft28fXVFPP/30xYsXv/3tb7/00ksvv/zys88++/TTT58/f37fvn1DQ0Pwbmtrq2rQBkmDMPgMDt7DZrNxkXQ+4SVdLhfY5bCzbqnZFgoF2qzI/3CqA2yiDgq+1JAjKx0LpVIJEU/sVSqV+vv7BwYGxsfHp6amyJH19vYmEgk9SNwkPe9OOdiBvS2UBTTay0vnHdU4mkOmp6f3799//vz5b3/72y+88ALdC+++++61a9e+853vPPjggwcPHlxeXp6YmMjlcl6vt10MIgddnFyv56R0dHR4vd6w5GT9fn8qldrE+iaBjABwSk1PwylPzZh7Y00SAlcaR7nzdiZA623NzdcP3qNpnVAaL4/eRW729PQwjuwMgy/xiV6vl5I6wpdFYpNzdEjkCQ1VO2V9cmoY10mChqYIVpFJzFio4+0x2Y9FY42uTJfLBaxLpRJl26RYb2/v+vr6mTNnnnzyyStXrvz85z//zW9+89VXX33xxRck3j/99NNPPvnkrbfeevTRR3fs2DExMZFKpTo7O6li1tVdbx3hYvSSKH0zzmhr3Bfpmmg0CtP3i5XL5Xg8rpvAqL8gObh+BpnDptLpdE7aFUqlUlEeacHYJuX8gLxsQyqLFWVzju5ZJI5sb28nmvdLidRqtaLWLBaLz+ej55Mc+ezs7NLS0urq6oEDB86cOfPUU09dvnz5tddee+utt955553vf//7ly9fRjCsrKxQ/eG4RNYb6Wpw3NraCu+yJcflckWj0axYMpksFoubaEwhuW2324EvBAwzeQzW1dWFR4NTyemAD7vdrrTtleOz3e7qowV5JQJcS+28kZQTvW00MxixS7HU6Oi1O5sZRQuSXIzKGXgECpRPEf7QM34ZFdggbcf0oLGXC9qGvRwOB31StCa7XC7IqaenRze9xGKx3t7enTt3PvLII6+++urPfvazP/zhD/+P2L//+7//67/+6z//8z//0z/90z/+4z/+9V//9bVr1+655579+/ePjY35/X6T6fpzuOprbU/oK5YiSXGGEUHJQBGuISu7u7tZ3uVyWXdbMAXMnfGNWonEb+RFu2fksVnRaDQidXVC83g8jvzgjxyeAjZY57ggChPk1NkCE41GBwcHZ2dnV1dX9+zZc/jw4RMnTpw6deree+99+umnX3311TfeeOPNN9+8evXqm2++eenSpYsXL953330HDhyYnp7u6enJ5/PBYNCYpNcBgXdxUG1tbX6/n2xGt3SP9PT0VLGrJGTErlvMgNvqrzhuljjjZRNDcbolDkBgAF9eD4WYzWaTqXqmnclk4r2654SRLUrTRo/UJ7XJMC5PeARYYBfeJXAmt4BbT4iFQiEonxiotbVVhf//S9lbh0W5fu+j20CRkFAcehhiYIghZugaulsaCemQVEBCMEBSwALFAgMMsAtbVOxWzG3r3uoWu7f7XPPcm+eas7/fc37nrD/87I8BzPuuZ6173ete6xlFeokgjMSGV50CCwIgMRgMPER4+dixY6nv8ng8ExMTYBKQ+cHBwaWlpQsXLty6deuNGzdevXr19u3boaGhV69e/fnnn8+ePXv69Ong4OD+/fvnz58/bdo0b29vTU1NSur9T9+lqgBgSvqQQZahFMEAHJ8vnP0S9V1kPIVhoznnP76rT7oGOjo6rOGGKJglUMjo8JOKWrioD6QbPAl6PWB9kA94m7Kystra2nZ2dl5eXpMnT05KSsrNzS0qKiopKZk/f/7ixYs7Ojq6u7s3bty4efPmDRs2tLa2Njc3l5aWQp4LMhi+iy9IlYkQuwLpAlWrqqpCO8ojSxb5fL5wXg0wHCgQD47BYIi6IPVjBkMoyIJzAP0AWuDJqhIDuMQjoKQY+hEyZFc47r1Ad1eb7NrREzEOh6NPDJNzGhoaqmRsH9WxaCalGVZleMsduHS0SHBOxMTEAFdGDQ+KjiSG04ymsayscK0nfEVaWpreazRmzBjsF9PT0wN7DxECrmD39PTEDZXNzc2HDh16+vTp169fv3379pPYd2KfP39+9uzZgQMH1qxZM2PGDHt7exUVFQSzMWPGoHsiSUxi2HAm8SNNIAJUwAAkRlxsxuVyTcjmBA0NDWQ2oGRlZSHpDkYI0VdWVlZBQQGtTTgumnkAYPTdKRFD/wXBCNkSKEuS6FTB22DYCfFOWlqawWBwuVwghOzs7Lq6utWrV2MP0Pbt2/fs2dM3bHv27Onp6Vm5cuXSpUvnzJmDdpq1tbWpqSk+hRQxGmjExMQAGBBl5OTkWCyWiYmJtbW1paWlKZkGF/oumCyUb/BdVDk0dsJZkcsQXKF2QBkE11EbNhViKDYp14ZFSSj1sCoPkho9YugYi7I/qkQCgh8ABwYvEicNIQr5FFgFkjcETkA04BNR3wVaGD16tNjwxonRROQqQTZcAB3S2RD8kYyMDNAwj8dzIEOCjsPm7Ozs6yuUlqempi5evHhgYODFixevX7+G+/7rw5RNAAAgAElEQVQi9s8//3z79u3evXsnT55sbW0NDw83MjJCOqZuAd/FOxMfNpQsoiUvjcrKysqoSnV0dLD5T0ZGBjSROpnixGlHOwq/D5ior6+PWQ/EEVlZWVGwh1eMA4zTgtYdXIrKfSjdi0yrqalpb28fFxdXUFBQV1fX29t7+vTpK1euXL169fr169euXbty5cqFCxfOnz/f39+/d+/e7u7uzs7ORYsWlZSUTJkyBR0oNptNeSQabkeQ1uCIESPQ2JeTk9PQ0DAyMuLz+cjJpqamQt9FRhAtw+HB8GZ8SDwg6MvgssO+KvxfhEYcesBHJpMJx0WepR0aVFeaxNAc1yUGXItqDE9NlF+jZBx+k/qZNDE4MZ64pKQkHGAMMZTwCL3wYwQ8uC+8GewH/SKiu92lpKSUCBtvbGwsEAh8fIRj3/7+/lA8ubu7e3p6hoeHl5eX9/T0XLp0aXBw8PXr158/f/7x48fPnz9//fr1/fv3x48fX7p0acOGDWlpaXZ2dpC/oYVLPQOuLE54RvyEYBjgsrQ8pdATIAcrAcDdonjQIBAWTxsRFHojI0K+GhgYMJlMsAc4M5SVm0BoH0RipFbRqC9DDE8bfgx22czMDDVrbW1tZ2fnmTNnnj59+prYq1evXrx48eTJk3v37t25c+fChQsHDx7s6enp7u5evXp1Y2NjTk5OWFiYu7u7np4emh10KIPmRipvx14E3NiMEyjcLYL0hNqcwlN64mmco/gSjQb86EzCisNxRWMwAoD28NA8mlLIYqK+yxYx4Fr0IMDtUeiDODqOGGoaPEokXwrtpYcFkPBXOkBLHQI+gd9HJxkxGLUtDicyAw4AEAXgkJGRkUAg8Pf3DyEWGBjo7e3t5eXl4+MTHh5eXFy8du3a/v7+8+fPP3369N27d9++ffv+/fuvX7++fv368OHDixcvdnd3Z2dnOzk5YUUSGBh69qSkpCjgw0mjPz/cF16OeIyyBGiB8gC0AY7FwDSCKisr4x4UwEQWi6WgoEC/HfhjfEGabGm+pfgQcQEhA7sxtcgNira2thEREeXl5YsXL+7p6bl+/frQ0NBnYh8+fAD6f/LkyaNHjy5fvkx9d+3atUuWLCkqKoqJifH29uZwOBg0BG1MXw2lqJEYsdAJoByTWr+BHUOOBjMAf6WHDOQFZR/xCVXIbDraFiqEN8E7VlYWLkDQIDop+K62tjaUijR+Y6UFAjNiszZpAaipqaHMB+LEcC++L02p+Bg0DIC+oFwvjV4o0SSGjfL/4sMmGomhyQegpMoPfGVpaWkl0uNA49STzMQHEPPz8wsMDJw8eXJCQkJ5eXlnZ+fhw4dPnTr14MGDoaEhin3fv38/ODh48uTJzs7OrKwsJycnPT09DQ0NxF2aW2hkxfdF0kA7F8cVrwMejBSB10Sxh6ysUJGsRExBQQHVm5ycHEocc3PhxhCqiMWxp88NuZcOCqBiASzEF0ROpnhSTU0NJK5AIJgyZcrs2bNbW1tRs7558+Yjsffv38N3nz59isyzf//+DRs2QKjU3Nw8Y8aM6Ohob29vPT09iLDxTGgrAA8HhxMJBx8Q3W9lZWXhLj0AUNo5gzIBHwzBADEPfkO5MKQtlFAKZARKiUzwUacEMEBnYSIZPsPBhVQZPwf1dQ2yGBTEIXA6KBi8J4oEkN/pi4Qr0pCMY4ZsKIouEGaGPVlId1A0PHbsWDwXmjQRemkZoEa2qHM4HGw6EggETk5OmAsKDQ2NjY3Nysqqrq7u7Ozs6+s7fvz43bt337x58/Xr1+/fv3/+/Pnx48dHjx7t6elpbGyMi4vDLICKigpoEOq7qH7wk4u6L2IPXBafQvQj428iQkP5RNkJ2gbT0NAwMzOzs7NzcHCAOgwomX5HJC6KRlSIIYsiDLGG2TTwOTo6OoaGhhZkv6CHh0dsbOysWbMWLly4cePGs2fPPnz48OmwPXny5PHjx7///vv9+/fPnTu3devWxYsX19fXY1AiJSUlKCjIyclJU1MT+7rxTGgaBIBBNwpPhubbsWPHCjWQ8F20kWjGBNiSJKIHOD6cGFEQDX2KiQGLobmhLWV1otkDt4UClsZd/AS0UBCNFlLkOjgxIp3GLCiDGJAQXhX92RBy8H8BaeDoADyIo/RdAjHD6ek8LQIbXjNaKjRLovjDPYFa5AIfPdJa4xIzMzPDqrygoKDExMTZs2evXr16z549R44cGRwc/OOPP94Se/78+dmzZzs6OhobG3Nzc728vNBDmjBhAlwQTxhUNLANnJUS9TQ04uD9Bw5RmEFdHNEBRwKfSEtLi8/n29vbOzg4QBbHZDIppSAagEW3PyGLamhoUODHJgteDQwMzMzMLC0tbYk5OzsHBQVlZmaWlpYuWLBg48aNBw8ePH78eH+/cM/76dOnL1y4cJnYyZMnu7u7586dW1hYiO3IHh4eWIihrKyMGgPZlY76IuSj0Y0HQiPx2LFjhTM/gDJoOtA+AnAVfBS/+T+fL2C+/LBNnDiR8rvKZC4Z5waeDbCLYEajIEVvkPdASoIoMn78eEWyXxbFBxrrogkBoQi+iMOALCl6oui3xmfErygERR0FxQf+oQK5phnZAHtx9ImxiQ6aSRqSasRYLBYuCsC23bq6OlyFcuTIkfPnz+OF9ff3r1u3rqysLD09PSgoiMfjgcsEE0c5MhTXowj9jJ4IZcpo6qePDhGI/krdl4YVuC/d2M5isdD1NTc3NzExATsBql6BLOynfAIVsgH+Yo6QNSyIZZNRarTQ6JSopaUlhNcRERHJyckzZ85saGiAtHzz5s179uw5duzYWWIDAwM9PT1z587Nz88PDg62tLTU19dHkYOgi+SJSIQaDHGEqgAoXETGUFRUFNZq+JwgtOGj8EuUL6BLQR6JplrAfBSzCN7ow8GDFYY1E/gL1G8A7ERBCG1Hy8jIILJKSEjIyclBWQsRJhU0UXiACoZ6LWItfoxhhv5f0QZCL8IwfgycAcQwZCj8KY6QItn7BF7JiBhVDoA6BUwC1WpkZOTg4DBlypTKykqoznft2nXkyJHjxHbt2oVtAzExMe7u7ljcBF9B4QgXFNWdQBIOnSetySCixYvAcUVhiihAnwmcD8+E+i4kXabEMIKmQoRgDELVo+CjX5NGK3l5eQaDgYqcRWS7gArUd62srCwtLXk8niW5Rg7jpampqaWlpQ0NDS0tLWvXrt2xY8eRI0fOnDlz9uzZ06dPb9++vaqqqqCgIDAwEI0VPE/AXIro8NnlyGgCoCaCLnwX7oo6RNhXQ7KgajckMnjDBGL4BxgpGU0MhRS6A6KhDn+f9o1p2YcwiR8C6VKc7HagXwGjLDQ1oAuvTYwutkBjAl4LeICDgR8VIQodE7gv5edxjinpg3OIH2Mc2WsmGrOxoBLaXDMyWGZsbIwCC8w89SRof/X19V1cXBISEoqKisrLy+vr6xcuXLiIWF1dXUFBQWhoqLu7u6Wlpba2Nq4aB2iBCA7IBxAfbSS65hV0DZvN1hve5Ae9GD4Iwg8tZeB2eCAI0siISkpKtGGuQa47xRHFIxJlliiswrOdMGECrUlUyHiirq5w/gX+yuPx0NHV19c3MTHh8/lQr0+ZMgWDT52dnQcOHDh37tyNGzduEuvv71+5cmVDQ0NKSoqjoyPmqWhUwjH+TzqlkAYvC6AcQEBYq8FdRD8zUAV+B76I0IVMN4YYaia0cxBucYIhU6RPAS+GRmuwqqOH116gwEd0obAG6ZLBYNABKR0dHTx00CB4JfjxEEeRJUXFAHglFO1QgI63LpqGkGoBvlGuqZB5VzabbWxsLOq7GLbDK0cIhMdPmjRJS0vL3Nzc1dXVw8PDT8R8yJ2m4NKRrCeQC6PxWCi7J06uNQD9jJyjrq5ubGyMLSe+vr5YtOrr6+vo6MjlctXU1HDBBIUWSDj0cCJ5whsw0MogRtu80PrRtg7+IRICRSM0BtMMrqGhoaWlBS2bkZHw1kRouwGicDWTg4NDRkZGcXHx5s2br1y58vTp01evXr1+/frVq1cPHjw4efLk/v37W1tbs7KyPDw8IO3H7BAtRWgABvyFYI2mKWQVaWlpoe/Co0VTKl4kghlchAbq/+R6yggqKioivNNcBn9Cdqb9vRHDNooIYiBsgO9SxRmcSUFBQV3932vCdXV10YLX0NDAa4NrioZq/CtZoq5EXKF/ipcBz6Yfk4I8JBlEGiRK0H8sFguKXg4xXV1ddE9UiAE2TCRKVurBqsOGP2UwGGjSAv0rER0cKExa+OJnw0uCI06aNInNZtvZ2YWFhSUnJ+fl5dGtPGVlZampqd7e3hgwRotBRkaGMj+iqI9WdQgQeJsohRE7kHDoA6FZVxRAUzeiU65MJhPsGF4Kkj4KGwxWmJqaJiQk5Obmbtq0aXBwcGhoCFT3jx8/vnz58uLFiwcPHgwMDHR2dpaVlSUlJYWFhWFnHog5FOVgMGmGp58FAA+wU4h3R48ePXbsWERQBQUFpHua6ykSwj9AqMCpFaUDlZSUwCnCy+FDNLVBPDWSjCZT8fVIcgEYbTYC9NCgjj6KJjEkTV1iiMGg8+AHVEhK8TcCM9Dzfz42Yolo4YjDRn0XE/xKxMCZULSnQy6IZRHCSGO4fYVGIMZL8ZNA5TiS2Cgi0gVXgMMDuIIQIMpCSklJgajR09NzcXFJSkqaN28elnbhiit0pBYsWJCRkeHi4mJjY8NkMhEg6ImlX5wSw8CONB5LSUlRcAIyB4UNPJuWg+CqUDTTqgCLSHDBDm4q19TUhMMpE0PTisvlBgUFxcbGNjY27tu3786dO+/fv//06dOvX7/+/vvvd+/evXr16vbt28eOHevq6lq6dGltbe20adPCwsKcnZ0dHR0NDAwYDAYUZCOIUpTySAAIABUSEhL/i+8CzFHfpT3J/9V3lYmsW4X0JsDqw3dRfqHMhw/R0Et9F63q/+m7eKbgGeA38F09Ymw2G0wwmvKo0OHx8F0kOARduBQ9DwhsCFT4Oenb+o/vKhJTGp68YLFYoIq0yNwya9gQdeTl5TGrPJpMiY0gjXh8zN9++w3uC4hFaZz/6buYf8aVWx4eHhkZGfX19StXrty4ceP+/fsPHjy4c+fO3t7exYsXZ2dnY801i8US9V3gAYRw+C7eHYoehCRR30X0hc4GvotnItqeFGVjqO/qEikwBJPUd+EDKioqXC43ICAgOjq6pqZmx44dN2/efPfu3YcPH+C779+/f/369d27d0+cOAFpTktLy4wZM6BtcHNzMzExUVJSoqrzkSNHIj/gp0J2hRMLfXfkSOH+PAzfgpWgL57yqfRZo7xA3KXCIuRE5HGUSkiX+DxwMnqURcMSJELIuYi7AMRoxmKETkVFBeJ0PTJgjcF/tD2xzQRvS5xUfvBOvFFaWdIQKDpXAyxEKRT4Ll4zIAdiFTZ2geXVJs0/pAJ4r/rwthRpaWkaz/Dt8Cv8GPED1S0yMn2e+A+kdVz9YG5uHhoaWlJSsmrVqu3btx8+fPjixYuXL18+c+bMiRMntmzZUltbGx8fHxYWxuPxIAMAFa2kpERrBrxvgGDkELwdjFvTpiueM7bAAOuDNQN+kxAxxG+UbhAV6JBr9jSGFyMxiWlqahobG7u4uHh7e6ekpFRXV2/ZsuX69eu3bt16+/btu3fvHjx4MDg4ODAwcHjY+vr6ent7V6xYUVVVNWfOnKSkJCcnJ4guxMXFR48ejZ4LsA1OF8hg4Yz7iBEjRo8eLeq7KOeBgxG08CvSB3xftAIA20IJMoQrdXV1JmFDVVVVlZSUKDTENBX9gqgcUQvS1Rg0SuEkKJG5IE2yjAPHHU5DG4GiAYOCHATdUYQ0RRQcRW4bQCON0n+i7ktLdaCOCeQuEDXSV8N3Zw3LXoFs1YihUobkEgGPvnSsIYIfA5vRZjVwNv2b8vLyGhoaenp6VlZWgYGBubm5ixcv3rRp0759+86ePXvp0qXz54Ubavft29fe3j5jxgzUOgZkZa8euXvZxMSEw+EwicIEBCXeiBKZAxBFg5RZw5mZSFZzgNJWJxc1Q46HsgePAkcdh4GuEwXkxZSyKpkA19LSMjExcXR0xJrorKyshoaG3bt3Hzhw4Pbt2/fu3Tt16hRUDb29vcePH7969eqtW7cePHhw586dc+fOnT59evPmzXPmzAkJCXF1ddXR0UH+x+nCB0ECERcXF/bVRpLhfcwgiCJUuBcyC0WN9N1QIDWBGA23imQTFGoUvHV10mCjyQUAEagFnXrEXdQKtHKiwRj/AWxNIQq+Mspe3P6gqqoqOtMBbwYVJUbm+kcQ+0+NSMtEECNIskAdaLWoEG6ISTRxcFx8EFRjKsPL2hD/ZInRr4kQQGXEtEICCwufoKlQVlYWtSn2R0VFRZWVlbW0tKxevXr79u27du3avn17b29vZ2cnFFhpaWne3t6WZDM7dkTExsZGRkZ6eXm5uLiYmppqaWkpk9knRA38VAqkdU8rXRR58EVtbW09PT0dHR01ssJCgZgS0dDR30GNLy8vj23mwHLa2troniJD8vl8qD4gbq6rq9u4cWNvb++ZM2cuXLhw4MCB7du3r1+/ftOmTceOHRscHHz8+PGnT59+/Pjx7du3L1++PH/+/NSpU0uWLMGsFJvNxmOE1BG5BaNT48ePF/ruyJEjKe5BAU6jCNAnqgqMKIGtoJS+6IlEvYlfaY9NhQjDqR/jZFPSDe4yfvx4yqgDK+P5whtEAwC45P+0Dzgc4VV+mpqaiPGKxCAfoUdiDNlKC9+FUgKnDucYPgQgBcpZQUGBEg5ACAhpcAh8CzU1NQqFkRA0ydAbnfTEcwf0ov1CZGfUN3gOOMMYJMQUZ1BQUH5+flVVVXNzc3t7O8YNGhsbKysrp02bFhISgjWJfD7f29s7JiYmPz+/rq6uoaGhtLS0oKAgPDwcYksWi4WuFVA+g8FQI8v56IMCmQ08ZmBgAM4VAgH4oi5Z4qSrq6uhoUGBBy7h0tTUNCC3A6GAVldX19bWtrKyCg4Ojo6OLikpWbBgwcqVK3H2BgYGLly40N/ff+jQoT3E+vv7L1++fPv27devX3///v0fYj9//nz9+nV/f/+OHTvKysocHByUlZVB2uJ9IWmMILe3/x98lwZavAAxYuieo8wCEIFL/cd3AY8QLP/juwjw8Bj8ZP+/fBctH9r60ie3+WEiAL6F/ILRWZxGekkRmq60J/L/0XdBLKiKKOIpksG4IpvNBgRkkd1hCMy0ckDRgzMDmQHit6jv0k6HtbV1cHBwQUFBdXV1S0sLfLepqamhoaGioiIrKysoKMjHx8eCLFCC7xYUFDQ0NDQ1NVVUVEBbKBAIwOuBUf6P7yJS0mJUjxgQCP6IwWAgHuvp6eHx4vYnCL4w+6mpqYmVAHSI6D++29TUtGrVKvAkAwMDFy9ePHny5JEjR/YR6+/vh+L55cuXX79+/UUMvnvixImdO3fOmjVLIBDgDm76vlA4/eu7QIRA94iCNJFRRgwpnjIXAI6SkpJIOshENB9RaIWoCfYNjwkxGNvRaF2MoA5tA22AUcqQRkf8B+AplGhqamocDseEmLGxMYgbVA9A2wDcoITxCmnhTPMMuhs07uI54PZZxF18EdpHVSKmSnYd6JFtVFC6OBFzdHS0tLTE/UoAMxDs0WYBNv4iRGHKl8FgoHsEfhTkLoSFS5YsWblyJZbU1tTUVFVVoSS3txcuT4dQxsXFJSIiYsaMGStWrNi2bdvmzZvXr19fX1+flpbm7OxsZ2eH65SB7ydNmoQbJ7XIFjkW4fu0hrdPYFIVxx5iEtzsaW1tbTd8caKBgYEGmcJCAW1GNsUDagNCAK9HRkaWlJQsXbp0y5YtBw8ePHz48Llz565du4YG29WrV8+ePXv06FH80ZkzZ+7evfvy5ctXr14NDQ29ePHizJkzBw8erK+v9/f319bWpskT7QJxcfFRo0ZJS0sL9+KMGjVKXKROp4gNzke7UGJkJRHqnpHkaiAMKiLGwHcBFXA6QavBKaloAUAKcRfFGWUQkTrxlAGgabWBKEVpXQRpbC0wIBeyGhkZ6evr0wDAJPtV6TAcm82Ghhh9VBRMOKgAJBTvgk1EcQB+V5VMy4EBRPNCUVERPT8TExNLS0to0iPJ/t2IiAh/f39nZ2cbGxtra2s+n499amjcjB8/Hv1CrBrX19cHhsYXR6NHV1fXxcUlOzu7vb19x44dBw4cOHz4MDBiZ2fnwoULZ8yYgXYdiyxn5vF4Li4uMTEx1dXV2Cq+Z8+eTZs21dXVxcXFRURE8Pl8iB7BogCZaJNdFmxiEFgzmUxABUQNqDVMTU1tbW2dnZ19iHmQay7t7Oz4ZNjTwsLC0dFRQC4cMDU1NSRmYWHh6urq7e2dnJxcXV29bt26vr6+gwcPnjx58vz58zdu3Lh169bg4ODp06d7e3tXrVrV3t6+cuXKTZs27d+/v6+v7+jRowcOHFi/fv2KFStmzpzp7e2to6ODpycaScXFxRUUFIR9tdGjR0tISKD8whg+YhVKEBC044jmFXFrNLGxY8fKysrio4IVViAiLARX5Guw5fji1FdQpoCIocmUFuDguRCtASsR5DSJQb8HXlZOTo5uzdAmi7poXYiQqaWlpU8uNoKYBhf60b4o6kIkU0RfeDbYBkRBOK6KigqYPswmqKqqQmJmbGxM9+LExcWlpKQkJyfHx8dHRkaGEgsODnZzc8MiBYwGKCoqImIZkSEcpGMtLS0NYtCmubu7FxYWbty48eTJk9evX//9998HBwevXLly6dKlEydOdHV1FRUVZWZmOjk5cYlhf3BUVNScOXNWr16NgfKFCxdmZGRMnTrV0dFRR0dHUVER+XDixIn4GQAGsHSCVmNUDKiqqor2r6WlpaOjo4+PT0hISPiwhYaG4j/DwsJ8fHxsbW155MJaU1NTc3LHqqOjY2BgYE5OzsKFC7u6urq7u7ds2bJ169Z9+/YdPHjw0KFDW7dubW5uLikpKSgoyMzMzM3NLSVWUVFRVlaWl5eXlZUVHh5ubW2trq5OywawW6g+hTudwKuDRUM5j4eL0gRDOMAMeHPQo8gRYzCEQn08F+CHSZMmoTZHNUDvWJUgA+609YV/DtwtMWxwX0RfUd9VIauZtMkEkTbZ/AqdMXg9HBXkdLAcSsTwryAf0dfXR+gFFQ0YCjYN0Qh5AEdClGdA6MWrRdGNDKuvL1wxi9ePm8MiIiKSkpKSk5PhwanEUlJSIiIiHBwcTExMNMjV7xhWoXeymhIzMTExNjaGI5qbm3t4eOTn53d1dZ06derOnTtv3rx5S6bnh4aG/vjjj4sXL65YsaK5uXnq1Klubm58vvDiNy6Xa2dnFxsbW1FRUV1dvWjRorlz506dOjUmJsbBwQFjajiBqBSZTCab6HG55HIh4CJECjxPlKG65JZpPp+PWT24bEJCQkZGRl5eXn5+fkZGRmhoqL29PY/sAOARWZmNjQ2m3hF629rali1b1traumjRotbW1mXLlrW3tzc3N2PnVWRkpI+PjydZR+Lr6+tPDPv87Ozs9PT06HSdhISEPLm0Ad11TU1NoRZn7NixKLxQAyHVojpRUFCgfVRMetDUrE6mUoGZMPuKGAymEO8bwYb6KFCmvLw8fBcoEwcDGFyChH8Ac0RxRbIiTV1dncIybGCQJ4Y8i/qMQYz4rfAXZXLXNgopVC3YRIbNA3BT+o3QAgSzRqtPfHGQuADQCOSGhoZ45TrEDA0NHRwcJk+eHB8fP3Xq1BRiaWlp6enpqampUVFRTk5OPB4P218o4sQCKx6PxydmTozP51tbW3t6eubm5q5du/b48eM3b9588+bNhw8fPn78+OHDhzdv3ly/fn3dunVtbW2ZmZkBAQF2dnZmROxmbW0dFhY2ffr00tLS+fPnz5w5Mzo6OjQ01NbW1tDQkIoxJhHDkDaHrHjS19fXJIvpqdeqEwMyBqa3trZ2dXUNCAgIDg6Oi4vLysoqLCwsLi7Ozc3F4eTz+aampjyyiRDbzXx8fFJTU+fPn9/a2trW1rZo0aIGYo2NjQsWLKiqqsKlSSEhIS7kLnLAD5QNDuRqcjw0KBxQFMnLy1OeR0tLS6jflZKSguANpw15FqSPItknwia6Y09Pz6lTp2ZkZKSkpKC1ExAQ4OXl5e7ubm1tbWBgoK6ujvWg4LCYxFRUVAAP0NCHh8HzwN1SeA3QiaMC9AxwjDQHklWHXJiKZiwdbEbUxEdA1wCEAPhXvAlEXHx3dI+o9yNvIBOJhmFZouwB666np2dmZmZvb+/m5ubu7u7s7GxqagpFopqamqGhoaura3h4eHR0dEpKSnp6emZmZlZWVnp6ekxMDFb1s9lsZG3Ecsw/2tjY2NraYg+Sl5eXp6cnlGgpKSnNzc1btmw5ceLEixcvvn379g+x79+/P3z4cNeuXRs3bpw9e3ZaWtrkyZM9PT0dyT3x7u7u+BkSEhKoQoA3fOEhICnQLYsoynV0dPCuDQwMkEnYbOFCNzB9SkpKcHTUbbjMxs7OLjg4OCsrq7Kycu7cudhwIxAI+Hy+iYkJj8ezJlfOoDdRUFDQ1NTUTqy5ubm8vHzatGnp6ekpKSlTp06NiIjw9fV1dnbmcrkaZLGsCjE8cKBWWVlZDC+CHYLvgl7U0dH5DW8ODxQlDmIVGB8sYoGyuKKiorOzc9u2bdu3b+/p6Vm7dm1bW1tDQ0NtbW1hYWF0dDRwD0YDKF5E10BBQQHxGAMIDCJ8lpcXjsoxyDYdBkO4AAr+NIE0tICYoY3CdDEYR7gvzgkEQKi3MEcKWAyiivJl+FIAtQj58FFgJAiJQJaBwYBzS0kJr38DpcXhcBwdHUNDQxMTE5OTk2NjYz08PJCL1dTU2Gy2QCCIiIiIjY3Nzs7Oz8/PysrKzMyMj48PCAjAZAuLxZowYQKqQFxlYGhoaG1tbWtr63RkP1QAACAASURBVOnpibvMQ0JCAgICfHx8Jk+enJOTU11dvWbNmosXLw4NDYFC+vTp040bN7q6ulDKZGZmAmFHR0eHh4dHEouIiAgMDHR2drawsODz+Rizc3Z2dnV1xTZsY2NjJCKKf4yNjU2IQaEGtnHixIlogqKOx4XpmpqaNjY24eHhOTk506dPz8nJmTx5spWVFXacYY7Nzc3N19c3LS2ttrZ2/fr127dv37Zt29q1a2tqatLT0+Pi4ujl4wKBwMrKCtWY1LDRzqiUlBQVNowYMQKKMQAbRUVFbW3t31CuIsoC46LQ0SHLLnk8nq+vb2Fh4bx583p7ey9fvvzo0aMXxDB6f+3aNYwvt7e3Z2VlxcfHm5ubT5w4EdkfAAXFjYmJiQW5eR5352qQzaRwXCUlJRUV4ZpUhHlER+pw+DDwITSftLW1cVLBfIEhhlxdh5ho6QbkPeF/XEOE0I6zTk8OWhIqRF0kJydHMQyLxXJwcIiLiysqKiolhs6WHbmVyNzc3NfXNzk5OTs7e+7cuTU1NeXl5aWlpUlJSV5eXlgGhWIfXRhZMtOrqalpZia8ANXFxcXX1zeAmI+Pj4AsY/Tx8ZkyZUpRUVFPT8/vv//+9evXL1++vHr16sSJEy0tLVVVVYmJidHR0VOnTk1NTc3Ozi4sLETpk5OTExsbi3sPHB0dHRwc4EwBAQH+/v6enp64rl5XVxePEQMRAELAD1A7ycvLiwoAx4wZA4iFJU6BZEY6ODjY0dGRri5lsVjGxsbu7u4BAQGFhYUrV67s6+s7Tezo0aMbNmyYNWtWdnZ2cHCwPbkRB6kA1ZikpCQtiiSIiYuLiw1vxwEVJiMjg3b3hAkTWCzWb2xyJR2Hw9HW1gYiRI4G6rW3t58yZUp9ff3y5cuPHz/+8OHDd+/eYQj2x48f379///jx47t37x4+fHjkyJGGhoZZs2Z5eXmpqqqOGzduDLmqBLtjeTyek5OTp6dnYGCgq6urEVEuo8cGbIrmhSj5z2AwAAbgu6gFIVgBeqOLsaTIZZqivqszrFdkkXkVJpOpSBbMS0pKQrszfvx44GmqSQACwZSBlpYWi8XCNTVwX1VVVWtr69jY2LKysjlz5tTW1paXl0+dOjUkJMSDLLkPDw/Pzc2dOXNmS0vL8uXLFyxY0NDQkJOT4+fnR6fEEHfHE6PT5yizXIlu3cPDw8XFxdLS0sTEBLOc8fHxy5cvv3r16rt3796+ffv06dMDBw5gv29YWJg/WaKamJiYm5s7e/bsurq6qqqq2bNn5+TkxMTE+Pv7+/r6enp6ent7+/v7BxLz8/NzcXHh8/noRCDT6hGdEypaaEUgaRg3vCl/xIgRYuTCU2lpaRUVFQMDA1tbW0diZmZmCENIrfr6+kDGpaWl69ev7+/vv3r16rVr1y5durR///6mpqby8vLIyEiATDaBKMrKylARUVIVIRgiwVGjRtFxEhwecPxCnkGPGO76gjOhxtfS0tLV1XVyckpKSlq8eHFnZ+fp06cfPXo0NDT05cuXHz9+/P333z9//vz27dvXr19RQ6xfv76trS0+Pt7AwEBGRgZtJBUVFUNDQxcXl8mTJyNOhIaG2tnZWVtbY8EJECoeIu0swImBd1FXoUBWVVVFYQEpGYRR8F1M6lPJDngJDtlupqenh1uDZGRkUDjKyMiAlNDQ0EDmAR3GYrH0yR2XxsbCOR8Vcln7xIkT1dXVLSwsIiIiiouLKyoqGhsb6+rqCgsLMzIyYmNjw8LCpk6dWlRUVFlZ2d7evmnTpnXr1nV2dlZVVcXHx9vb25uYmGhra2NBKipCNOgBz3g8HmpzPBZTU1P8DLg/uq6urr+//xmxu3fv7t69e86cOYWFhbjXKSAgIDw8PCkpaebMmbW1tXV1dTU1NWVlZRkZGVFRUREREQEBAd7e3j4+Pr7D5urqir3c6PSyiMqezWYDSCDngBNEHQ8lOCZDodXE/CaKMyxyRJLEjVcgJUpKSrq6uk6ePImZnxs3bvT397e3t9fW1iYkJNja2mI/ENgPIENaQON4S0tLI/SOIpMKVESFVo7wvgm0pHk8HrpBqqqqsrKykDVpa2s7OTmlp6cvX768u7v7zJkzd+7cefLkycuXL9++ffv161dsLvr58+ePHz/evn178eLFEydONDU1BQYGYsmUsrIyh8Nxd3dPS0srLy+fN29efX09dlFFRkY6OjoaGRkBWLPZwqksXTIiAQADVABKDnUYSkAkBzwsSbLBSUJCAhwfZJkI4To6OsbGxtbW1vZkvNvCwkJXVxelpGgRBg2KLjFcR+Pi4oIoFRAQgBAF8tLKysrPzy8zMzM/P7+pqamD2IoVK1paWiorK8vLy2tqapqbm3t6ek6fPn2JGCJNYmJiYGAg5aoYDCGyRwsGYEmTXEDCJl1lZAxwOBwOx87OLjMzc82aNcfJ4PiRI0c6OztnzpyZk5Pj7+9vY2NjScbN3d3do6OjZ8yYUVVVVVNTU1dXN2vWrKysrLS0NOxNAngQCAQuLi4CgcDc3NzIyEhXV5fFYmmQSR4tYurqwluYUHhgfIuiTxkRQ/kBch3ThHTyQFlZ2dzc3MnJafr06evWrTtx4sS1a9euX78+ODh44cKFnp6eVatWzZgxw9XVVWN4ESAd1qJ4QJ4YaF2472hiaGONGTNm9OjRsrKyv3E4HENDQ0tLSwsLCwQbSElUyXUGlpaWsbGxTU1NK1euPHTo0Pnz569cuXLz5s179+49f/4co0h//fXXELH79+8PDg5u27atqKjIy8vLgjTcAROxY7m7u7unp6e9vb2srKyoqCgqKsrFxQV/zdTU1MTEBHIQWibiySIiIjyj247ki0oCnTCEXjQa0I3T0dGxsrLCvapBQUFeXl7YP457JDHAjd4sngCXy8XMWXR0dGZmZl5eXkmJ8KLQzMzMtLS08PBwLHGKiYlJSEiYP3/+1q1bT548efbs2ePHj2/dunXlypUrVqzo7Ozcv3//rVu3Xr58+fr16wcPHvT19TU2NkJj4ODgYGhoiDoStAbah5B8KBGmHJQ5fBrb4/z9/QsLC1taWjDCiStYEhMTvby8eDweal8dHR0ej+fn55ecnJyZmVlcXIxbYxMTEwMCAmxtbU1MTLhcLpopZmZmaNYAemkMX/amqamppqamQGZnZGSE20GlpKREaR8wiWAz8fuAcCwWCxU5nj/WZiYnJy9btqyvr+/EiRMnT548ceLE0aNHt23b1tXVNX/+/IiICC6Xi0RE9yjjCeAHAPuEtQdw1hEjhAu3ASF++0248/w3pC1zc3N7e3s7OzvUjEB7WGXl5+dXWVm5YMGC7du39/f3nz59+uzZs3BiQBkcrJs3b16+fPnixYt79+5tampKTU2dPHmyr69vYGBgVlbWkiVL0FY5evTo9u3blyxZsnDhwuLiYkBGcG0CgcDMzEyPbDbGA9UmRpvvSO4QAFBxFjhjUA0IDRAGsdlsBweH4ODgiIiIqKiokJAQZ2dnHo9naGgIbkuJGGhBXTILYG5u7uXllZSUVFRUNGfOnNbW1rVr13Z2dq5Zs6a2tjY9PT0wMDAkJCQsLKyiomLPnj3379//888/nz9/fuvWrf7+/r6+vgMHDvT391+/fv3x48dPnz598ODBqVOn1qxZ09DQkJ2dDW9Daga5gWOmoqKiNryPED+VMtlGymQKOwhWVlYBAQEJCQkgjxMSEiZPnhwYGOjo6IhJcfRlsLvJ3t7eycnJ398feh0sxUexqE2084DyYN/Bw6BtCdYMbUuI+sWJ4fGC6kZIlpSUhGgd2BdgQ5soIZH61dXV9fT0QkNDa2trN2/evHXr1t7e3q6urg3D1tbWVlhYGBAQYG5ujp45Pi+AIqI+FRFAaT5mzJiRxEYRGzFihFDPAKKEz+c7Ojo6OTk5ODjweDx0EZWUlLS0tDw8PEpKSmpra7ds2XLs2LFTp04NDAzAg88MG/7vwMDAqVOn9uzZs2TJkry8vNjY2FBi2dnZS5cu3b59O07h3r17V61a1d7ePnfu3JycnPj4eLDonp6euBIHVSOdzKZhGHEC9xmJkxtGaVdFTk5OXl4eUBJHVldXVyAQTJ48OSoqKiYmZvLkya6urubDK5dBaNDuA8A9j8fz8vLCjozq6mpoZ/fs2bNr164VK1YUFhaGhoYGBweHhISUlZXt3bv3yZMn79+/f/fu3fPnz69evYqPPzAwcPny5Tt37ty9e/fWrVsnTpxYu3Ztc3Nzfn6+r68vPiBmhindo0Z0icxhqT6oD/ymtra2qamps7NzYGBgcHBweHh4aGior6+vl5eXra0tl8tlsVjwXXTsuFwuNjgJBAIHBweodoyMjEC8UB4JHx9MC5o4QA4Qi6GVNYYYxK4gE6nvom6TkpJSVlZms9kcjvDiRyaTCaeHutff33/OnDnr1q3bsGHD+vXrcVliR0fHunXrVq1aNXfu3ClTpiDrgpJTJwadFnhMJCUZsrMZ+hsA39Hk9nahfleTmLGxsZ2dnRMxGxsb3AcGVZ5AIJg+ffrcuXM3btx4/Pjxs8TOnDkzMDCARHDkyJEDBw7s3bt3586dO3bs6O7ubm5uLigoSExMjIiICA4OTkpKqq2t3bBhw44dO/r7+48cOdLT07N58+b29nZoUsvKygoKCuLi4lxdXU1NTTkcjjoZuwAIA+2FX5EQcBahiJUlfBPab4pkXBnBjMPhCASCkJCQiIiIyMjIwMBAJycnPp/P5XIxUoIgLSsri8EBdXV1Dofj4OAQERGRlZVVUlLS1ta2c+fOo0ePHj58eMuWLVVVVbiLPTQ0tLS0dNeuXY8ePXr37t3Hjx/fvn377Nmze/fu3bp168yZM4eIRHX37t07duzo6upqbm5GH8Hd3R0XwKCzDWCgqqoKZQ8tKwF5tcgSfTYZtQcH7O3tHUSMtkzREOZwODrDq8xZxPBv9Yjp6+tzOBwtIpkAGkR0RD2E5dIALShbcRLGjx8/mozfjRkzBs1YioMhIhAXFy6Uxx0QiOhU7cRgMJhMppubW1FRUVtb2/Lly9va2hobG5ubm1evXr2eCM9XrFgxa9as5OTksLAwdP7wRVRVVYGmqMQA/X/gQ7xxhC3hfcKAX2w229TUFMDf2tra0NAQCUVFRcXS0jI1NbWwsLCzs3NgYGBwcPD27dtACGfPnu3v7z927Ngeol1atWoVWu3l5eVpaWnR0dGBgYGYXsL4x6pVqyCHQ7zu7+8/ePAgfceNjY1JSUlYUwU5M96EpqYmdE+o5NTV1ameBhdG4KHrkhto8U9ANDo5OQUEBISEhAQHB3t6etrY2BgbG+vr6+MWYolhQz8cag0Oh4M7p6CeXrZs2VZiGzduhLAwKioqMjKysLBww4YNFy9evH///rNnz96+ffvx48c3b948ffr0yJEjixYtmj59el5e3rRp03JyclJTU+Pi4gICArDKDlkb+VGNGMpKC7KdzsrKik96VCbETE1Nrays3N3dw8LCIiMjk5KSUlNT4+PjY2NjQ0JCfMl9887Ozvb29qampqAysP9KSkoK+QeQFN8UPc5xhPkaTXZoI6wiwqmpqWlqCi9vww2po0ePBsQUExOTkpKSJQZhlhjZJo9V+qDGUJMAzkFnYm5unpiYWFNT00Ssrq5u0aJFmzdv3r17N1L37t2716xZ09LSMm3aNB8fHzPS2UZYoXGXQfpWODZIqmi+SkhITJo0SYgZUJizyDSsnp6eoaEh2GZkMWNj47CwsMTExMWLF58+ffr58+d//fXXq1evnj179uDBA/gxRqk6OztXrFgxb968tLS04OBgDw8POzs7LpdrYmISEBCQn59fU1PT19d3586d58+fv3jx4o8//nj27Nnjx48fPXo0ODi4b9++6urqqVOnBgQEmJCLfPFqAUmBqzAfAYEbIBGuK9LTE16obUJu0TAgZm5ujtXk6FQJBAIejwcKE8ssxhMDqYKHhaYartMxNzf38/NLS0urqKiYPXt2VVVVYWEhOuGhoaFoGnV1dSEwDw4Ovnjx4tGjR9evX1+zZk1CQoIlWRhqampqZ2dnb29va2vL5/M5HA7qIcS/SZMmgaeDfMzKysrW1tbOzg7sgbW1sOXm6Ojo7++fkpJSWVlZVVXV2tq6cuXKJUuWLFq0qLq6eubMmehUge2nfT70BYH7MRmhqakJ3kZOTm7s2LEjRoz47bffRpIxWwkJCTwELFXBS58wYQK9Nx39WGikwDACCiP0YuiNhsnx5PoSGRkZNpuNKrO2tra+vn7JkiXd3d0nTpy4fPny48ePX7169eTJkxs3bpw6dWrlypVZWVnOzs64DQlTYXi5DIZwxwX6VuhRg/KXlJQUzlpiRAkKFXRKseAEjBXURk5OTj4+PqWlpX19fS9evPj8+TPaPFCH/PXXX8+ePRscHEQQXbBgQWJiIqAMCiMmk2ljYxMXFzdz5sx9+/Y9f/78G7Efw/b9+/f3799fvny5tbUV0/omJibga/DTY0RCnxigFT4PEi6HwzEwMDAlZjxs5ubmjo6O7u7u6B1YW1tzuVw0k9TU1BjDpkpuRYY0CQsfKN3GZrNtbGx8ibgpLCwsODgY4g13d/egoCCUdJWVlU1NTZs2bYLwtKenp7i42MbGRl5eHmcDfWwaaxWJFnHi8PVHKDEZDIa2tjaXywVjamZmZkruU7C1tXVzc4uLi6uuru7t7d29e/elS5du3Lhx+fLlS5cuHT9+HFXvnDlzMjMzcUEkWG1dsnyJoizIqhBQseFYTEwo2h41ahSqLkRoPEz85f8UFWgLS4mYJDG6KXkcuf8GTJmkpKSUlJSioqKlpWVMTMzMmTPLyspaW1t37tx55cqVe/fuYTX8p0+fQMXs2bOnoqLC19fXw8MDe6Tl5ORwnBhkfANQmMlkUimchISEcA8knfRCb0NGRgakLJ+YmZkZh8wmmJubT5kypaOj486dO9jr/evXL/Qm0J549+7d7du3r169umHDhpycHHd3dwsLC1QJOjo6uJVg5syZfX19L1++/Pvvv3/9+vWPiH3+/Pny5cvNzc2JiYk+Pj5aWlogwmRlZVVUVPT09ExMTExNTblcLpvNZrFYTCYT5QV4EnSGOGRwDTiPy+VaWFggkllZWZmYmOjp6VGhCS2PdHR08PsaGhoMBgMXVOGNKioq6urq8ojUy8LCwtTUFKJb3NgBGjg0NDQhIaG4uBhNgVmzZoWHh3M4HBDPkDiD9lJWFl4WC/QGdh3aKBwVJSUljWGuikVMX18f6p/4+PglS5acPn0a3TVEjc+fPw8NDT148ODYsWNY7hseHg6hAkQzTk5OdnZ2tra2oO1FqzRMsFHlNHAXg8FQV1dHeAYPM2G4iw6PlZaWphUCZdCgN8AZAEoBKQsYhtsooqKiIM5cs2YNVusNDg4+fPjw0aNHd+7cuXjx4qZNm4qLiz09PV1dXfX09BQVFeG7VOMKXADfBYMmjjlh+K6ampqo7+rr61sQ4/F4HHJJtJmZWWRk5MqVKzFrD2XT33///Z3Yjx8/Pn36dP/+/Zs3b27atCkvL8/Dw8PCwoLL5cK3wPKWlJQcOHDg/8l3L1261NTUlJCQ4OXlxWKxMOkhIyNDL9YyI5ecwXeBcSkO1iUjgcgVpM+ga2RkZG5ubm1tjRSMoAvf1SC7oTSIoUxGGc5gMLB9A3U0g8FAGWBqampmZmZkZAQm2MjICCMDII+jo6Pz8/Pnzp07e/bs4uLikJAQXV1d+O6YMWNkZGQoNpg0aRIOJCT5CGbIuXAdfCgmMRxXOzu7+Pj4pUuXYindp0+f0An68ePHx48fnz59OjAwsHPnzoULF0ZFRZmYmOjq6mJa09XVFVSDsbExtGNUlYpqAb1xcXFxtMpQYP3Hd+Gj0sP2/+67kpLCGTDqu7Kyskwm09raOjQ0NCoqqrS0dOXKlQcPHjx16tS1a9fu3bsHbzl37lx3d3dhYaEH6Yfr6ur+H31XXl7+X981NjY2NDSECENdXR03cNva2rq7u+MydUjrdXV1PT096+rqzp0798cff3z69AlB8yexX79+/fjx4/nz5w8ePNi7d++sWbOCg4MFAgGknB4eHtHR0dOnT6+rqzt27NjLly8BFkSj78ePH0+dOlVRUREYGGhjY6OgoICmw/jx4zU0NHg8ni0xMzMzdINYRKiAXAyIRlsYOKZaWlrAEgYGBgCa+GsI2PASFPj6REiuq6uLTg84eVlZWdELvYyMjFgsljK5bFldXR2iUB6RqwoEAj8/v0hikydPdnZ25nA4KJbxEZD+wH5Q34U/jCcD0oBqqEsoeYe+ibGxcUhISFNT0/nz5wcHB+k87T///INn/vLlyzt37uzfv7+kpMTZ2dmECBFdXFyCgoJ8fX29yRw8PhpCL+Sj8DCoO3DVFISOoCNEs7McMRRq+G/QFFJEZEcxMaUj8MHRk0N3ls/nW1lZhYWFFRYWLl68ePXq1b29vXv37t21a9eWLVs6OjrAl1lbW0OkhXY0viOkNUpKSsrEwCPJy8tLSEgIZ35cXV1dXFxcXYUCOVC8kJD6+fn5+PjY29sbGhqiR+Dg4FBUVLR79+5r1649e/aMht6fP39+/fr11atXV68KZ+g2b948a9asyMhIX19fH3KVSFZWVkVFRXNz85o1a86cOfPnn39+Jvbt27e///4bZ+DDhw9Hjx6dMWOGm5ubmZkZYBmat7q6upiagq6Pw+Gg34bwCXk7gjT+PqCsCpmtByxmkDYscjdUcurDhiERhGr0qNSIaWhocLlcgUDgTQyrstTV1VWJsYbrWggPzM3NUVcJiFlaWuqRraMgSqlwGdwCfjxUaXglDKIInUQMORE9cGVlZRaLZW9vP2PGDBSFuAOL5jrcI/Thw4fBwcH29vYpU6a4EvP19Q0PDw8MDETfGLoRdXV1dEBoNwvJQVJSEucKGAzPFnKRiRMnIpTKysoCmsOlpKWlJSQkxpExsDFjxtCt63j+KKcgHQEEVVVVNTU19fPzy8rKKioqqqmpWbhwYUNDw+zZswsLC2NiYpycnBBBVFRUUAzIEEPFNpHYhGEDQBDqGdLS0lJTU9OJIjg5OTkpKQkspjtRWENEAr7QysoqPj4eq9mPHDny9OlThIG///57aGjo0qVLmzZt6ujoqKmpmTZtGlSkwcHBiYmJs2bNgppn69atly9ffvny5QdiuMvpH2Lw3aKiIm9vb2tra4z+AZVyuVy0iyA/RSNeW1ubXh+E5yguLg7IhTcBf0XWQ/UA/KRIVkNTL8S3AA2HhAtQC2kiZC5JSUlRUVHu7u58Pt/Q0NCAbKNBTYMGCmCVhYWFjY2Nu7u7t7c3AoGRkZG6ujo9S8gV+FWHSExBYFMpPf7mxIkTJ0yYgMaBoqIih8MJDQ1taGhoa2s7efLkrVu37t+///vvvz958uSvv/568+bNy5cvb9y4sX79+vz8/IiIiHBiUVFRAQEBfn5+CGbQl9Kvj7goISEBt4O+lMlkAlOBNkXnD74rCh4o1QC2FTo7yFBlZGTkSJNI9F/hd1gsFiY7EhISCgoKKioqiouLs7Kypk6d6uPjY25ujhcKzgBHZTwxnBn8AOPHj6d/pKKi8ltzc/PChQuXLFnS0tLS0NAwb9683NxcCIr5fD4SJbCEkZGRk5NTdHR0Tk5OTU3Nvn37nj179uXLl0+fPj1+/Hjfvn2NjY3z5s3Ly8tLT09PSEiYMmVKTExMUlJSSUlJc3NzR0cHfPePP/54R+zjx4+4yOnXr19v3749evRoRUVFJBlgAuvOJcYjU1DWxCwtLc3Nzc3MzEzIxY5gNPGk0HynunXKaYPGlZKSgj6OwWBAqoH4SnlWVCq4EwXi/8mTJ2dlZZUTgzwgLCwMVIOVlRW2STOZTE1NTV1dXciu7ezs/P39o6OjQQN7eXlhOT0iOoowYHR9YmgZqqio0HoOyEeFCIgZDOHF81C3YCKjsbGxo6Ojp6dn69ate/fuPT4s0Nm2bRtadwkJCXFxcTExMREREfhRTUxMIB2msZOe53FEpzpu3Dh5MgSAwSq4LxSFSAIUJOBJ0iJPXFxcUlIS/oTqStTb8DVxKtDzgxY8LCwsNTU1Pz8/Nzc3JSUFt7nz+Xx8XyUlJVHUAfwGfELfI/6vMO4uWrRoyZIly5YtW7p0aXNz8/z58/Py8kJDQ0GSU5DHZDINDAwcHBzCw8PT09PnzJmzc+fOR48effz48f37948ePdq7dy/13YyMjMTExPj4+Li4OLRYm5qa1qxZ09vbe+nSJVwlgo7U9+/f/yY2NDR09OjRysrK6OhoPz8/S0tL42GD71oRg+/y+XwzMzNjY2M2m41ODOoPGRkZRCw8dFlZWXxOGneh2f2fvos5E01NTcz2wHdDQ0OnTZs2i9jMmTMzMjIAhLy8vGxsbCh0gQqM+m5AQEAMsejoaF9fXxsbG0NDQ1AZ8F004TlEnIlmEigIoDpgEoouFBQUlJSUzMzMwsLC4uPjq6ur29vbu7q6Nm7cuH379oMHDx46dGj//v2bNm3CdSx45tHRwjEKT09PTCnDd5GF4cHS0tIAu2PI9c7/q+9SBZ+o7wIn0P4W1A5yxGRlZanvQpSDlgeCPYvF4vF4GAlJTk7Ozc3Nzs5OTk6eMmWKl5cX9V3aE0ZmEPVd0DLUj4V7IHt6evbu3dvf33/06NHdu3d3dXXNmzcvOjraxsbGwsICa62UCT8MYZ6+vr65ubm3t3dpaenOnTuvDiuLt23b1tTUNH/+/NLS0lmzZlVUVJSXlxcVFeXk5ECbt2zZsq6urrNnz9Jkh0VU379///r164sXLw4dOlRfX5+dnZ2QkIAd35ZE3QZyyogYj8dD79rZ2Rk0EI/HA7iE1hbvhr4nPFakLcwXKZHNfHAjIGZ0EKl0C17o5OQUExNTWFhYW1tbVydclzR37tzi4uKMjIzUMivsAgAAIABJREFU1NSQkBA7OzuosdjEDAwM+Hy+ra1tUFAQxFxZWVkJCQlBQUECMtkCqhvVHrIzukJQYKEvjYWT4Pg0yYqqSZMmYViAzWYbGRm5u7vHxMRkZ2dD5jZ79uyKiorS0tLp06enpaXFx8cj3oeGhgYEBDgRdQpapGgZ4AxLE5MkcwrADPLy8lh6AjyjSTZTIRuIRgFEXOgc0JgAFwaQQ+s/aPpwHSytLrBEB3WLn59fREREdHQ0WHNXV1cej4djTOW8+Go09EhISIgTgwxSTExM2BPesGHD4cOHb926de/evStXrhw/fry9vR07raC9gtbTUMRwYUZQUFBxcXF7e3tHR8fu3bt37dq1fv36jo6OpUuXIpAvX758yZIljY2NNTU1LS0tnZ2dvb2958+ff/ToEcST8N3Pnz9/+PDh8ePH/f39UGyVlpbGxMQIBAJjY2PQk2pqaqgkTExMBAKBl5eXLzGsjkOJCnpFmgiWodFRUFBAiGUymQC4QLda5M4pNtHLotEF98WSFCaTyeFw+Hy+n59fSkpKSUlJWVlZVVVVdXX1vHnzMMyTnp4eEhICpzQ1NTUgs4omJibm5uaenp4xMTHJycJh94SEBIgn0anR1NQEDED4B907YcIEVCSQ1YPWNSWiDk2ynFlGRqjix8IeRUVFAwMDR0dHsMvBwcEBAQG+vr4+Pj5+fn5BQUGhxIKDg729ve1Ii87Q0FBdXZ0mYhxjxEgpKSk6RQIxPigaVHXIBvBdKojB9QtgFWjQlSeGLEdJaxkZGUAFHWKiTRNjY2Nzc3MbMmdqY2ODKgLQX11dHZAXzR24LJXtiomJQWUxYgTRkc2dO3ft2rXnz5+H7uncuXO9vb0LFy6srKycNWtWQUFBampqTEwMDnRMTEx0dDQUNr6+vqGhoRh06ejoOHToEGQr0BdDdbFly5adO3fiSu8jR46cOnXq9u3bz549e/369V9//fXp06dv3759+vTp3bt3z549u379+uHDhzdt2tTa2pqeno7V3iCeIbjBtImdnZ2rq6ubmxvlRmxtba2trY2NjZlMppycHA4r9r1RRtaALIpDjEQjA+GNzWZDnoa2E4M00BH/eDweJm8jIyNTUlJyc3OLioqKiWVnZ2MmzNXV1c7OzpRMOuiRC9gsLCycnZ29vYWjCn7EwFW5uLjweDwtLS201lCGSxEbP348NnxB2GBlZWVubg5qEuMekpKSo4gh3mCzCdhrW1thGxkdxODg4OjoaLwsf39/e9KLRsMCGUaFDAWqkHt+UA8A8uJsyMjIIDVR3gM8Axwdhd2YMWPExMSAdFFgQGCA5I5YLkEMLQ+wkHpkwyT8ctKkScAStGgWpXqwV0pRUZEOboiLi4sRG0WGf0YS+1e/O3Xq1NmzZ/f09Jw4ceL06dPoNHZ0dLQRW7p06cKFC+vq6ubPnz9v3rxa0pvGVElSUlJ4eHhaWlpeXt6aNWvQ+Lly5cqePXsgHero6Ni5c+fZs2evXLly/fr127dv379///nz569fv377VrhJGL3lT58+YR02GssnT57s7e2dPn26tbU1ohR8EVQfRNYWFhao2Ljcf/XUPHLtjL6+PggKZbKcAR1BMzMzHpnz5nK5BsQooatL5DtsNhskIDTUSsTQyzU2NgZF7eXlFUpusUxKSkpOTsYQube3t6urq729PbqPiBxsNtvAwMCEdAEtLS2dnJx8fYUi5qCgIE9PTz6fj2iK/DCOGO5ZYjKZ6AxbW1tbWlpyuVxImYFWka+xS1lJSQm78zHWBhDl4+MTFRWVmpoK4igiIgLtCT6fDwUSkBV+SFBgEyZMkJCQQCQbPXr0uHHjpKWlZYnJEQMAo11AoAVAZAAD+kfwfmAS6sEYLUa8gOwT0RRiILRFsNwIcjljYigk4OiysrKSksL9IWJiYqNGjRpB5OcjR47813cjIyOnT5++YsWKXbt29fX17d27d8uWLWvWrFlObMWKFatWrWpra1uyZAkYiaXE6uvrCwoKkpKSALzWrVt3jixLu3r16q5duyAtx3a3CxcuAJA8evQI80JDQ0Pv37//8OEDfPfz588fP34cGhrCVTBQr5eVlTk6OqJkkZOTQ3cKemIjIyNjgiUgrKEqHMivOERLyiYTREZGRmiJmRGFAHxXn2gCARhQ5oOuwu8gPtHSDSjWwsICQCU4ODgyMjIqKio8PNzf3x/OYWtrC2Uja9i0tbUR2k1NTR0dHQMCAkJDQyMjI4ODgx0cHPBuZGVlkV4lJCQQd1HmGxkZwXeNjY05HA7iEPRZYFXRaIS+29TU1MbGxpHsavb3958yZUpGRkZWVlZmZmZ0dDRYTgsLCxMiUcKJRQbHCVdQUJCUlITvYhCXhlKZYUNYpYUd2FwJCQmAZvxIyOni4uLgy+C7UDgoKytrETEnxOlozYj6Lnr+AGl8Ymj7a2lpoQqXlpZGckDcxa//YgYnJydvb++kpKSysrK6urrm5ubW1lZcTbhq1aotW7YcOnTo4MGD+/fv37x5c1dX17Zt2/bs2QN0u4gYdK6XLl26cuUK2tNz5swpLy+vq6vr7u6+ceMG4MHnz5+/fPmCS6K/ihjugfn+/fuPHz8+f/786tWrGzduLFu2LCoqytzcHOvokNbR1aR6IkQIXIyjr69vb2/v4+MTFBQUHByMIAev4nK5FKvj/aFIUiEGagzpHufeyMhIX19fV1c4Ag7iBuwvemlmZCqdzxeugTEZNiyeUR3e8I5GGuaw7e3to6Oj09PTi4uLS0pKEhMTPTw8bG1tWSzhfeqg25GpUcBxuVxbYmZkMgcnTU9Pj3ZPcCzBKFtaWrq4uHh5efn7+4eFhSUkJOTk5OTl5eXn56O17ubmBt81MjICM80hkg90iXEZ6hiymRiSSJRuFLNKDhtl0NEppGyuFFmhMIqYmJgYIjd8l6qrUegjKKArPn78eMRplHrq6urQ17u4uLi5uTk6OiKpQsYNBklCQgJgF7+OHDlSRkbmNycnJ2hW/P394+LiMjMzZ8+e3dTU1NoqXB21cePGAwcO9PX17dmzp7Ozc8mSJaBp+/r6+vv7Dx8+vJvYvn37IKTat2/f0qVL8/Pz8/Ly5syZ09nZefPmzY8fP/4SMXTkv3//Dq/9+fMn7a6hz/nq1atDhw7V1NSkpqYmJyeDqsS4jpKSEuQyYmJiKMgYDIY+uZ4O+yxmEtVSWVlZSkqKp6cnBBVMYixiCDkIAEB4yL/QP9jb2zs4ONjZ2VlbW0O+gzoPwjy0uxQVFdG0g7cheFMwh7IGzV5MneTm5s6dO7e1tRWVaGZmZmxsrIODg5GREYI9Toju8NyRs7Ozi4uLra0toJGNjY2bm1sgmZtA6wGH099fONiDgj06OhoJIS4uLiEhYerUqaGhoQKBAGQIBUWARvimmkSqO3HiRElJSZTw+BUwRkJCYthvJQEP4K+UzQWhi0uvRo4cOWLECERu/CsJCYkxY8ZAPCkrKwtggHIZTAIwNKg0dXV1Ho/n4eGBQ4g5JRsbG1OyvZ3BYKAKxDVK4uLiaEQLZy3pogd7e3tfX9/IyMj8/Px58+Y1NjYuWLBg6dKla9asWbFixbJly6qrq4uLi6urq5ctW9bb23vu3LkrV66cIDN0W7du3bBhA/7arFmz0tPTZ8yYgX3tt2/f/vz5M3Xdv8lkPLqaiLVEECH8Bd785cuXN2/eoEu3ePHiRYsWYe8Olhfp6emBPQEFo6WlZWhoaGNjA+J5xowZ9fX1jcQKCgr8/f0NDQ2xsBsUpgIx1HN4STIyMkpKSrpkaZyVlZWbm5s3MQ8PDwcHBzMzMx0dHS0tLQaDAaekBBCYV6ALRNxJxMAbMEjNx+Vyg4ODy8vLW1paNmzYsH379tWrV8+bN2/mzJkxMTGenp52dna2tsIlitAhQOLj4yOcR3d3d3d1dfX09IyMjCwoKKitrW1sbFy2bNny5csXLVrU0tJSU1Mzb9480GTFxcV0v5O7u7tAILCxsUECwfZLfHDMOCHVgAijnkGKxn9/oXgA/4Getry8PL6IgoICaji8CHFxcYqYadgWFxdHVYf4guWt6ONA7gPyWJ6YkpISWgcCgcCDKHJsyPyzkZERFCZA1UAm48aNw3cU+m5sbCxmChwdHb29vUHIV1RUzCeGR1ZTU1NdXY3VmaWlpU1NTV1dXefOnbt58+apU6eOHj3a3d3d1tZWX18/f/78nJyclJSUsrKyxYsX79ix4/fff//y5QsaEHBcLCWhjov/++XLFwzPvHnz5o8//rh8+fKuXbu6iHV0dDQ1NaWnp8fExFhaWgIEs1gsPT09Pp9vZ2fn4uLi7u4eFRWFA9NArKCgICAgAKzqhAkT4HNAcbTCACajvmttbe3h4eFP1nD4+fm5urpSZYKSkhLqBsQVcK6ghFG2M/7vBrKJx+NhMHPhwoUbNghHntatW9fY2Dh37tyMjIywsDAPstEWIdaarGh2JSvrwHz5+fmFhobm5OS0tLT09PRs37796NGjx48fP3DgwP79+7dt29bd3Y3I0tLSUlxcHBYWZmdnh+XVWEmBGTIUu7TviBW80JFCtEV9dBjl/vu/yB6ysrLoVioOG7TtcnJydBASVADQMJyMuhq+CHRqKC0wFEN7H5MmTdLW1jY3N7ewsLAn3AggmZ6eHupUKSkpsByA1OPGjft3xj0lJSU8PBwcIXIQwBl6oWVlZfgPNBog9sM+6wsXLty8eXNgYODYsWPd3d2tra2IBLm5udnZ2fX19evWrTty5MizZ8++fv1KgysUZPgVaOHbt2+fP3/GwAxGvq5cuXLo0KGurq7Ozs61a9euX7++ra0N7W9PT09jInzjkwtsXV1d3d3dPcnql7CwsIyMjJKSklJi9ApIFouF1VqUmae0jrS0NG7+QFPX0tLSzc0Nvuvv7w9gamRkhDWBEydOBMMvJSVFfVeZGPwWBAXgHZPJ1NDQMDMzCwwMnD59Oi766+joaG1traqqQmpC68vd3d3GxgaEF+g/P2L+/v5YulhZWdnd3T0wMHDu3Lnbt2/fvXv35s2b169fP3/+/MmTJw8ePLh3797Nmzc3NTUlJSU5ksXrAPRKSkqKZBsQ8iyu6ELVi6MFDb5oPkF+lyMG/8XvAJHjw9J6g/bb8PURaMXIOBCcGOAYjDJ0agDremQUHOCNQXRI6urqBgYGhoaGZqSqNhiW/ikqKuLHA+AGkgE3Ioy7M4jl5eUlJyfHxAh53KioqISEhKSkpMTExISEhMTExLy8vMLCwqqqKrR2t27deuTIEYhCLl26dPbs2T179qxfv37x4sWYK6ytre3p6cH62A8fPsBTvxFDuEUYBpDApNfg4OCBAwe6u7tBa9TW1lZWVtbU1NTX168gVltbO3v27JSUFKC9sLCwqKiomJiY0NBQPz8/X2KBZElWCDGQ8/r6+qBUURHDfRFIFBQUkEPpnIiZmZmDg4Pn8C5YLy8vJycnS9LbA/uGbcSYfpGXl6ehFgpd4Adga/zKIdNv0KdnZWVNny4cYktPT09OTo6Ojg4ICBAIBBjM5nKF873mZPGyM9l75+fnFx4enpGR0dbWdu7cuaGhIUj+0Yb8+vUrePGXL18+e/bs7t27x44dq6urCw4OdnV1VVFRkZGRQcDDmx5JDEQY4BY8m+rQQdnKygonTycSMRAIMhkZGehAQMypEVNWFuroUXgBjIIKGD169MiRI1H2iRNpFP2CCPbwXUNidAIUXw0nH2Ms6upCyZuSkhL070gLEOUgfIiJiQl9t7Kysrm5GUln6tSpSGR0JDUsLCw2Nra4uBg7tXfu3Nnf33/hwoXBwcHnz5//8ccf9+7du3379rlz544dOwZRJubprl69+vTp07dv3wIS4AYiLDL7+fMnvJYqUB8+fHjw4MEFCxaA84+IiPDz8wNhGRsbO2PGjMrKSjS0AEhSUlLAYsbHx4eGhnp7e8PPrK2toU/ncrmIl2w2G81VrKLB5584caISuX1JddiYTCZACI/Hs7e3h/e4u7u7ubkJBAJHR0cLCwsOh6OkpIRnh4IarVQ0yZSVldWJMZlM6MIUFRXp5nsrKysHBwcnJydHR0cHBwdkRixWMjAwAIvCYrG0tLT0yB0WPB7P2dk5ICAAY4Lnz5+nN5v+I2K/fglHV3BV759//rlv376ZM2cmJyfr6+vLyMgAvdKyadSoUSieUN0Da4JmRrAEgoLvIqaOJ4aKisFgwHE1NDSAN5hM4RAOzjNorxEjRmAMbtSoUVjBBMoFWBmUORancokZGBjo6emJjm3je02aNAlnA6dowoQJCPyomGVkZP713dra2s7Ozq6ururq6tTUVNSnHh4eUVFRU6ZM+b9oe+/wqMvs/5tU0iC9zCSZTGYmk8mESa+QCgkJvaOUhN5EFERUygpSBBVYREEFFduCFAtNBRQRFlBAKbqAqLCrWFBRERF3bc8158Wc57Nx9/p+f8/1e84fMYZk5jP3fe5z3ud9ys2U4HvuuWfZsmUbNmx47bXXjhw5cvLkyXPnzn0lcvbs2Q8++ODo0aPHjh07efLkqVOnTsttb998882PP/74r3/9S2eWGWixn34UuXz58sWLF0+fPv3222//5S9/ufnmmxsaGuDSCd5zcnLy8/M7deqkGaPm5ubhw4ePEGmWQWA9evQANTL2y2azmc1mk1QrkxC2Wq0WiwVUSjiVJPOok0VMJhPmMykpyWKxZGZm5klqt7S0FM6/kwizEy0WCyBPTW98fLzmh9Ik88wYbcweNZlaw4At4dnQA7wwZBnKBLK0Wq15eXlUpd1+++3r168/fvz4qVOnvvnmG2P5uaoxVuCDDz546qmnFi9eXF9fbzab9RnCwsIIccCLPDzGDBwJNg0LC0N1CDep18FNA65YN6vV6nQ6M0XS09NpNuEapVYi/v7+6C5vpKCZFD00dqZ01JEuIWV9LU4UPIayslm6O2YZExojUziCg4Ojo6NbLV68+Nlnn33++efvvffeCRMmXHfddfDwI0eOHDt27PTp0+fOnbts2bIVK1Zs2LDh1Vdfpfnk7NmzX3311ZdffglCffvtt0+cOHHu3LmPP/6YRmJV3Ba6e/XqVRJp33//PU2ax44d279//2OPPTZ27Niqqiq3201lo7ZwFRQUkJ2C5AcqDB06dNCgQTrJtb6+HvXiEMfFxaFVFDCgVbABqA5Kg7fC0jC91G63kxWjJ6Kqqgrdra6uzs/Pt1qtrJ3GPYmJicnJyYoTKB2MiYlRfp68A4ZEiTmNfojcMXJaMwX1kZWVVVxcXF9fP3HixEceeeSNN9546623KDr97bd/a/VTDf70009ffPHFRx55pFevXqTHo6KijNlaACjAiQAuNDS0RVEYR4g/ROn5K+4WAbZC57FTSUlJyvKiuxh4nb2nHj82Npbolgyi0+mEw0lJSSGYRn0pBoyLi1PdxYOxWf+mu8uXL6cYdOXKlbfddtuYMWP69u07YsQIMsBrRB566KGVK1dSCLZ7925SZZ9//vmnn3568uTJEydOHDhw4J133jl//vyXX375ww8/XL16FVwL0oX8oknw0qVLFy5cOHfu3EcfffTuu+8eOnSIkJkuy8rKShAqNwXhlOliz8/Ph1WAxurevXu3bt0aGxsbRCCGCgoKKADAkuHmrFYryQVYodTUVFbByPVw0DktGdJ9SeNxqVwciYvPzc21Wq28Mq4QCJieno6XwJPCprHrYWFhOnaOsiyWnuIb9gbU2CIiYcJpZmZmUVFR7969p06d+sADD6xevXr37t3nzp374YcfuJBMtZZvLl269Ne//vX5558fM2ZMTk5OYmIi8aWeCpSDcxXmEw1hgbYaqEVERIQImUrgFR4erkwt2AbASoMqnKufiOJd7C5vSraZClUlyPGQ8fHx0dHRkSIsLKZHkQMnHGIOZ9K6devY2NhWDz/88Pbt2/ft27dp06bly5fPmzdv2rRp99xzz7Zt23bs2HHs2LF9+/Y9/vjjy5cvv+uuu5YuXbply5Y333yTiQTnz58/efLku+++e/DgwePHjzMfEvZAWwI1E3H16tXLly9/9tln1Nzs2rVr/fr1a9asWSklE7Nnzx4xYgQdV5mZmXFxcUCo4OBgEt8cxLS0NKY1lpWVkQ6tr69vaGhAd5mjj3pxytMNzTmkWCknoG8Evp2oCwQMP6DQkxAKDJ2RkQG8i42NjYmJSUhIwP2R4qIeUmvh2QnGqmKlPJLZIl3n8El6erpVxtUDxzUBS4kW49ELCgo6duwIBTRz5swNGza8++67H3744Xfffac5HXT3X//61/vvv3/w4MG5c+fW19fzysqNAF7hB316GwZngq0leAViKncbJKVbRGDsBRVnFovFarWmpqZqdiNYkhEBAd6+eTgNlpcPpZCgBVnJuWKwrjJxgF2+UjNEdyoAJkzqIb39aitWrNi8efPBgwdff/31zZs3r1u37vHHH3/++edPnDhx6tSpCxcunDp1at26dQ899NCdd965dOnSHTt2HD9+/O9///vXX3/95Zdf/uMf/zgnl3N/9NFHFy9e/P777//lEyacEpb9+uuv//znPy9fvnzu3Ll9+/Y9/fTTa9asWSTzwWfMmDF9+vTJkycPHz6cC4/y8vLMZnNYWFiATwIDA1mRtm3bMq+dXBqXNXTq1Kljx470MsAK4XdSUlJoA/Z4PDmSGYadIRcKyKPT0Gq1OhwOXJhFJC3N2wBDRsput9O6oxEM7UMgv3bt2hUWFlJNoS346SKZmZlwF2Rue/Xq1bt37549e/bo0YM6nvZyDRvDIZOlV4IKQBhNLcWCFnW73Z06dZo0adLq1aufeeaZAwcOMBDtypUrxA+XLl3i6rIlS5b06dOHWgjMJyaQE6VmGFtIkkVjzZSUFGIDbDahHpkzzCpjcmKk1QKTCTKGaiDsAzAYDTllCeTG2Er9HtsUL7RPsqHLkFAEK0NOmMPDH3p1d968eatXr965c6cOmty1a9eePXuYmQr/smPHjueff3716tUbN248evToxx9//PXXX1++fPn777//7rvvKKO5ePHiDz/8cOXKFZ/q/ouU788//4z6MiT93Llze/bs4Z7RWbNmTZ48eZLIhAnXbiLo3LlzRUUFlyCTsGnVqpWfFBARAeBPuXIHUql9+/ZlZWXt2rVLSUmJjIwMFWnbti21O5g9KEOn01vxmJSURA1KYGBgRERESkpKltx4Q5KWwI44Dw7SZDLBJfHKkAyxsbFU3NKMXlRUVCxSJALT3qFDh7q6ut69ezNcesqUKdNF7rjjjqlTpzIatX///jU1NXl5eTyb1WpVbghrlJSURPmyzWbLzc2tq6sbJt0oCxYs2LBhw/79+995550TIocPH4br/dOf/sScgOTkZBAt1TPQLGgwigXKt4lo/OSSkkUm9+MQSGVBtAUEBDADAOcQFRWlQaFW9yqXDBiD6goJ8VYzBooEGUT9Kg1OcD+pvsGYCQkJLWp5MfDeWG327NkPPfTQyy+/vH//fsbjvf7663v37n333XdPnjx5/vz5Dz744NVXX92yZcuTTz65efNmmoS/+eYbbk1iEOI333zz7bffYgBAumDcf/7zny10l+n+q1evXrly5cyZM2+66aaJIuPGjWtubqaGpqqqyuVyxcTEqO7CvPj7+zOtA7aFvFqHDh3KyspKSkrcbjf3JoeIYKFpyMmSBpssKTFT3cWmR0REcPdWjgiXQXP6LSJJSUkkTjW1A3OJ7lKfmpubW1RUVOKT0tLScpGqqqqGhoZ+/foNGjRozJgxt9122+zZs+fMmTN79uwZM2bcdNNNRJydOnUqKCgATtBkpYweeCZFroC12Wwej6eqqmrAgAFDhgyZPn36E088wcSDwyJ//etfN2/evHbt2unTpzc0NKB8/013QZYJCQkpcg2gw+HIkvFCbpHMzEy4xYSEhOjoaFJZ6K6/TIKiXofyBtQXA692F9YC3cWE/0fdNWJCdDdZJrrCw6SkpCT6BrKES90FRjcgIMDL7w4aNGjSpEkPPvjgtm3b9u7du1/k9ddfJ/145MiR995777gUiB06dOjkyZNffPHF999//+OPP5JrMH7VNC/FCQBc1Pqbb765KFPMzp07d/DgwWeeeWbNmjXM5h4rMnr06OHDhw8aNKifjIgrKyuzWCysu5+fH8RkaGgoYXuKzE7MyMjwSJUjVC6X74GSAwMDw8LCGI8HMsO0pKenWyyW+Pj4kJAQdiIiIsJisfA6lDISzKG+eklRmzZtdBZBQEAAVCje1mKx6JPATlRUVNSKdO7cmSshRowYMWXKlEWLFj300EOPipCGxO306dOH2ZskS5NFNKCMj4+3WCzt5FK3kpIS7DptzMOGDZs1a9aiRYuWiixcuHDGjBlTp04dMGBAYWFhksyPAh0q1YXpRXFjY2NJ1bpcLmqd9cULZJaK0+nkAERHR3N0NXkWEhLCIgAeQKXU2kJc0Nwa5xPNHgeL8Dv4sTC5VA9vwCOx+GkisEMcIQUe12og3W53WVnZyJEjly5dSonj9u3bN27c+JQI6bGzZ8+eP3/+q6++QmtVR1tUJmjRwq+//vrTTz99//33X3zxBfQtI3sPHz587NixAwcOkO+dNWvWmDFjhg0b1uwTEntM6MjMzIyMjGzTpk1wcHB4eDghKqE91IHdbgcI2u12zJUusfosItZEqYwhcwMPEBQUBA4JDw9XzABaJbNA6GaxWIiFmWdB3gjDE+YbQcdFAVarlYfxeDzkq+nN6tat2/XXXz9s2LApU6YsXrz4iSeeWL9+/YYNG5599tlVq1bNlm6zwYMHV1ZWMgAlJSWFwnk+FFVXVAkWFxdXVVWVyOUDDrnpiMrPztJV39jY2KlTp5qaGmZC2my2hIQE7Dd0GHyC6i7qmyijnNBdZk62l1acsrIyCvcyZa6/MTeL2vFqpOhwTYqP+adSRQBNAAAgAElEQVSoqCggbKwIwZaCLs4SDwYnoy+rZBz8pkVybFp9Fh4eHhoa6ufn5517zh4UFhYOHz585syZd99995///OdFixbNnDlz1qxZ99xzz/PPP3/mzJnPP//8559//v333zX2gri9KvLPf/7zF5+g0D/88MPFixf//ve/v/HGG08//fSf//znpUuXPvjgg2vXrn3uueceeeSRFStWTJ06tamp6brrrhs4cGD//v379evXu3fvHj160IjrcDhiYmKio6Np+EFfM0RsNpvVak1LSwMVgZDMZjPYiBMMJR5tEF4NQKzBR1hYWGJios1m45UxMxCKFovFZrPZ7XalJsIMXQZUSIEa4fLYKuYuglKYyN29e/f+/fuPHTt2/vz5q1atWrdu3YYNGxgJs3Dhwrlz5w4fPpwRiNDDJpOJ56HKNjHRe/Gt9vkUFRWBR4moeEiObqJMTQSpWywWoi58LpDUmHqIEiHFCIdIFWi5iOouHc4mkwnmgSCS1vZI6RGCssVL8DtQaTwM2F1Tu3AdbJCiZFwlEI6sNfy35j7JSsTJAEJ019/f3zv33E8kISGhtLSUFmTGuw4aNGjIkCE33HDDsmXL9slNQ5cvX/7dJ2Qj6Ta7cuUKhC5RGr2TFy9e/Oyzz06ePPnCCy/MnTt32LBhAwcOHDp06JQpU+bNm3fnnXfOmjVr4kTv7XnYWhLxZWVl2rzOUcOqkbDNEmEeWWpqKowpW8sKsltqX6F7oFQx4XzyoKAg1d2QkJDo6GjjBqCCcL2ZMt4rW4aJ0DmHC1aUptEPDDwD57ilMDU1lSwdBrhfv34333zzwoULV6xYsWrVqieffHLVqlXzpYhx2LBhFRUVDJROkpwfBxXCmO1XihAbqdgdlo0sGt4pMTER2sQuAlMG38SZNJlM8AOoL8gqRS74bteuXZ50K+XL4MDMzEzy1TirCBFMptKL1HIkCpcM8MVD0iEMq0inJ+gCT6hkLUlpAhuNAjWOTJQJFfyyWm4G+Hlrz9Hd+Pj4oqIiLlgcKnLdddcNGjRowoQJS5cufeONN44ePXrp0iXN6Pz222/QXldE/qPufvrpp3/729+ef/75u+66q6mpqX9/7/j8m2++ec6ca8UJEydOHDlyZHNz89ChQ/v160fNYZ4MDYFMTZC8tkZm6C6gUFMMLXQXn8tJhehVc9vGN5RAddff3x/dRWNMJlNCQgK6qwmkbBGn05mamkqDF8WpRMf/o+7m5ua2b9++tra2T58+kyZNmj9/PldCr1mz5pFHHpk3b97s2bObm5srKirs0uWCuaJmoIXuAnxhA1R3cUHJycmUaIIXYbUd0veB7uLW9WP+R911OBzkFPNEPHIRkF34QVrt/5vuJopofNlCd8kBUU0G+uUnZBm1oCJAyi2CZcz6H3UXi67o4lrfhJ+ft36idevWiYmJRM10QVGPMmDAgClTpjz66KPr168/duzYN998A2+A/WUSGW08WnNDXRgz7A8dOrRmzZpJkyZx10NZWVljY+OQIUPGjx8/YcKEqVOn3ikyc+bMMWPGVFdXazbYJAUJFhGHtH+hQy6Xi/gXPeMQY040GMfe0BfwR3dD/EfEgPmEn1euByAYHx+P4fQIN+zxeO/SMpvN/BqQDtuj7hhfSU8oRYY2uXwqOzub27J69uw5YsSIyZMn33bbbXPnzr3rrrumTJly00039enTp7CwUBMfCQkJ/HmaCHMneC9uegNYQwuQcLFYLHDPZMIZ1eMUcTgcNhFjeKDxO8iKZYTy01oFbAShkuJmEKrC1j/SZFzaAxTBjqDZmBiNgPGZGuER+YWGhpJsV0XnFzA6EHCaK/HyDMHBwX7SsKG5EDrASFx16dLluuuumzJlyowZMx577LH9+/efP3/++++/JyeJ9dUQDcT7008/Xbp06eOPPz558uSePXuWL18+evToiooKj8fDrRY9evQYPnw4c8oeesjbG7dy5cpp06bV1tayBwzawPGhuG6RLN/lm2ogOeKquyS68KrtfIPDsGesfhsRNkyTWKFSih8iEhoaCo0PyFasohVPGgDxUqgUlX4AD/QGF+GWvs7MzEyn9H7m5uZqU92wYcNGjRo1ePDg66+/vra2NjMzMzY2lqwBJbZmmeeimDVGBDo2TYqDHQ4Hr4+SweQrUk/3CSrrdrtZf8AAl6IlJCTwjqrBZCg4M4BvvDY5W9BqhEx1UMJBeyUwimoI2JoEn5AHtkg2DpxDr3J8fHxUVJTiYLRWWWFjgSUwT8Ge964U/GCw3AFE6B0WFpacnJyTk8OQ5IqKioaGhm7duo0ZM+a+++7btm3b4cOHP/jgg0uXLhmrGVWDmcX7ySefvPvuuzt37ly0aNHgwYNLS0vBUjU1NdRLjBo1aubMmTjQBx54YOrUqbW1tRQMEPyS1mLX2SSyYvqZcUAJCQkAXLPZjOVQOqm91HTDfKWkpOCqILawx4mJidHR0eFy6RIHmgZuIB0F5phAh4hVEgdJSUkke/ChZBDMMrPR4XDAM5SUlJSKEK3DIaSmptrtdsjgTp06devWjWx2SUkJ84ZRC2VGQS9YLLNP1HSR1YNwIGYlYEJb0JXk5GQIkHbt2uXm5hYWFpaWlhYUFACBEhISIGWNnxftN5lMUGwKTNFvnAzJNlgXQCoejJPPskTIRbk4MfQYjojgkoHHatQ1ouaI8r/UA5GuCwwMBCBQ7nOtx93hcJBHhX8ODAwMCQmJi4uzS2sySpOdne3xeCoqKgYPHjxv3rzHHnts27ZtOkQaivfq1as/ily5cuXbb7/98MMPDx8+vHnz5jlz5vTr16+kpCQ3N7ekpKRbt25Dhw4dNWrU6NGjJ02aNEPaHO64444RI0ZUVFRQwQjMT5d6VrtcDQtgcLvdTqeTqdwKTLFPycnJqrucusrKyk6dOtXW1jI/AetLaTPsAdaFvANAIkhq/nGImOFwmYccGxuLQVLKLC4uDkfGJSIJCQlpaWkU8RQUFJT7LtOskQnERTIhAciBijudTgqFq0WKi4u5BhTnEC6CrqhFT/VJsghkQnp6OrhfY02WhagILeQ8M2MlPz+/uLiY2Z5AFHKtuOw20kVCjEFsR7AbHe3t7dE0BLZQcwToLgxXmE/UlbE+8AaE3QrtKIcwm83aQRQtnBKojEMCYRzkG86gituqVavw8HDvnawk62GPeYiYmBiLxUKtmuIkbk6cOnXq4sWLn3nmmUOHDp0/f/7bb7/97jvvoJBvv/32GxEYhvfee2/fvn0bN26cNWtWnz59SmTmPdeaNjc3jxQZO3bsJJGJEyded911ZWVl6C5ayAG1yXw7jwhD6TB+GjinpKSwrRgkEqf5+flVVVX19fVQnigHyqqlCzhVs9lMvhcCQT1giJRQYQLBD+R7MH/x8fHUuLRp04ZKsfT0dGon0N0qkRrp1C0uLs7Pz+dGWOVu8/LyOviuky4rK2MXzGYzLClGC/WNjY2lRBj8wOKQJTZyCEQI6K7aOWgmLLTb7aa0yOPx2Gw2Et3wU2y6cQIsxhtPpUSNWkfNEQSKqNFFdTn8+pr8FcXjPDyYhyJ9SA/ewqi1nJYwmbKKS/TzCRrs1d2ampoiuXUMjoYxFkrg6XNDNXODQN++fSdMmLB8+fJt27bt37//wIEDhw8fPuKTQ4cOvfHGGy+88MKTTz65dOnSCRMmMH27uLi4srKyX79+XAY4aNCgLl26VFdXd+jQAeeenZ2tk2niRWCns7Ozi4uLS0pKiouLPR4P4/0ImdVv2iUc5j6mvLw8Sn67ifAu+TLhC9qVk4BL4R5C/KMGsyiubgwtADExMagCpk55HxAO/Gu2XNlSKnXrFRUVVVXeFomyMu+MJo/HA3mMjWTAT01NTceOHevr62kuKigocLvdEBogUbXrJhFMaZp0edjlgiaoU6Va8fX8Ghaaw6YVEWAMbbEMluEMwVL5he4CVBSuoMQgh1ifUGDQxjdBGsjhs7neoXeUogcHB7dp04ZAkKPFI+Eklf/C3EaKEIQQS0RERIQb8sBocEBAgL+/dy6OV3fplqmuri4vL2eD6XbCc4XLtEBOEkYoNTU1Ozu7oqKiqalpxowZixcvXrp0KanONSKrV69etmzZnDlzbr311nHjxvXq1auioqJQKq3at2/ftWvXvn37NjY2Ml6TYpdkKd8mIiZE4AjScYARrfG1dtntduKSlJQUl8uVk5PjdrtpHSE1n5OTk5ubW1VVxci9bt261dfXM7OtQKRQhO/zZGaMU8Y6UdGHUQkJ8RaOBPiEbYCKAXJQsgO80fjM7XYD63lxvubLFJJ27bzj47GscXFxer19586dBwwYcP311zNlv2PHjgUFBWTFiJCADUkiQEaHw1vyxpSkaJm/RgLWZDLhLXEpFslIJSUlxfkEO4rTx6RxPrGRAHesBsiBA8N5QNVUs1FjjeE4aUp+Uy4TEhISFRUFqLMackkw1kY1xcoqTDIa4AgR1UNixGu627Vr104i1dXV2L+srCxK2TUiUT2m0d4iV0BWVlb27t27qalp2LBhEyZMmDJlyrRp02677TbG711//fU9e/asr68vlrFwLsmYt2vXjpoVKhK55Y+gMjk5GYSNH+QsotPk7uvq6rgQWDsj9P6fbGkrJYajbycrK6ukpKS2trZz584NDQ11dXV8uvI/SJnU8eTlea+KdjqdJpMpMjIyXBKPQDp2NygoqE2bNmazOVOaVXJktFlGRoZNJF2guUNElOraF36iqsYcSJBcbGxsZmZmx44duYJ9tJRzDB06tG/fvh07dszPzwc+kSmEd0M1CWEzZWyP3gIJoARM8wsZGRnobnx8fKT0rrH9Ib7JCZixIBnRgsnUOQyaJtQDgxIniiggBrZBY5H6URcfJBIqU6kBdTabDXQOOwYbHRoaGibFDAqmo6OjORX6FXoe4BEZGcnx8PPz89pddBdkVi5T3MDy2Db4C+x5pExmJudJST/XMTAQsqmpacSIESNHjhw2bFj//v07d+5M8t3t9nbqWqVBz2azOYQwZ1l1YxISEv6ou9Q6pqWlFRUVdRSpqanJz8+nZz8mJiYpKcnpdObk5GRlZYEm4RCwiyQFcMq1td4mx4qKig4iFSJ8zwzJQpnuwUAALBnboJxi69atIyMjU1JSIJsKCgryZfajU3o5FUljXSw+SRFJTU2FG+LUYW9iYmIyMjJqa2vr6+uHDBkyduzYUTJtmyFA5eXlWVlZelcUdGlycjI9Gk4RMENSkndkYnx8PN1HnCJ1I8oNK6utGazAwEBi0xAZX64oMVIEfgArmyjVIElJ3no6rC+5NDSbSAs9wcUHiwTJiCdGCEB3pElvJgC3he7ydpwZMEb8HwSQRlL6Wj0DZYc1NTXAsqKiImYZJUspNM8UJUI9HgF1dnY2E+YaZBQPJaqDRAYOHNi9e/eamhpACLVIxBnJIiZf+ipGxLjuxJ7wHlFRUXjk/Pz8ysrKiooKZohTFwKBxZ2B1Izjicgp4Bm4HYi/BVW3F0Fr+Z7jmp+fz9xFxZqKtChRDwsLi4mJAS95PB50l7wAGJ2PxlcgJjQcOE9bt+llInjIyMiorq7u2LEjM82HDRvW1NQ0cOBAyjncbjf4GAuk+N7uE2ri2CbsIm4KM6HYmkgUDIrDVa0NFpgLsRUeHh5hEJLbyrYqVIiLiyMQVIUmeYmfJG3Le5EuIJAlTmBBEhMTqUwAznJmjOY2ziAJIpyZhIQEKPDw8HB/f38vvzthwoTm5uaePXsyXKigoCA399qlu2ZfrykvDROUlZUFQ9mhQ4fa2tq6urr6+vrGxsauPsHiEv9xt6uRBwHgh4WF8dC0efBwBExEh6wd1GZmZmZubq7H453xkZaWFhUVpT6OOAkzB+2K96SiICMjA643NzcX4qxApEikUEQ/r0sKrtPS0ngd/CxpHkpYyBJnSZErz5ORkYHikrDgKGowzsbHSc8gbCs1GJirlJSUzMzMsjJv51KDbxhPbylFYtoIuksRDLqemOi9KQOXBbUCusXqK1mGgeSR1FapPoXItEY8NdpDTiFUxPhrOHR0GiQKKmU1MIuJid4pDRh+wDSEGgQipJsa0FjpldJVUlCL0eWIKjeg78IhUb4ZhH2tX23JkiV333331KlTBw4cWFdX1759e+J9vAOPyzZQ5MHwktLSUgYO1IrU1NTU1tbW1HhHGbRv3554ma1NTk4mXOBdQV28LLyJUpLw5MQNoZIexIlgTrDc0dHRRFEkEaiXgx3TMjleXKu2cdl4bWySw+Fw+gSbDRpLF1HuBmCHKVW/n5GR4XQ6MzMzAZR8OjAfYADj1UbE6Hlhx3gLysRoW4Jzbd++fWVlZbVIZWVlYWEhoVhCQgJkXFRUVHR0NIkYtJ/zgPqqv0I/NNvHXynejZAOcnYTHImlDPYJix8i4vtZsO4I+k3Irpg4UYRHAmdim7F3ap45RTwP/2RUU30kHhXbBP+ouAWF5MXBb63Wr1+/cePGJ5544k9/+hMdY06nMyYmhtVX9MPRJ8UPTVguV0aWl5eXlZWVlpaWlZWVizCCHS7GIoMRsLvobhuZTqxcD5EZ7p5sjUYPynHygdlCOJ3AwECIWE42kSyJA55cFQi0o18jIyN5NfL+OHS+Qj0aoy6Hw0FklpWV5ZIxRGheenq6zWYDvZnN3gkxUEiRkd5RNLw154f3UpIoTaZDZ2Zmulwut9udLZP+3ZI3puYhLy+vsLCwoKAgOzsbGptpVLh1yAT2kgPP6dJPoXlvTCbPEBsby37zjZZ9oQqMAQ4QCfSNj+YQsh3AjCCD0DbCRzPiB7g/s9k7HAMzyZKmipilQlUjMM4YSINNYY+wX7wp1GR0dDQLyFeOSmJiosPhaLV58+aXX375xRdfXLx48cSJE/v27etwOCIkZ80JQ30J1JKTkzMyMljoEkl7FovAHpSKFBYWMuvFKkM9sJcJ0jrC7sbGxmLGHML1YOfi4+MjZJgrShkeHt6mTRv0gK+4swAZfh0kY+NxfDExMeguyqS6GyaCy2vhHKkgiRPB5WEeNIOq6uWRGozc3FzagCnawnjrscSrGMNtAI+eEzbYZDKhuy4f5UKNhMvlwpDDrwFvXC6XRW5eQHdDQkJQR/gynhmgyY7yEz47SJ2mOipjVN01vYxuAb61hYSh6iglsRRMS1BQUGBgoOq39lGqr+cI4QeSfYLigmfYYjAhy64IAYumxoVEGm8XFBQULo31evywOElJSYw/bPXSSy+9/vrrr7322mOPPTZz5szm5maXy8WZCwkJQXHVAwJ5qY/JkaE1eXl5uSIFMk6ruLi4QIYesyV4ZKvVChmOWeImCMIs9o9qEib2sHacSNQXQMZZ9JeZKxx9VARswMLxLmgqDo4t11fQAx0uyd6YmBhFY6xLamoqZK3b7aYAoKioqLCwMCfHewc8upsmpTBWISwtUuKtqqAokx2Kl3Gf6vVSfK1KTinNYYmcTmeGCDYevi8jI4OjSMo6TLq6teWJk0YVi8IDlMD42fkn2vFNIsYgEncRGRnZunVrP5GgoCCdhMKLa8DaQnfBHno4Y2Ji1CiiWLgC2DHUl6NukilELVaJtQLDYL9a6K6Rf+CDJCcnu93uVvv27XvrrbfefPNNrgOfMmVK+/btExISsFgAalaEJ2aPU1JS0OAsEbUZmI0cyQ7k+SQrK4v4HX4uKioKu5uVlZUnObDCwkIoJ5AG24apjoqKwgmgdlhc0kioHf6aT67UrObTW+hukEhwcHBERARHnxfhe2hUKmYoGy8UD44TdzgcqVLwnizNgNTIZmRkOETsPrEJkWkVSZPOjmSptSCESpLScq1GsInYpXQEDeYF+YlduEV4lRCR8PBwjdyppNHTyCcNNwj+qsXISkgeFg02MCjIW4mvPdiqfEoMQxcGSbGHFhuiuC0gfmSkd/BenAjgBIaBz4v1JUJg2XkvLDVhH4E49p4KaT0YvCC/DFnZ6vTp0ydPnjx27NiuXbvWrl17//33jxo1Su/YIeXIKvAVBhsqyi4TDDIFwKHEWb4wvKioqFRAcGlpKQOsk5KSqFnT5rM0GRSSLwNvSqSLELKWghugJMwIGsy+GEsEQdKsYIiPdQ8WUT+ru8n2Q2dGR0cnisCPxvpCYIoHUlNTqX50S8YOi8ugsRgRBotoHrhdu3YeKfPN8Uk7EbfbnSmtBzBWpFLbyv3XsbHePkcsk1Um96Snp6PxkLgAYi6niJeLITiQZFkxXWFhYf7+/mI0/VA+LA7+DW8D8IPu0MVUXA7vy8pwMDDqGEhqgrEdEBRKabEOGCM1K0R1PAN6jNVnQFFaWhqMkEkaN4g7U6QFGr6Pmaq8KWCdP1dbC82Cr8vKymr17bfffvnll5988glNkW+88cbjjz8+efLkqqqqsrIyJh/yQqgIKRBKq3CvODu3TzweT15eniLg4uLi3Nxch8NBQgXTiDsjNWqXlsksaUPXncZWJfvEiCkZeIPlprKRNBhQ2F9maGowFyZkHOSGhslaMAVQUxemlhisli6SKoMCtO6Rl4qUy8O0/gYmLk8kPz8/T7J0OTLNxO12k36jbj00NDRYWFVUCpyaLAM1iHKYxgC7hxPLzMw0m82wTup2QFZhMn7FT7oH/Pz8goKCiAH0MGPAABvAPxRR/RInnLBYrSaMO8sC58X5VxASL1gImjY0NJSV5wj5SS14oFQjhsmVKkayCKBFYjw2Nhb1tfx7US+MdQs3hdamSSGH1WqlHKAVbQ6ff/752bNnT548efjw4Y0bN86YMaO+vr6qqooRMhquocSagWyhu9kiHuk7LyryztooKSkBLGozFhY0QgT3l5aWZrPZnD7iiSNoFknxCfYVnoUkE7qbmpoaHx8PHPSXEg0/aYgPlDk6RjeKEeIn/6Pu4unSRDhFABjd+LZt2zJwCdP733TX4/G00F0IPlQQcEkuUHl7jDFN88QSLpcrOTkZSwkJA9CPlr5z9IbxK6q7kZHe/mqiW94LopoDgJUl54I1bSOC7iodobqLuSF6NtY8GHXXWJ0IAgmW216p78HSESekpaWp7mqMQfibnp5uRFlGc8t282v/r+4y4u7HH3+8cuUKevzee+89+eSTzc3N/fv3t9lsipTVPulb2mVeLDgBc5ufn18ggvnxeDxZ0uwAhIULg23QY6CvDwbCfUdHR9MjwIFLkRkT8TJ0Tf0I+g0O0dMfEOCd2gI4Y2NUa9kz+Ca2X/1aXFycBuMUHKpdxwCAnTgkBNrwG9gMXEemiEvE6ROHw8GWkJ5V/wuBjaUH6imTRZ9wVlaWtn6kpKRg//DOnEBeigJwTG+gkFy4de1MVAQVJgKy4odQOhEREVE+YUHArNBwChuIdjBbPDAp/fDw8CBffa2fSICv84yQmv2F3la7Gxsbi0GEOdGy9HThH/k1oguTiNlspqiQf7pmdz///HPukOJK9Z9//vmLL754+eWXJ0+ePGbMGI/Ho38M24UyUQULWsDdk2wrKSkpk5I/6rNcLhcMLhpg3CSiK3LOyifoyuLm0CecCOEF5oekS5wIbA7EiMYTGBUtxlW0INvnHUaLMw2Wzj4lkiArtDSW841bj42NNXpPuBt8KwAxSYIwszTqgAF8PiMl1SdwnNHR0XxqzicV2RqA40bTZBoa0RtVmtCxSn8Gy4hBrHiAryzQX1pHw+TCNjUQet5amFt1QagjH1CpA54KVovSUCw3UXKiT2CU9S1YdlYbO01agIE3gN1U30BzdWLAJ5aRD+5wOChqVawYFxdHwQZraTabnU5nqwMHDhw9evTDDz88f/78hQsXmAby3HPPTZkyZfz48eXl5byKRUrRMfs2KalRosclYmTXwQnZ0hpOTSMakCijBrCXfNXaBiUUxWgGqVbBK+OetDreaDvRZmAoUQKARM0t+qr/BO8TKD0kAAxqFfDdHG6QLr6CJ+ecYC1Ak5wf4wnUjYfQ5eDB2BP8YYMtUpqIfrOeDkmCYLbBTlk+cQn7m56eniIzR5TuVY/PIQwICAA2oNMkgKJF2rZty+KwDgQAAFx+DduvuhsdHQ3tiMnAuJLJ56/0yBkNs6JKgLgmFCAHONh6mEGAxHlU+lLqFBUVBQuu5lnbApSSTxKJj49PT09vtXHjRm6z379//6FDh956662dO3c++OCD48ePHzlyZHV1NSliBSI40zQBqRgGaB2bzWYXrsflcuHs3L4om8CQR+cMcAR1Fwnj0Az4OD27PHSMiNHysY4sGfBD4Rp7Fukr/MMAoFhYo3BpUAsQwc+qK0SliM8gOnRr1cyDJolZMaLgSI4HOq0ZLwg1zIlLshKZ0nrpkLyMWyQ/P7+8vLy6urq2trZTJ++dRfVSjV5VVUWCHbYhLS2NOQl6UPFXnEasb2BgIAVcCop4Ws4zwVYLPWNt9RDyv5h/jD0VMNgCwi+yErBXuj58Eyf1G3TqJ4uYRNA5XV6dDq9DDTlUsdIkwi/HxsayU7hTzDPP2bZt2+TkZK/uvvjii7t27dq/fz9E744dOx544IFx48aNGDGiurqaCZuqu2CGFrprt9v/N7qreq+6Cw75H3VXQbDGDbgw6OcWusvH+7+iu5BKuiuYf7RBrWyUzBYPF+GplBhSo/sfddfpdIrqumkTqpEeirq6uoYG7zjhTp06VUvdZmFhodvtBjSTqjDqroZfAN//I91VuI++cg7/qLuk6/6v6y4zH/6PdJdIERNmNptbcQ/Uhg0btmzZ8tJLL23duvWxxx6bNm1av379evfuXVlZmZOTQ/oeWg41An8o5wztbBaxWCwOmaiQJWUAGRkZaDZBok0kTQTDBtAxmUxmSYUTERJqYMmgI6BCcZ3gZv6Q/BDBFpgEbA2ZKgF0GzXJuknqSUMk3YqVQucwmSA68q58ZDRY0ao6R3wfaJJMLCwe7ZlKahIhuEQwvU6nE2KYOwn79u173XXXDRs27MYbb++v74IAACAASURBVJw8efKNN944bty4YcOGUeKXlZVFaXxMTAwnFrNHhGfkWYENGEg+vn5tK9RyC2fFIeQ11STrD/m8HNcwEXUvWF9WXishNc4jukqRe2pBhthyEu82uVVTKX+emSBHQyCiwEBJR0O64WzJG3vnnq9fv/7ZZ5/dtGnT5s2bt27dumnTpqVLlzY1NVHwmpeX53a7VXeNqQoOAQqE1qpfSE9Pz5B6K6f00qQbWHf0GLRAx6KRMMYMK5nKs8bHx6elpSmbAYwGzmONeHe0H+WGhWHF0UvYxCRJhUN7set0+CiARiNjpX4FPKdIFw1G+9VdYgNCQkJ0icm84Bw5rhbJG+OviKNZTw55RkYGjSH9+/cfOnTohAkT7rzzzsWLFy9ZsuQeuZbrxhtv7NOnT3l5eVFRETcSoC7G+gHS6QpdUC8QBTiB78Fj4SKKIlSzIyK8V/CFhoaGSMMZLA2eBBAcJQLc14WCHYK+5BV4R6hM5f44+WAJ1IMY1Gw2k97jeXgFSv7xJAEiyrjxhAEBAd6ZTs8999zmzZu3i2zZsuXZZ5+dO3du165dnZJnT09Pt4voQcGeESTywTT2NIkQl9gF+7JJ6BPbmSaCjtIpjoJSzWiWOB0Dj+bBpNrtdmqsSktL6dJu164d1Gm69HlzvvUIMXiBrYIDotKXqChbeoTQeyg2rKaxRBD11YQzZkkTnuwBOTnKMgMk2DfOTqV6gbwu2Xw+He4FQ8VZcrlcZWVlXbp06d27d3Nz86233nrPPfcsX758xYoVy5cvnz9//sSJE3v37t2lS5e8vDxSdLyUxRdA8/GBpyQOiL2A/phqXI2RgSGRAQKBK6BMj88SEBBABrht27YEsjy5vgsOCi6CWEUzL6RzsRc8D/YbNEzW3SYDEcml8bSgL8aN+UnCpVWrVqAg6DYOJxkZr+5u2bJl165dr7/++o4dOzZv3vz000/ffvvtlZWV+GWKuG0Sh6G+KJaWLKF5xJ66oFafWGQGqKJGkAa/phgXeKq+xiRTLUACHO7ExMSMjIz8fO9sgTJfe1m2XM0FB8KZgRDQ9+J0EajFxMTACBbKcI2qqqoOHTrkSN6LUemYIjwJhharDD2k9kzZNNhKNDI+Pl4TAcaOYpqjHCJoMBqmoIgwNCoqiux8aWkpc9L79u07bty4GTNmzJ8/f5HI9OnTR44cOWTIkJqaGm5IxnERP/goOG9nET/HNLCSOEOOStu2bYPlVgiUkr1TzxMcHAxT6y8SEBAQIu1AGv6rFYOBwX2hu1i00NDQQBHiRdaT/SVKBrxBmaWIwGZwHmDcgmVQE8kOPz8/LC5rRb1R27Ztr9Wev/rqq/v27Ttw4MCrr766efPmJ5988pZbbikpKcE1hIeHk7tHG3lopf0IknhE0AwoRxdRGU0NpyjdQtv0HKNwOGIFIbwLGQqn05kvZQ+lpaXakUGxFaBZXwEnrmwaRH1cXBw3llVWeu/969bNe0EQnWoZGRmUArKsit6wuOBIbBJHX5l2FoTDCZTC+bIaGFRm0mSKZPiaLNgnAD2OkiGqbukxzs3NLS4ubmhoaGpqmjhx4q233jpnzpzp06dD+3Tt2rWwsBCuDW8GUjJ2+6QLQjMqN6DFOJCBzwJa0yyGmmQj+d1GBlCYzWabzZYl4pJS5jQpTlADhMnE7gaJoPe8Bf+qqEDpeWVOCVGI3qhrQ3c5P/hDtgYLHRERkZiY2Grv3r1vvvnmW2+9tWfPnu3btz/zzDPTpk0rLy/XmjrtAIM5MkkZW3x8vNpLo8kkm8pvYmaoptN9hY3CGKC7PDe6gmFWnh89pj2moKCgSOp7ioqKPB6Py9eiw/GAhuSROHVGGAAdSK98XV1djx49unfvThSflZXFeBEg3f+ou/waE06tUgYJ3aMxDRvDB6RgF93NlM5eMqLQBZg9vVvAJQyaWwaHVVZW9u3bd/jw4RMnTrzjjjtuvfXWsWPHjhgxomvXrsxJodESEwCbYZGqADUxmA9AhVUKqXlOAh3yFwRbmnoIMwirx8mPjo5Gd3lCo+6y+OTedOBIsIjqbqSI+i7NWWisCfZAj7UmU3VXWTn4cvQkIiIiKSmp1ftyvfKZM2dOnDhx8ODBl19+edGiRT179sTN8QfsBPqK4YmX+xyTpYgE46+kgcbpOEcMoZ45IDJoEpuBa+PFwUMmkyk1NRVkDLuUnZ1dWOi9S6fYUB+sRa4EVao9wNxQEdUkh8NBv3FjY+OAAQO4/rtLly6lpaVMWwIjAc7iRWDEiHIIEUinUYPGE6K+mr3EV4DzaH6mXiczMxOzyihmCpo5Jwly44NNhBwk9z/m5OR06NChoaFh0KBBzc3Ngwd7p+517dq1Q4cOHo+3dc9msyVLPxU2nlhQ8YMuoNZqgq80r84Owt4QJxhXQN0X7kijhQwJwXkphgqAdFkliqLQ+zCpgiJuUx/OpugvcHoxZ4A08IC/FMf5y/Ui+DEAN3iVMMmru9+JfPPNN19++eX58+dPnz69devW2bNnM+qisLDQ6XRiQSn+AHkwTNPpdOJHMjIyKIvREIF4HL5Dw1v9PADZeOnMVmANnEhMTARNArLtvnlkeSIFBQV5Mg3ELa0yTqeTkd9QE0RUrBSrxmuazWaHw1FQUFBTU9PQ0DBgwIDBgwf369evT58+1dXVHo+HgI+l4VzxbGrOCRw1XwViA25CJhD5sZ0cAE1jEu/So5ojgx1cMok1TWrYCbops0xLS6NyOiwsTO9mg0Gjk7WxsbFjx47t27cvLS3Nycnh9OLlFH1iaBS8gVtcItT4o69Wq9Vut2dlZeXkeIcmsqpOGfemSsl6wpdpuMbx4O0oUSK1qegZO4Wn1a/8DiZAJwcES0mdYtkoqdXWez3om4iJicEaQrQRd4aGhsbFxbXS+6l//vlnrkA7e/bsrl27HnjggSVLljCRicJwk8kE8ouIiGDYXp6vv0qvOcd9KA7W48hDh4Z6Z0lAWinJEusTNbq67ury7FIo3CILnSVlk06nEzyH5fa9mLdJSxEI83I8Hk95eXlNTU2vXr0GDhzYp0+fXr16VVdX5+TkaCyFr0Bx1RppJIHPIeWreU6LxZIuAgTkAMT4hC1noF22jCQk6QjFixem2JdRD1xxCt9JgbzNZisoKKiWrFuXLl26dbs2PbKqqorWQJy49ghhwDCrQDi1/S6XK1O6RFlJvFllZWWdSE1NTXFxsb4aXI3qHBtHtAqPrsqk2w08iBIhOFN/y++oEwuRYmt0VwGMgmaQN7dJqBHBY4A9AgMDvTzDlStXuEjid5Fff/318uXLH3zwwa5du7Zv375kyZIxY8Z07NixvLzcZrMRA0VERMTHxzNepERqxuk+B4tg9njocBEUVz0F1otPiAbTOErbgrIQoGGTSLK0KgDpMGMO6fXNkqki5PyMagdQZonNZu9s0/T0dLfbXVxcXFFR0a1bt759+/bo0aNbt24VMhgY3cXeALyUPeUBAOVgCb6SqefFgTfYP8pHokUAlPxmamqq05dI47FdLle2SI4IgJhyRywTrIXJZGKIVnV1ddeuXXv37t2zZ88ecgN4ZWUljCGJN1hesBNoEg2Gk8rIyMiUoT4u6fTUSa8dO3bsIdKlS5eKigrjwEKgcFhYGBQEpeVGyszo7jDPuqG4XBQAjItmk+/U8BdzRkODhlj8FeeE7cAwKaT29/f33pXy1VdfXbly5ddff/1NhCt6Lly4cOLEiSNHjqxbt27mzJn9+vVrbGzMyckhmxAVFZWUlJQllzWju9hdiBjFCUaoECJ0N4Vd+qC4JDXAylSgtegiVgSTjBJgS7B2GSLE1FhHIAcHQI8B+T9umSwrK+vcuXP37t0bGhrq6+tLS0spdsN4m81mfC5m1SSEHYqrcFA1WCkRcL8+Nn6Nw8mxxPoSulH+4ZB6hiwRsmtEn6mpqdFynxm2h6DE7XZXVFRUV1d369atd+/evXr16tmzZ9euXcEPxcXFuA4sJesPTlXIpDn8TGlyUfUtLCysqanpJtKlSxfSqEwLTk5O1mwwuouZhHHXj4w55MMav4KyjLrLRrPpGGBFF6wS2R/Onh57dJfYIzw8HIN9bS7OyZMnP//88x9++OFHkatXr11jffny5W+//fbo0aNPPPHElClTRo8eXVdX53Q62aG0tLR27doROeXl5XGlHnscGxurnAiPziELkoYn8n54VD4eiUqKMJJFcEbG+BebzRkl+GVXsMf8FTqXnJysSIP4WuEgpjc3N7dDhw41MranrKzM7XbDc2m0roGXHh4j+QAU0RNl/Cc+FHuDi8TSqBLjWIhQCa0kQrNhDvHmQN7ISO9MNMxVYmKiy+Uql5m+Xbp06SEkSffu3WH6amtrKyoqioqKMjIy6GxTzitMRDk7eDS75IzsPuF+xZqamlopA2rfvn2uNEUzfUI5IkxPiOTPGY+nKB+aDLvIhoJxsVy43DAZOkbcDKhjGfX7JMl3sgXsplET4uLiUIZQKV4NkvvFvPf8vPnmm2fOnPniiy8uSAHkhQsXLl68yDzdr7/++vjx49yTOGnSpF69ejHzgjYHj4w2yhGGH8rGLEJ80wI5KL6BWWQ7wS5QgHFxcWazGQvKcqjuknH1NwjUN1E/eEjhAdW34AqQABkEMACBUa5MAAd3clUgKmjyzVGEMyHWVk+H2UBBddHZAwytgvvw8GvzkdSNqkLrixARJoqkSnOyQ4TQk91SPi4jI6NAKMJKmT9SK9JRpEryLAUFBRkZGcyfJVES7BNKLDjquCwib9wIde4Y/kLpePUIieGUWwHBPzExMRxFHj4pKYl7SbKkXkVTu/hklBU+ga9qd4jJYBXUhRpPMr5UTxcZRJZC609CJWV97V7L/fv3nz59+uOPP/7HP/5x9uzZj0TOnDlz7NixI0eOvPjii/feey8Xpnbt2rWkpKRdu3ZZEiQRn2bLgAxIkxSRxMREeBPUl3g/PDycd+XsYhL4bOguxBA6l57uvX0SLAW5wVGD8/P39w8KCjLW/KN5eHmtHLeLKLUJj4YGw13YpfaN2WdoCf02KSkpSUneAXXoboRBNMpEFTgw+svh4eF4mFAZ6gOrj5aj8byLktCq4no1MY+UKtXZqDWwBMDqkGtTPdIOSJaxRFqq8vPzdZQRgCEsLEzzC8qzalCh3B8fh5XnLZzSedWCigYKqtOwWq1GdiI7Oxv1TUpKguEKEiHcxFIC3/kJkRmvBqiD97CIYFyAguqCFHyyFRRGemtxDhw4gO6eO3fugw8+eP/990+dOnX8+PG9e/e+9tpra9asmTlzZlNT04ABA+rr60tKSjiXOucrW2oD7HZ7mvRzp0hzTgu2AVeiW4sDAs+R+I6SOxA1pHBInwwDOmNjYyMiIox5Qn9/f10XTK9Rd+k7tUrnrdHusgHELnDGVskskFRDq4wtDOoEdb1wfCAciBv1caSs+IAENBBGGjDF/buAIzFIOqSWc0vinUwpaJsTwgaztW6ZqZObm5svIwCJrqjuBSyCC1nh0NBrt7+AgKNF8HhQB9DVSXLjts127Y5EHgP/A3ZKTEwE49rtdkZkF4gw+5UpPuScA0SCgoKwUzgAapWUFGOMp+ounw67QyTAeYDKNQIPnFvr1q29HNnBgwfPnj371VdfXbhw4dNPP/3444/PnDlz+PDhF154Yf369XfdddeQIUM6depUVVVVWloKCwin45GubrfwrCQ8QZZEu3hJnCZWR3FCaGhokE9at25N6Ga8ssElzQJWqxW/1rZt25CQkAApdvGXNmBsCfoRFRWlugv8TROhYstod3kMChQ55ampqcrgwnwZa8egTeB6vNhTkACfgiIpAiCj/dZML+6VOIOvuAVcE5k8rCP3YyYmJvJqVC8ly0gHAkceA50DWXEysZFOqdTDdpDl4tThZDlO+vD4QGgvfgjnwwK2SAmp/zHqLpPlmUlXKMLUUKBOC90lPkF3A2SgUYC0soWEhLRt2xYGE8eiTkaT2yQgGTmlrfMYDsiu+Pj4Vjt37jxz5szly5evXr165cqVS5cuffrpp4cPH37yyScffvjh0aNHl5eXO+T2WlwtJKXH46GSK0tAD9wkumskiUgX67YlJydrzlppIJavhe5myjW2GB5tB1KmhiCGT0IZECYz1Tfp1uoTvAH5Jw3/jXEhHj/eJ/wO9pKTg8YTf2gDkt56yf05xpsEOAPAON6X12aMpFMm4jjlpkHuKMac67XdPDBaywNE+24iwmi1adMGiI8V5Ksm+fjcFGepDW6B1iIiIsCvimLjREgBaNhExEyehQVhHxlohNUHImdlZdntdu4npIcnUPq0wyS1hpsNkn7MQJFgX5sghgC3jH+jnJBnoMEJ8IN/5jFoBPLWM6xYseLll1/+6KOPvvzyy4sin3322dtvv71mzZoVK1YMGjTI7XZzlE0mE/4iVyQ7OzvDV1eeLvUfab76DBSCFaGYhvDO6XTyIcF84BhFXVQlp4sQ+7N5oHWcBRCZ4gxsW6wM6cCjpfmmLbGFPI/yBrwOf6XUvVkK3pNEoHvwrWoVoBSI2FB6Qjra0AulMK2kpIQslx5yh0h6ejp4mhA7NTVVs2vMCkK9dAV4DGrookUUv+JzwUv8Pr+giRKLxWL3ZXDItwGTKGDAz6E0Gu/Dp/K/mnbBBqPHqrgoGb9DeOf24ZYcuTMBXiIuLo63U0upUNUYw6HNIAoAsXJw5CN4Bu010uONRWByl7dvYtSoUbNmzVqzZs22bdt27969T2rKXnrppWXLli1atKhv374ul4sqLW5kzpExZLm5uVzxwN4TwFp9w80pN4Nwxc3ZJf2YnZ2t1DdInHgI2IC6sOIsFoEOPhfyj/iP8A6QSvEAtC7smFFlzSImqR8iRkELsdaqwUalYYdYPvXXigGwc1ar1el0wrQUFxdzaRm+iM+YLeJwOBITEyMiItin2NhYm81GUN+uXTu73Y475liCr9AnCjjxufwr+43dQjOwahhR4KMWszslVc7JJ1oIEGGAA9EF6wy0wOYpwGNJWRO2niOE86GNBXTukvRKlmSIuDsIJwlW4dnYSjAk22c8ThyqIOFPtYIUIEFXhR5R2jDxS3jpVoMGDZo8efLy5cufffbZbdu27dy58/XXX9+8efOSJUvmz5/fp08fl8uFJaCx2Ki7sAF8SCbKU4RglcklFKa00F2PjNuw2WzYJCP/ggmhIgJ3hhrxSdT+YXVQJn4BI0EmGcW1SKsCqJHEGOwHK6iWldMCMoGcZkfxGLyj2j/iM6IKigSYooLuFsq8PY9IjvCGXI6SmJjIVnFxsdVqzZbMsMfjcTgcwGu0EwiElhBsofEoFn5ffS40C+qroEvpCHQX74fu+svEsf+ou7wIrLmaZDgs9Z9K2EfIMAdUB6bMLQFPpoyu0iYI1V1jgKjqq7obKJ2hqC8Hsk2bNurcNLuOYlAPTQDDKOhWTIHu06fPmDFjbrnllpkzZy5cuHD27NmjRo1qamoqLy8HhoPwcHl5eXnc0UWQTgrEZDJxFjMlY26xWEwmU1xcXGRkpBaw6yByPjDRmPFMK5XGQSS2IN+GbmmtDyYZ7IEGgwL5NTX5MSLYbMVVGnUBxwnkUXFV9BbpIgXu6K5FahgAr9nZ2TkiKC5f+YDp6emqu0EykTMpKclut5OetVqtHA+ifo2oUNxgEUyRspuK+FV3Q33CruMWOMAsRWRkZIi0JBHmhoaGRkZGxsfHY/IpUEZvYCSwviQCcaqEs23kRirITUZaseOZUiKXnZ2dmZlptVqJZ/hlIwukvA3/FCwl8CB4pTu0QA8Hrt6bDYIFt9vtKKTdbm+VKxP6c3JyuBinsbGxV69e9fX14BhIA/7YZrOxT5TPMiQLv8b9P8S/WSKQJoQjDAxl3kxGRobbJwwpg1AznkW1LpgEDiI7AQJj6RVdaOQBJ4Br4+iz1nwNFVobZor1goKNi4tTy50iwolH19lLLDQ8RqpISkpKsgisnEPqKzIl44rZg1qPl2t22DCyqQSUnG0jEOKxI0SUFeI59Xjzc440QB8Qz0NSdclTAZNwmBTFBkrTovplxbJAGjAJ/8oxMJlMLVaDJQ0JCaHdnLpe0KBbhg7+UXeVgNMlBQ4RzEGEA3hYFvgAlwgYmvODU7XJYBASYZmZma0aJK3fWYTvKyoqnE4n6xUYGNi6dWusDkPPeUqbzRYbGxsSEoKBpDrHIuXPLqmhTk9PN5lMUVFRmApKojD1MM8ZcsETV5rRbacMdouOFJw1qBdDhaphXKOkcA6DTUyK6oPw9KsiKiwWTIXCD8Ue4B/Fgih3TEwMaQuNBY1VgoB10BgGgzAfpEj+LF4kKSkJg43jA1OhQyix4pNIg0RHe69twoGAlDAl9JIUSjIMw5+ff22MH9cnQjzxLpB3yu3g+vnUmF4lLrG+OrEK9EWxPLqrRV50lSpQsdlsXG0GqEUvYSQ5BrDgvF2wb1oZtTFpaWlOEQBVtiS8NGNnMnl7yHkjp6+NMjs7u9Xtt98+d+7c++67b/78+TNnzpwyZcrAgQOLi4v5zCFSq8ZOx8fHE8zabDZKRtAVDivAwGKxOCU3w6Uj9CFC4uKGsM1pPmGbiaJwmugTy8qG6VfimKioKIIJwKKmjmFn/KVs2c/XqUcqzk+GE7JeBK0YOb4CNBWZKSwzPglgy+ETvApHDjsUHR3NEpOdgUAw1hJoOsojSVc1KmafqGMBDvEVn6BnFRgKn9ChQ4e+ffs2NzcPHz58xIgR48aNGz9+fJPcFNShQwebzcYLEi3gstu0aYP6arItLi5O0REWkQCLEZ2cVVwEzJQRiGN9QXSYee1iZCspBDOJWES0UiUiwntnJUg9KSlJdRf6IlPGr0Dx8vxwOw4ZIOQUtsrj8bSaPn36ggULli5dunDhwjvvvHPq1KmDBg0qLS3laUJl5uZ/0100+3+ju2AsQDP0O9r733SXnVOtBdf+/6e7qK/R7GE8NHb5/6y7ROUEskQLlJ9DY/n01vvf/6XuwlQ6nc6Kiop+/foNGzZs5MiRo0ePvuGGGyZOnDh8+PDrr7++oqLCbrf/UXfbSpYnSDJeBGforlKWQBQSB5omUHiDwinoMuouUR12BMXl9dXu/lF3IyIi/qi7WVJuoLqLEkL3wqLwT3a73au7a9eu3bFjx5tvvrl3797t27evW7duwYIFTU1NZWVlhYWFgFpgFkObU+SaJKYacgp1oIZZKmVtIpocxnoBxfCYaZI9BjWmpqYCaPCwmFsWFMdNsiBSBjRFyAABIgBiT80hUYASKFPGsLVqcf1FAn0TYQnUgJX6lR8aEScrq8mIlJQUpag596Addbjcl80qU34FXEZ3gVvFxcU0eJaWlsIzsAggVPQYhKpGVwNQJUNSUlKysrI8Hk9jY+P48ePvuuuuxYsXr1y58i9/+cu6desefPDBRYsWDR48ODc3F8+J9vAWOhIKxQKwsh1k0cA2UIea78D+xcXFKcOF78JC42HYIM0jUHHFycdwGrdewQO+jsnSqI1dikx4JIw0rgbb4ZTMDj0mXsywc+fOEydOfP7551988cU//vGPkydPvvLKK8uWLRs9enRTU1NJSYkO0GQjjRAedhbthAujBJGFUHKUliwcEHU2LCWhAF8xPIBaY0wKf4TWhono9FzwHFQGeC5Ixs+r1gbIPFOCWTw7r2D8qkbij9+gvth+PAb8AEQKsEHTGUROqrvsKPCUnJ/T6SwuLq6qqqqsrOzQoUNeXh4XI6NhRlQAl6LHuEWamts83W53XV3dhAkTlixZ8vjjj2/evPnw4cPHjx/fuXPnxo0bp06dWlFRYZardThUhCJWKeGwyFQHSiOg+XJzc3PkelDKGDhRFpn5l+obnQ2ui4qKaitCdAjFTsUmbEZAQAALTv4IsA4CsfokJSVFU/Fk1zkn0CMpMkqHZQEyoXJqO5jl7L3nZ8uWLYcPH75w4cKVK1d+/PHHS5cunTt3bvfu3cuWLVu4cOHAgQMLCgrIcqFYoGZcgJZ6QXebzWY937FSxav0GevFeSJTyjbrnxC2E36RUAGQsBAEEEouYvt5NZgQKPHg4GDy5n5+fqSgQqXLCL7CqLJ830Jf+SGkk/4CcILsoNVq9SFe71RdnlkjeuI85UT16LIBFovF4/GUlpaWlZWVlJRkZ2cTM/DkGhQSlqH0qK/6FsxedHQ0NSulpaVDhgyZN2/eww8//OKLL544ceKjjz46ePDgK6+8MmfOnIaGBjo3ibPpHMnKyioqKqqoqODy+MbGxu4idXV1HTt2LCkpYQZSuoxrMcv1W5wcfapIEUIOXJ8mLyIiIjQWVDytKq41esnJyRhUloUaIGJcQljUA03A7aByduEWAZwEV61WrVq1devWU6dOXbx48ccff7x69ep33333/vvvv/DCC2vXrr3lllsaGxvbtWtHWxgkUZpvdDqjk7ATygjyQ9hsYnDYMXaa86S+CY9gMplU6SF9wsLCAAB+MsccVpJ4iJsgsqSOwm63G8vNaNMzggRsp4IBlBVbzg+N/xQWFqZUUYjUWatz1EsIWeX0f5+BkCIDRtFdsllGB4JxSkxMtNvt1N+RVGNiO/M4iBlYLiNpTZYE/ebxwsPDIeyys7O7du06efLkBQsWPP744/v27Xv33Xf37t370ksvzZ8/v1evXlkytRseNzk52Waz5eXl0Xg8atSo8ePH3yAQedSoUf379+/Tp09lZaXOTdShWBwYbK1+5TwALYB8pH7atGmjJ58YSf+EqlFIFT4Uf04k4JCBu3a5G0btLn4V3VA2w2Kx0BblrcV54IEHNm7cePTo0c8///zSpUu0S3zwwQfbtm3buHHjHXfc0aNHD3otOY54HzbPbDaDzPgwBNr6sVELGD5UUw/cH/GcWQS0Fy3T6NFdfykcI83N6He73e6WMRwUVGh/Muc+wCeBhpvu2IAIn7CgkC0IKgAAIABJREFUmBC+R5vDDGWvLfKuxJpmsznNVzKhLhWvqsEWWqu6q8mUhIQEvZaLq2ohGTlvwXL1ELluUIqRXKMch8cLCwuDZsnKyurcufMNN9xw5513rly5cufOnYcPH969e/eWLVsWLFjQv39/mHvMJ/cyFRYWdu/evbm5+YYbbrj55ptvueUWpixfd911/fv3r6qq4k5CGEBIA+IzowkgwFJvniwlb9C3IDdcFn+iugt4ULIPmw0YSE9P/1/qrrY40O3bavbs2cuXL9+6devbb7995syZc+fOffzxx6dOnXrttddeeuml++67b8SIEfRFYS3SRZShBNgBhYEBRhYa0GNMJZA+UNeD0rMQuCeCM+qL0UP2FfdBTrWwsLC4uJhLCEnOUbQfInxzoAiWDJ/Fm+L9qZlUDTMmOMKkqZA3JRhnG4i+YXkV5Cgjhu5yLLEr6lX0xXkMxf3UXkZERARIYaefXHOCoWKPW4RoFDGzJtT7UhpRUlLSp0+f4cOHT5s2beXKlZtE1q5du3jx4gkTJnTp0qWuri4vLw9qyePxVFVVDR48+KabbrrzzjsXLFiwcOHCu+++e/r06SNGjBg6dGh1dbXL5ULXtXhNF1PRlyI3rX8CpxptliqurjxnAL8XERFBPQlgwObLOPw3u8uvpcttFPhtZk23Wrhw4f3337927dqXX3559+7d3BO4devWZ5555oknnrj77rsnTJjQo0cPCs9dLhcvAbcFwYk5IzvCjpIr1iMLegPm86miRMBz2GA9A2oIITHw3bA2CQkJBOy5ubkFBQXaLwDEjIyMDBVGL1gEBidGhJiSxyBLB/hJFaEyk5gPij5QSvjYLSgIvDkIRxEtGqYfGV/Pu+hH4yiyhcBEzQPr0LgAmfxFyMthJrwj/4wVhB8Ew3DUbTZbTk5ORUVFXV1dv379br75ZuK2NWvWPProo/fee+/kyZMnTpzYr1+/2traSmkW6tq16+DBg8eOHUvyf86cOfPmzZsxY8bIkSObmpqqqqqcTif4Fd6Go0V+irfmITnGQME0EfgijZuNnCOfXX0aiScqBTB2RC+6FywvVgDzTO0l9YA8HhkD7+zoTZs2bdu27SUZvrtp06ZHHnlk3rx5t9566y233KK3vDc2NpaVlWVlZZFlprSPB+JplCTi4JLuglzTUwiKILBTPSCmASopymSN+H3VHjgX5gtl+Aa0cE0VDA6IsIW6a+IeRgbdVQLIJlVBui7KeYVJ7SkPgJc0JkTIY+thwL6ySZxk0raYWw4qlJmiF52ggeJqVSevqbNLCC3ARWhGTEwMB4/ikLy8PMKvfv363XbbbQ888MDq1aufe+65TZs2rVq1auXKlbNnz544ceKIESOam5ubmpoGDRo0QMYCNTc3jx07dvLkyTfddNPQoUOvv/76qqoql8ulblNtB1ZAPz6wXt0O8BSwR90Fn11rbTFGGnm3qMPEchlZUU4pC4XJQIONbrl169ZRUVHevon9+/cfOHBgz549L7300vr16++5555x48b17duX6RtMz+zcuXNJSQn9wHw8TdIEBQURS0H0GD98qDR26pFFI6FFwDrwOPjEoKAgCosoNCa/Bf/CGYBtaDFKGp4BD8Cv4ZhiYmJMEgIqVaRo0ujs7CKQR5DWKBlai/3gzGDtNHjSX4BL0fQez2CkKVBHLcXigAVIHwEeGcY6WgQ0hRNLSUmhPYl6PXglreFyuVwekZycnKKiooaGhhtuuGHJkiUPPfTQ9u3bX3vttS1btrzwwgurV69etGjRzJkzp02bNmnSpKFDh/bo0aOxsbFHjx4DBgwgrwHeZcY9FhSaCC2MlvvjYT8twq9x1JNFcOIc5lCpGAH8oHCAZlQFf6i6a9RRPeRt5TJx43azaywOf8KrRUdHe++1PHXq1N/+9re333577969W7duXbJkyciRIzt3vnbrQV1dXW1tbXV1dX5+PtUzdEbQekFMw+qDazXk1LAdnWOzjXN2Cc/xAhEREUG+0noArkIldTdKHFLhQBzKDEZOPBrDigMwLCImkwnYwBrR6JeSkpIq91dieq1St0mLZaSI4mO0k+AJOwEVzyZhzlFNam7IPGH+sdksPQ+JBfKX3HWQ1K3CWAM52DwNDXlC1V1YZKvVarPZ3DJ1L0eksLCwvr5+zJgxixYtWr58+Ysvvrh79+4dO3a88sor69evX7Vq1ZIlSxYuXDhr1qzx48cPGDCge/fuPXv2HDBgwPDhw0eOHInuduzYkS2mFgVsA6cBxeaQmRLU12uEyonCxChai4iIwO6Cm7XQSn+BjVAvhFHjf3W78ecsoCbqAaJBQUFeu8u1at99990XX3xx9uzZo0ePPvPMMzfeeGO1XHaQk5OTK5KTk6N3Uxo5P3bFGBTTJAz0DBLRmB2QTp24MTCn2ErdKIYc86nxk59PAnwzjfHO6tqoEaFmLTY21mKxgCsccg8wnDHoRcGDkRi3yrBE9QOKU6NEFDej1uio4gp2QoFdsBT44UNgSIC/xgDIT0osgNQcRcVOKD3qC/1pNpsV/9FiDtmSk+MdJZafn19SUtKpU6ehQ4fecccdd9111+OPP75169bXXntttwiTlTdt2vTUU08tWbLktttuGz9+/OjRo8eMGTN+/PixY8c2NTUNGTKkZ8+eNTU1RUVFeXl5OpgMw4+NzxfJlbYDlguCPyIigu32lyph0kB4G3Az+TYOKhoJkIDeiTD0IIWFhZFg4qVI2aK4vAsv5e/v37Zt21a///77b7/99q9//eunn366cuXK119/feTIkYcffpi7Ujp27EigStFkvAhQFY9mFSFNkJSUxGiWcN99ccTs7GKwlA4B0nkdiE8iHmNzEvYVoptPoqkyPpK+IPpqXBounGLgrkuEbWDCM+rO2UXz1MIly0xLRkNAbGEGFBuokdBDpVhICSCQAxkmHlKZaQw2zoocSnBwMC4CplNxuR5CrTrCg3OKGClL8Up2dna+jNRu3759fX19//79x4wZM3HixDlz5qxYsWLt2rX0E7z66qtvvPHG3r179+zZ88orr2zcuHHNmjUPP/zwgw8+eO+9986ZM+fWW2+dMmXKyJEje/fuXV1d3b59e1qY7JIOQHELCgpKRBiCli5RP/VlWErcJnaHE4sxZnewuOwsvI3iBFYPt9OC11f7rQYxMDAwIMB7IZd3ptNvv/3266+//vLLL4x1+uWXXy5evPjOO+88++yzTz755O233969e3eOWprcpmkSIb/v8k3Ucru9t+ZapFtBrxYKFOG08dChoaGgb05SeHg4Ja28pjY0sxaam0Bx/UX07LLBeOcwEcAWgQWzW9LlkkRoaa0xAM5iJ4zHyRg7gqvCw70zJRDjW2AXFQjBDyqhC8LjYbBAirOx5Rgb/lwxDPhH4ZPRooNPeAB1XCYZg0L7YF5eXmlpaadOnXr27Hn99dcPGTJk3LhxU6dOnTNnzty5c++///5nnnnmlVde2bt37+HDh//2t7+dPn36vffee/vtt0nCrVu3bsWKFffff//06dObmpo6duzImFQYK6uMi1S7C73jdrutVitMH3kTzelgKSmg4ySzgOwU37PvqCxRBDiTam/CHuh5gpYUKZWmGIOT4OfnFx4e3upXkV9++eW33377XeSnn3765JNP/vrXv7722mvLli1ramoqLS3lPmuyGsS5Docj29cykCPZcPxIfHy8pgc5bapnqrvYMGIyIAQGD9QIDAgMDERrVXc1V24ElBg/TCkuWPEunoFnJrMaLaLFD5C4wE0WEe3hMThC+vC6PUAgyk3QS6VjCbeNJcVGTIxpUTpCkRwhPOoLmYB/4IOor1R2KV66HkiUZGZmtmvXrqioqKampnv37v379+eyoHHjxk2ePPmWW26ZM2fOypUrN2/evHv37iNHjnz00UefffbZp59++ve///3MmTOHDh16+eWXn3766TVr1sydO1e5fE1SpKam0uCUJdNOc0RcLhd2CrDHIeegKmGCn8H0UvjLgVTWCECMyWihu0BNisJ1ExkMQPR/TXd/+OEHbmNFcX///fdffvnl8uXLn3zyyUcffbR169YZM2b06NGjU6dOxcXFTFlLk9ySw+Fwu918mFzfECvqSzTqZ+dwdmA+0ILqLsPXOQygOowT1275+cRfsmuaL8Br6yrw+vDH/BD7xLqYZB4eGB3rqPUSnAGd/6qoFNNIUMU6cgj5Xm2/fjqcPm+k6qvRm6IOnpPzoywKpldpIJADkaUeSAC08aSh7hSzE7cxI7B37979+vUbMmTI0KFDm0TGjRs3Z86cp556auvWrQcOHPjwww9pCP/yyy8//fTT06dPHzx48MUXX9y4ceM999wzYsSIyspKrgWAL+Kj0RuSIUIZF+FKjIx74jlZeTgZPo5ShxxX1kFXQ3U3MTGRM9BWLpIIFHIdBpeZ1emSgcfME8sGBgZ68e77779/6dIlVVy++e2333755ZerV6++9957jz766I033jhixIgePXqUl5e73W6Hw2GT21NccoWlxzdlyCNDGyjaR0vUtTmles0lQ0PS0tLIRFCxAQ9vEfJFCzVoU1G4HBwcjKdWM2ZES3FSQK1Ko2uEN8egQqRbpDaKK7lVM7AHhHE6MIbzDYbjMVp8pW9Rk0wmqe03i0AbxckEOCMBgq+MjfXOBqYADfuK68CHUsoNjsTiam6c6iKd6qUngSotl8vVvn17ymv69+/fu3fvxsbGzp07d+vWbfz48ffff/+6det27979/vvvf/HFF19//fVXX31FdP7OO+9s3779hRdeWLRo0ZAhQ4qKitxut8lk0gQvsZTmI9gjWAgAmEYR0AUxIhgp1Jf4oYUGa8SsWDZEJsgQi4eEhGjNbZqIRe7d4aVCQkJiYmJabdiw4cSJE5cvX/7p34XChmPHjj3xxBPTpk274YYbBg4cWFVVxQwfhwgwKCcnp6CgoLi4uEikXbt2mdK2xfSUqqqqhoaGriKNjY01NTX5+fmQiBFSjwvvg2+CZyXdoH1U6ozwoQSwaD/fx4ngc7FbrCwnWy1Huty3ZZNb6VAOPJqyiZhhQEKwXHpDZBDgy9wSKaLE6C71Xxw/jfbgENX7Azaw1uHh4USolBSC//SfjI0GcH/G2AXdVaeseUp+kpSU5Ha7y8vLq6qqunbt2tDQUFVVVVFRUVtbO2zYsPvuu++pp57asWPH8ePHz4hAjB45cuTVV1996qmnHnvssdtvv71Xr15k/qm14OMHBQXRKAVpiGqiiGpxQQX4Q2yHqia7gyfh1zQyUSdJQZKeUqIjnKfiMZMMKkB3w8LCvLU4N99886pVq/bv3//uu++eOnXq9OnT78tIsnfeeefQoUPPPffc3XffPWrUqMGDB3M7Q7bccO2Uaf05OTmFhYVFRUVlZWXl5eVlImhwdXV1ly5dBg4cyG0f06dPnzZt2pQpU0aNGtWjR4/c3Nzs7GxGUeBlaPywS+kxpbEgfV0INTOgRv6XFVS3C3RO8QlOnAyFRTp7bSLaxKILinqhrxorqMr6SQcRrBawgb1UM5OYmJgiJflg64SEBB5MA/BAEdSdTTWS+aiIkkdqetUg8QuB0jtorJaEdOMAtGnTxmw24wnLy8s7dOhQWlpaUlJSVVU1dOjQu++++9FHH33hhRf27t27f//+PXv27Nq165VXXnn++ecff/zxBQsWzJkzZ/jw4TU1NUyAjImJUX3iaBGE8ZEjpRVAFVEDUw4/X+lXi4qKQtcJ6dQisCDKFwUGBkoo7h8gQ59AaGqzjGcGmxXKzP6RI0cuXrx4x44db7311jvvvHP06NHjx4+/8847+/fvf+ONN/7yl7/Mnj27ubmZWXrFxcVut9spHWlutzsvL6+4uLikpKS8vLx9+/aob3FxcWlpaV1dHTfd3XbbbfNEZs+ePWPGDDLsRUVFubm53K0A88BALrsIfBxYCiKQ/QYpqu6qD+KzYb+TZf6uRbCBWWbemKWb4z/qLm9BaKhEm+IEf0kf+IkQLxIsAmAAANBYAJI0keTkZAqDyHIbd0t1F3dBAQaEGo4S/aCaVCEQlCfbTHQLLocP1jiJ28QcchtucbH3IrpiEXR3wYIFq1ateu6553bv3r1nz56dO3du37598+bNzz777EMPPcTWDBkypLKykmYkdJeDqhyR2hFAZwvdxV8Zv4aFhWGYOKj6QXBcfOVzYSaUAP1/ejubn7irLo5TKDhTpLVDh5lhYF4Z6LQOAz9gQqcwQIfyMu+vUAb60MbHFLsRaQiiUNNErdpYozFtdKFudNPE2MTEbl1qXGpMGpO60cQ/wL2Z83FOftKY+Lh4zoI003m5v3u/97x8z7nngl1zWoC4FgAwb/VeerFYrFQq7ezsvPnmm++8887777//4Ycf3r179+23337rrbc4vpZMJhNyu4EqXbwF5fxisdiYFHYZIhMTE9Vq9cqVK9evX//kk0++/PLLr7766v79+/fu3btz58729nZG2o4Hg0F2MIeq4d1QvbgNZseA7aubWIHLDGpnTP2SoLSmhF5xi/TKEQC33I2jdfvKbOA5QCqj51C3ynU0S+9UVXIUzeBMu1wur1xs75eC9M7OTlQRy4PeOrASRKsMXkMx8qV6bFPjIXgbvoG5OnHihIY4uF40qMPyhEKh00IB0Si7Uqns7OzcvHnz7t27n3766Wefffbxxx9/8MEH8Lu7u7vPPPPM+vr6/Pz8yMgI84bpMDuy5tzs3+ndA1QuW9EMOPTr4xPbIidccE6Uz2Hn6IuofGJcq9Va9xk4LRSNRuPx+MzMzMLCQqlUqlQqi4uL8/Pz8Xh8eHhYr/cIBoN9claTI1ODg4MRic/C4fpNzSGRcDgcj8fX1ta2t7ffe++9r7/++tGjR7/99tuvv/76888/f/PNNx999NHGxsbly5cNw9BrbWhX4fF4xKoHPB6PNi4xK10mAkwTKCiTZbVajx8/7na7GWRfX59XCGmnZEzwg1Vnq9PMK+adQJRG+kBVLyqBuko4NSUxaJ8YDAaZAY/HY7PZ2AOHGoXzhJjmuE2pPZBnbkHX0dGBFfKJqPePfdDEocPhgNEzkxK4T+TDSSsahpFMJmu1Gr1jrl+/fuPGjb29vZ2dnWvXrm1sbFy4cOH8+fPnzp0zDEOvL9Bw0y5C/NDZEKVQzP7uATVssVgIK/mQ2WdokVoODJp6Ykr9MiFWaRaqmviJJ56g7gAa6s+7AYlXMM1PST9QcuhuqSnWQKdXWixyxn1ArtygiXSw0afE6XQSa/f29kYikVwud+XKlddee+3BgwePHj36/fffSd398ssvDx48eOmll7a2tiYnJ3t6egjtqSYmb+6X3tFYXsyTulmKOUDMJKLkrFYrKQmftEVDBZpXV82repZQ6I0V6TyAYxYGNaB2EzqC8lMe2e12+6Q9WViOcvj9fj0QwQ+phtacsPpzqthwLqECjxw50tXVBavaL+e5u7u72aioXrP/B2txQoQ4Br6CtpNUuxuGkUgkZmdnM5nM8vLy2tparVZbWloqlUoLCwvxeBwFZLZUbHiXCDg22z1yN2x4deqO/VWeEtHhkRoE32b3DKOEa6uEDwuK+kAlozV4NBjYeh9IHaXZ8dc5xc840SChOK4ZCoVOnjxJLq23t9ftdrMv2aNdXV0ej2d0dHRubu7ixYs3b978/PPPv/vuu4cPH/70008//PDD/fv3d3d3X3jhhcnJyd7eXgwQ2T/4dp/kbGBhqRwAMWazhc9HNKO7n/rAx7HL/tQTQbitPCPAYuR2ux0QUBDnlO7nANpcwKA8HSRrd3e33+/vb5CAnATUkg8OSFN1hBPZIqwFMNVkCnxCs4jFYiGnrfUYtAeF/myT1DpqGxIQP4GFIDyF9/AKDc9inZYmaIZhxOPxqamp6enpiYmJM2fORKNREqLkGnpM5xztkgHhQYALM2ZehcedOgWrgoEpxTvH4quTcyC2Q/Vi99RvJrrQ59XMQL3vOdilC5pqpn+HXSAOdkdGRmZnZ1dXV1999dV79+59++23P/7448OHD7///vsvvvjixRdf3Nzc/OfYVZurevcAdhkw2PU3pEfOo4JvSpnAzT/HLgWWpHnRGe0i2IG/wy4sOjuBest/gV2v1/uvsQuawS7RG9gdHh6GRJuSQqvx8XHqFjwS2kLPgH5F3v8fuxg6xa45TlDXzmKx1LEbCoVI99GNgk42eNkwALq38CgwkcwIZS66VA6TUMYVjUbPnz+/vr6+t7d3+/btO3fuUNJ/6dKlWq1mGIbD4SCJRQiC3vV6vTh5BLawgBhKsIv9wtar/aI7EFbylAjDA8G0lFOdR5klmQUN29EQoA1eAraOailUr+oGmFqKxH1yfrj/MSEAIJVDPwer1YoP3dTU1NzcTMKFGcDlhXDAcQd8FECqz4D3gjdCQSmV0OAPTw9nBjfP3yjqEBakvh/odx2VPnR0+mfdNLsJP830QhGw8/lpwmJ8NjM2cBKOHz/O6pjVLbaLv6yXOrWK1DYRjcxwl1FJ6AuCad7f0tJSvxuQyuUzZ84MDg4G5IpafsNsPdl8xNTdchtPIBDol+DMK/2icYmYApwkh0QSKIBgMDg6OppMJjOZDJ5WIpGIx+Ner5fkDXwTHR48Ij1ybwXTgZEy47Wzs+6bMk7MEOVpNGeGtovH47FYjBViW8KtEEVBNqE++RW8Nc50QLQp40FNuhm72AGbzWa324nVPI2mB9qXd2RkxDCMSCQyIP09OftAmbKS8GAXl1HLnRkbSp1phMujnlCx29HRgW8AlwJ1z6phuBWRPY3bXxgt3e/C0qycHA0Gk/QQvofWdRBv6L6iRMbMWPEGc6CmbqsZeeSVmGQ+glOrxM5hEeUfSbiwNw6Mgc1fryMbHx+fnJxMJBJUbQakI5pbDtGDQq/XGxR6ISDHYwIifXIo2ev14nKwO1GKTGi3cKtUHlK2Yrfbe3p6cJTxrjo6Ohgrap6sY/dfmzwAUM2PY4gJNlFFZCzJH/p8vkgkcvbsWU5xJZPJiYmJ8fHxaDQaCATgfaBdmV80OvN+pCGqzFBUPIgmyVgPLBKbGYhgZB0Oh9/v5+a5mPCG9L/x+XxUa9BViSgEHKDG9FlAMLELXj6Gkt+1yGFSVNTRo0e7pcMcTip5OCyVzgn0M6uDdqe9QygUgoex2Wzt7e1kECha6JUApquri9wQk9MmWcbW1tY2abfPnmfM8Dy8AW6xRfILYLG1ITyRWYPCDLaYvH+SLygyTcupnm5rayMeOCSpojp2p6enk8nk9PQ0lWIKTRQqZ6MjkUg0Gh0aGopKzc2pU6cgUyhL05pUVAL6wC3lsC6X69ixY9TgUtkJvpkRNhC1F9R0EkjaJUogMkUpouHAh8Znyo4Bwc7OTrfbPTAwMCbJkWQyOTc3d+7cuUQiMTY2NjAwQCESJ9LUnQIHTDR/9Tw9lrdLxLz8IAPjSGgPVYIydjqdoVAoEokMSgdpLdgnCay6s7m5nkNiGAQirCvcUIsIM0M8h5Yy55+efPJJ1AR9jvWbeSLcRBCjGo57WejxQ3IR9cEA8H+IUAncMdBm4BIpEhyzzZSyPSSidDj/4MVDh+qtXg43OkUDcVZf3w8udW+oSWTLkdfQb/uzfpcWKTMzM4pdqEq0LG4r2B0WiUajkUgkHA77fD4t6Ebzs8dobYn6dDqdYBemU/lRZpPRQ4Lg36DPbDabFrJgT3kF7GJAmTimldWF0u/r6xseHuaq0Vlp95JIJGKxGKe3gaDFYtH1aJVDcmCFv5D8HNKC/6d+Ugl5MPqUiGaVlZ602+2BQCAsPeF0h+vj4DiymXlw5Q3Q+6TZQLbOjJlyBgfNzc3c9e4U9poDf8o9AV/+WkR0rx49epTqMxwJfBhcF+we1TOqj1hTYKdfqK4nBkQhhUZUODY1Nel/8URoB3Qt/6VvBrsoOLax2hB+rlWus9RP1et3s9lsqVTKZrMoJyiVERHDME6LDA0NGYah3sXZs2dHR0f7+vooSOBYjlkltLe341rRNQ0CSA2KGSj6b2YHBGvdKssJfQZvReBPmY4mb9H3BF60nwmFQmNjYzMzM7Ozs3gOg4ODPl+9KzfBqJoqpkyHAVwwAij7Ew1RmKLmVfco9YZqgTbvEdEjMRA4rAEI4xdZS2yxgsw8Ua2trbzOHmO0/D18+DBZEqXrFVKoEv0JM82EdYL3sNvtVqsVE98qbdlxA2gEob+F+gffbFHd/H83jfrZ//UfPK8aCkbODPCjqrPr2P2vtL989tlnc7nc1NTU5OTkzMxMoVCoVquVSiWVSs3IQcvp6WlSbktLS5VKJZPJTExMcH04dKxb7p9i17pcLqp7T58+ffLkSdqZ4EM7RFwiuJK84hQhSPIKMemRUxg4Yf39/bA8dJfyybnI7kbDLL6tp3F2kncmEolsNlupVJaWlorF4uzsbEwu5eSoM+PsFMFFwTcguPRIE2wYmFMi4XCYkMvXaEfH8Hgo/TZ8egxXf38/3Y/dDekVIbRCX/LUTqcTMwXiXS6XEsxutxvnzSVVyPDoOmxtY09YGRDxS2aHgeH2MIeE108//fSQCOV+Ho9H579HyokU1jaxfiSnCOP8Ijw4a0e2UsfjcDgIGbWajyjQbhJUAR8x/+WdcCY6RU6nE/aDFfFIQyciB6/X23Tr1q1333339u3b+/v7W1tbm5ub165du3HjxhtvvPH666/v7e09//zzV69efe655zY3N3d3d/f398koXr16lU7F1Wq1XC4Xi8VsNpvJZLivuVqt1mq1VZHl5WXeUCgUciKFhuTzeT6VzWZzuVyhUCgWi6VSiffnRcrl8srKysWLF//T6DBQkf5Z+tlMJsPHc7lcsVi8cOHCysrKxsbG9vb2/v7+K6+88vLLL29tbXGzbK1WK5VK6XR6USSVSvHxbEPy+XyxWCyXy8vLy7VabU1kdXV1ZWWFJy3mL5UjAAAAwUlEQVTJ6X8aAORyuWw2m0qlFhYWFhcX0+n6PetsGDZ5ofDntet8bbFY1FcaP1h/8Hw+z7PztQyJj1QqlXK5nM/nc7n63e3zDUmlUoVCoVwuVyqVarW6ZJJyuVwoFPT70UQ8zvr6+uXLly9durS2traysoLJNU8+T7S4uDg3N8cT5XK5UqlUbYguTS6Xy2Qy6XSaAtd0Os0KssSZTCaVSqXT6cxfhfcz+YuLiwsN4UtYQaYIYDAJ1ClUKhUmnwP6fwDHxqUmfOmaIAAAAABJRU5ErkJggg==;" vertex="1" parent="1">
          <mxGeometry x="-150" y="268.5" width="105.45" height="105" as="geometry" />
        </mxCell>
        <mxCell id="3uHl7x6qHm_plDaVCpx7-65" value="" style="endArrow=classic;html=1;rounded=0;" edge="1" parent="1">
          <mxGeometry width="50" height="50" relative="1" as="geometry">
            <mxPoint x="-38" y="321" as="sourcePoint" />
            <mxPoint x="-8" y="321" as="targetPoint" />
          </mxGeometry>
        </mxCell>
      </root>
    </mxGraphModel>
  </diagram>
</mxfile>
